%TF.GenerationSoftware,KiCad,Pcbnew,9.0.2*%
%TF.CreationDate,2025-06-09T13:52:28+08:00*%
%TF.ProjectId,WLED32Hub,574c4544-3332-4487-9562-2e6b69636164,rev?*%
%TF.SameCoordinates,Original*%
%TF.FileFunction,Legend,Top*%
%TF.FilePolarity,Positive*%
%FSLAX46Y46*%
G04 Gerber Fmt 4.6, Leading zero omitted, Abs format (unit mm)*
G04 Created by KiCad (PCBNEW 9.0.2) date 2025-06-09 13:52:28*
%MOMM*%
%LPD*%
G01*
G04 APERTURE LIST*
%ADD10C,0.158750*%
%ADD11C,0.100000*%
%ADD12C,0.150000*%
%ADD13C,0.120000*%
%ADD14C,0.127000*%
%ADD15C,0.200000*%
G04 APERTURE END LIST*
D10*
X141473582Y-142584321D02*
X140868820Y-142584321D01*
X140868820Y-142584321D02*
X140868820Y-141314321D01*
X142441201Y-141314321D02*
X142199296Y-141314321D01*
X142199296Y-141314321D02*
X142078344Y-141374797D01*
X142078344Y-141374797D02*
X142017868Y-141435273D01*
X142017868Y-141435273D02*
X141896915Y-141616702D01*
X141896915Y-141616702D02*
X141836439Y-141858606D01*
X141836439Y-141858606D02*
X141836439Y-142342416D01*
X141836439Y-142342416D02*
X141896915Y-142463368D01*
X141896915Y-142463368D02*
X141957392Y-142523845D01*
X141957392Y-142523845D02*
X142078344Y-142584321D01*
X142078344Y-142584321D02*
X142320249Y-142584321D01*
X142320249Y-142584321D02*
X142441201Y-142523845D01*
X142441201Y-142523845D02*
X142501677Y-142463368D01*
X142501677Y-142463368D02*
X142562154Y-142342416D01*
X142562154Y-142342416D02*
X142562154Y-142040035D01*
X142562154Y-142040035D02*
X142501677Y-141919083D01*
X142501677Y-141919083D02*
X142441201Y-141858606D01*
X142441201Y-141858606D02*
X142320249Y-141798130D01*
X142320249Y-141798130D02*
X142078344Y-141798130D01*
X142078344Y-141798130D02*
X141957392Y-141858606D01*
X141957392Y-141858606D02*
X141896915Y-141919083D01*
X141896915Y-141919083D02*
X141836439Y-142040035D01*
X144074058Y-142100511D02*
X145041678Y-142100511D01*
X145646439Y-141737654D02*
X146614059Y-142100511D01*
X146614059Y-142100511D02*
X145646439Y-142463368D01*
X148186439Y-142584321D02*
X148186439Y-141314321D01*
X148186439Y-141314321D02*
X148670249Y-141314321D01*
X148670249Y-141314321D02*
X148791201Y-141374797D01*
X148791201Y-141374797D02*
X148851678Y-141435273D01*
X148851678Y-141435273D02*
X148912154Y-141556225D01*
X148912154Y-141556225D02*
X148912154Y-141737654D01*
X148912154Y-141737654D02*
X148851678Y-141858606D01*
X148851678Y-141858606D02*
X148791201Y-141919083D01*
X148791201Y-141919083D02*
X148670249Y-141979559D01*
X148670249Y-141979559D02*
X148186439Y-141979559D01*
X150121678Y-142584321D02*
X149395963Y-142584321D01*
X149758820Y-142584321D02*
X149758820Y-141314321D01*
X149758820Y-141314321D02*
X149637868Y-141495749D01*
X149637868Y-141495749D02*
X149516916Y-141616702D01*
X149516916Y-141616702D02*
X149395963Y-141677178D01*
X151270725Y-141314321D02*
X150665963Y-141314321D01*
X150665963Y-141314321D02*
X150605487Y-141919083D01*
X150605487Y-141919083D02*
X150665963Y-141858606D01*
X150665963Y-141858606D02*
X150786916Y-141798130D01*
X150786916Y-141798130D02*
X151089297Y-141798130D01*
X151089297Y-141798130D02*
X151210249Y-141858606D01*
X151210249Y-141858606D02*
X151270725Y-141919083D01*
X151270725Y-141919083D02*
X151331202Y-142040035D01*
X151331202Y-142040035D02*
X151331202Y-142342416D01*
X151331202Y-142342416D02*
X151270725Y-142463368D01*
X151270725Y-142463368D02*
X151210249Y-142523845D01*
X151210249Y-142523845D02*
X151089297Y-142584321D01*
X151089297Y-142584321D02*
X150786916Y-142584321D01*
X150786916Y-142584321D02*
X150665963Y-142523845D01*
X150665963Y-142523845D02*
X150605487Y-142463368D01*
D11*
X139396000Y-140258000D02*
X156006800Y-140258000D01*
X156006800Y-143510000D01*
X139396000Y-143510000D01*
X139396000Y-140258000D01*
D10*
X141410082Y-116022271D02*
X140805320Y-116022271D01*
X140805320Y-116022271D02*
X140805320Y-114752271D01*
X142498654Y-116022271D02*
X141772939Y-116022271D01*
X142135796Y-116022271D02*
X142135796Y-114752271D01*
X142135796Y-114752271D02*
X142014844Y-114933699D01*
X142014844Y-114933699D02*
X141893892Y-115054652D01*
X141893892Y-115054652D02*
X141772939Y-115115128D01*
X144010558Y-115538461D02*
X144978178Y-115538461D01*
X145582939Y-115175604D02*
X146550559Y-115538461D01*
X146550559Y-115538461D02*
X145582939Y-115901318D01*
X148122939Y-116022271D02*
X148122939Y-114752271D01*
X148122939Y-114752271D02*
X148606749Y-114752271D01*
X148606749Y-114752271D02*
X148727701Y-114812747D01*
X148727701Y-114812747D02*
X148788178Y-114873223D01*
X148788178Y-114873223D02*
X148848654Y-114994175D01*
X148848654Y-114994175D02*
X148848654Y-115175604D01*
X148848654Y-115175604D02*
X148788178Y-115296556D01*
X148788178Y-115296556D02*
X148727701Y-115357033D01*
X148727701Y-115357033D02*
X148606749Y-115417509D01*
X148606749Y-115417509D02*
X148122939Y-115417509D01*
X149332463Y-114873223D02*
X149392939Y-114812747D01*
X149392939Y-114812747D02*
X149513892Y-114752271D01*
X149513892Y-114752271D02*
X149816273Y-114752271D01*
X149816273Y-114752271D02*
X149937225Y-114812747D01*
X149937225Y-114812747D02*
X149997701Y-114873223D01*
X149997701Y-114873223D02*
X150058178Y-114994175D01*
X150058178Y-114994175D02*
X150058178Y-115115128D01*
X150058178Y-115115128D02*
X149997701Y-115296556D01*
X149997701Y-115296556D02*
X149271987Y-116022271D01*
X149271987Y-116022271D02*
X150058178Y-116022271D01*
X141410082Y-119324271D02*
X140805320Y-119324271D01*
X140805320Y-119324271D02*
X140805320Y-118054271D01*
X141772939Y-118175223D02*
X141833415Y-118114747D01*
X141833415Y-118114747D02*
X141954368Y-118054271D01*
X141954368Y-118054271D02*
X142256749Y-118054271D01*
X142256749Y-118054271D02*
X142377701Y-118114747D01*
X142377701Y-118114747D02*
X142438177Y-118175223D01*
X142438177Y-118175223D02*
X142498654Y-118296175D01*
X142498654Y-118296175D02*
X142498654Y-118417128D01*
X142498654Y-118417128D02*
X142438177Y-118598556D01*
X142438177Y-118598556D02*
X141712463Y-119324271D01*
X141712463Y-119324271D02*
X142498654Y-119324271D01*
X144010558Y-118840461D02*
X144978178Y-118840461D01*
X145582939Y-118477604D02*
X146550559Y-118840461D01*
X146550559Y-118840461D02*
X145582939Y-119203318D01*
X148122939Y-119324271D02*
X148122939Y-118054271D01*
X148122939Y-118054271D02*
X148606749Y-118054271D01*
X148606749Y-118054271D02*
X148727701Y-118114747D01*
X148727701Y-118114747D02*
X148788178Y-118175223D01*
X148788178Y-118175223D02*
X148848654Y-118296175D01*
X148848654Y-118296175D02*
X148848654Y-118477604D01*
X148848654Y-118477604D02*
X148788178Y-118598556D01*
X148788178Y-118598556D02*
X148727701Y-118659033D01*
X148727701Y-118659033D02*
X148606749Y-118719509D01*
X148606749Y-118719509D02*
X148122939Y-118719509D01*
X149937225Y-118477604D02*
X149937225Y-119324271D01*
X149634844Y-117993795D02*
X149332463Y-118900937D01*
X149332463Y-118900937D02*
X150118654Y-118900937D01*
X141410082Y-122626271D02*
X140805320Y-122626271D01*
X140805320Y-122626271D02*
X140805320Y-121356271D01*
X141712463Y-121356271D02*
X142498654Y-121356271D01*
X142498654Y-121356271D02*
X142075320Y-121840080D01*
X142075320Y-121840080D02*
X142256749Y-121840080D01*
X142256749Y-121840080D02*
X142377701Y-121900556D01*
X142377701Y-121900556D02*
X142438177Y-121961033D01*
X142438177Y-121961033D02*
X142498654Y-122081985D01*
X142498654Y-122081985D02*
X142498654Y-122384366D01*
X142498654Y-122384366D02*
X142438177Y-122505318D01*
X142438177Y-122505318D02*
X142377701Y-122565795D01*
X142377701Y-122565795D02*
X142256749Y-122626271D01*
X142256749Y-122626271D02*
X141893892Y-122626271D01*
X141893892Y-122626271D02*
X141772939Y-122565795D01*
X141772939Y-122565795D02*
X141712463Y-122505318D01*
X144010558Y-122142461D02*
X144978178Y-122142461D01*
X145582939Y-121779604D02*
X146550559Y-122142461D01*
X146550559Y-122142461D02*
X145582939Y-122505318D01*
X148122939Y-122626271D02*
X148122939Y-121356271D01*
X148122939Y-121356271D02*
X148606749Y-121356271D01*
X148606749Y-121356271D02*
X148727701Y-121416747D01*
X148727701Y-121416747D02*
X148788178Y-121477223D01*
X148788178Y-121477223D02*
X148848654Y-121598175D01*
X148848654Y-121598175D02*
X148848654Y-121779604D01*
X148848654Y-121779604D02*
X148788178Y-121900556D01*
X148788178Y-121900556D02*
X148727701Y-121961033D01*
X148727701Y-121961033D02*
X148606749Y-122021509D01*
X148606749Y-122021509D02*
X148122939Y-122021509D01*
X149997701Y-121356271D02*
X149392939Y-121356271D01*
X149392939Y-121356271D02*
X149332463Y-121961033D01*
X149332463Y-121961033D02*
X149392939Y-121900556D01*
X149392939Y-121900556D02*
X149513892Y-121840080D01*
X149513892Y-121840080D02*
X149816273Y-121840080D01*
X149816273Y-121840080D02*
X149937225Y-121900556D01*
X149937225Y-121900556D02*
X149997701Y-121961033D01*
X149997701Y-121961033D02*
X150058178Y-122081985D01*
X150058178Y-122081985D02*
X150058178Y-122384366D01*
X150058178Y-122384366D02*
X149997701Y-122505318D01*
X149997701Y-122505318D02*
X149937225Y-122565795D01*
X149937225Y-122565795D02*
X149816273Y-122626271D01*
X149816273Y-122626271D02*
X149513892Y-122626271D01*
X149513892Y-122626271D02*
X149392939Y-122565795D01*
X149392939Y-122565795D02*
X149332463Y-122505318D01*
X141410082Y-125928271D02*
X140805320Y-125928271D01*
X140805320Y-125928271D02*
X140805320Y-124658271D01*
X141712463Y-124658271D02*
X142559130Y-124658271D01*
X142559130Y-124658271D02*
X142014844Y-125928271D01*
X144010558Y-125444461D02*
X144978178Y-125444461D01*
X145582939Y-125081604D02*
X146550559Y-125444461D01*
X146550559Y-125444461D02*
X145582939Y-125807318D01*
X148122939Y-125928271D02*
X148122939Y-124658271D01*
X148122939Y-124658271D02*
X148606749Y-124658271D01*
X148606749Y-124658271D02*
X148727701Y-124718747D01*
X148727701Y-124718747D02*
X148788178Y-124779223D01*
X148788178Y-124779223D02*
X148848654Y-124900175D01*
X148848654Y-124900175D02*
X148848654Y-125081604D01*
X148848654Y-125081604D02*
X148788178Y-125202556D01*
X148788178Y-125202556D02*
X148727701Y-125263033D01*
X148727701Y-125263033D02*
X148606749Y-125323509D01*
X148606749Y-125323509D02*
X148122939Y-125323509D01*
X150058178Y-125928271D02*
X149332463Y-125928271D01*
X149695320Y-125928271D02*
X149695320Y-124658271D01*
X149695320Y-124658271D02*
X149574368Y-124839699D01*
X149574368Y-124839699D02*
X149453416Y-124960652D01*
X149453416Y-124960652D02*
X149332463Y-125021128D01*
X150783892Y-125202556D02*
X150662940Y-125142080D01*
X150662940Y-125142080D02*
X150602463Y-125081604D01*
X150602463Y-125081604D02*
X150541987Y-124960652D01*
X150541987Y-124960652D02*
X150541987Y-124900175D01*
X150541987Y-124900175D02*
X150602463Y-124779223D01*
X150602463Y-124779223D02*
X150662940Y-124718747D01*
X150662940Y-124718747D02*
X150783892Y-124658271D01*
X150783892Y-124658271D02*
X151025797Y-124658271D01*
X151025797Y-124658271D02*
X151146749Y-124718747D01*
X151146749Y-124718747D02*
X151207225Y-124779223D01*
X151207225Y-124779223D02*
X151267702Y-124900175D01*
X151267702Y-124900175D02*
X151267702Y-124960652D01*
X151267702Y-124960652D02*
X151207225Y-125081604D01*
X151207225Y-125081604D02*
X151146749Y-125142080D01*
X151146749Y-125142080D02*
X151025797Y-125202556D01*
X151025797Y-125202556D02*
X150783892Y-125202556D01*
X150783892Y-125202556D02*
X150662940Y-125263033D01*
X150662940Y-125263033D02*
X150602463Y-125323509D01*
X150602463Y-125323509D02*
X150541987Y-125444461D01*
X150541987Y-125444461D02*
X150541987Y-125686366D01*
X150541987Y-125686366D02*
X150602463Y-125807318D01*
X150602463Y-125807318D02*
X150662940Y-125867795D01*
X150662940Y-125867795D02*
X150783892Y-125928271D01*
X150783892Y-125928271D02*
X151025797Y-125928271D01*
X151025797Y-125928271D02*
X151146749Y-125867795D01*
X151146749Y-125867795D02*
X151207225Y-125807318D01*
X151207225Y-125807318D02*
X151267702Y-125686366D01*
X151267702Y-125686366D02*
X151267702Y-125444461D01*
X151267702Y-125444461D02*
X151207225Y-125323509D01*
X151207225Y-125323509D02*
X151146749Y-125263033D01*
X151146749Y-125263033D02*
X151025797Y-125202556D01*
X141410082Y-129230271D02*
X140805320Y-129230271D01*
X140805320Y-129230271D02*
X140805320Y-127960271D01*
X142014844Y-128504556D02*
X141893892Y-128444080D01*
X141893892Y-128444080D02*
X141833415Y-128383604D01*
X141833415Y-128383604D02*
X141772939Y-128262652D01*
X141772939Y-128262652D02*
X141772939Y-128202175D01*
X141772939Y-128202175D02*
X141833415Y-128081223D01*
X141833415Y-128081223D02*
X141893892Y-128020747D01*
X141893892Y-128020747D02*
X142014844Y-127960271D01*
X142014844Y-127960271D02*
X142256749Y-127960271D01*
X142256749Y-127960271D02*
X142377701Y-128020747D01*
X142377701Y-128020747D02*
X142438177Y-128081223D01*
X142438177Y-128081223D02*
X142498654Y-128202175D01*
X142498654Y-128202175D02*
X142498654Y-128262652D01*
X142498654Y-128262652D02*
X142438177Y-128383604D01*
X142438177Y-128383604D02*
X142377701Y-128444080D01*
X142377701Y-128444080D02*
X142256749Y-128504556D01*
X142256749Y-128504556D02*
X142014844Y-128504556D01*
X142014844Y-128504556D02*
X141893892Y-128565033D01*
X141893892Y-128565033D02*
X141833415Y-128625509D01*
X141833415Y-128625509D02*
X141772939Y-128746461D01*
X141772939Y-128746461D02*
X141772939Y-128988366D01*
X141772939Y-128988366D02*
X141833415Y-129109318D01*
X141833415Y-129109318D02*
X141893892Y-129169795D01*
X141893892Y-129169795D02*
X142014844Y-129230271D01*
X142014844Y-129230271D02*
X142256749Y-129230271D01*
X142256749Y-129230271D02*
X142377701Y-129169795D01*
X142377701Y-129169795D02*
X142438177Y-129109318D01*
X142438177Y-129109318D02*
X142498654Y-128988366D01*
X142498654Y-128988366D02*
X142498654Y-128746461D01*
X142498654Y-128746461D02*
X142438177Y-128625509D01*
X142438177Y-128625509D02*
X142377701Y-128565033D01*
X142377701Y-128565033D02*
X142256749Y-128504556D01*
X144010558Y-128746461D02*
X144978178Y-128746461D01*
X145582939Y-128383604D02*
X146550559Y-128746461D01*
X146550559Y-128746461D02*
X145582939Y-129109318D01*
X148122939Y-129230271D02*
X148122939Y-127960271D01*
X148122939Y-127960271D02*
X148606749Y-127960271D01*
X148606749Y-127960271D02*
X148727701Y-128020747D01*
X148727701Y-128020747D02*
X148788178Y-128081223D01*
X148788178Y-128081223D02*
X148848654Y-128202175D01*
X148848654Y-128202175D02*
X148848654Y-128383604D01*
X148848654Y-128383604D02*
X148788178Y-128504556D01*
X148788178Y-128504556D02*
X148727701Y-128565033D01*
X148727701Y-128565033D02*
X148606749Y-128625509D01*
X148606749Y-128625509D02*
X148122939Y-128625509D01*
X150058178Y-129230271D02*
X149332463Y-129230271D01*
X149695320Y-129230271D02*
X149695320Y-127960271D01*
X149695320Y-127960271D02*
X149574368Y-128141699D01*
X149574368Y-128141699D02*
X149453416Y-128262652D01*
X149453416Y-128262652D02*
X149332463Y-128323128D01*
X150662940Y-129230271D02*
X150904844Y-129230271D01*
X150904844Y-129230271D02*
X151025797Y-129169795D01*
X151025797Y-129169795D02*
X151086273Y-129109318D01*
X151086273Y-129109318D02*
X151207225Y-128927890D01*
X151207225Y-128927890D02*
X151267702Y-128685985D01*
X151267702Y-128685985D02*
X151267702Y-128202175D01*
X151267702Y-128202175D02*
X151207225Y-128081223D01*
X151207225Y-128081223D02*
X151146749Y-128020747D01*
X151146749Y-128020747D02*
X151025797Y-127960271D01*
X151025797Y-127960271D02*
X150783892Y-127960271D01*
X150783892Y-127960271D02*
X150662940Y-128020747D01*
X150662940Y-128020747D02*
X150602463Y-128081223D01*
X150602463Y-128081223D02*
X150541987Y-128202175D01*
X150541987Y-128202175D02*
X150541987Y-128504556D01*
X150541987Y-128504556D02*
X150602463Y-128625509D01*
X150602463Y-128625509D02*
X150662940Y-128685985D01*
X150662940Y-128685985D02*
X150783892Y-128746461D01*
X150783892Y-128746461D02*
X151025797Y-128746461D01*
X151025797Y-128746461D02*
X151146749Y-128685985D01*
X151146749Y-128685985D02*
X151207225Y-128625509D01*
X151207225Y-128625509D02*
X151267702Y-128504556D01*
X141410082Y-132532271D02*
X140805320Y-132532271D01*
X140805320Y-132532271D02*
X140805320Y-131262271D01*
X141893892Y-132532271D02*
X142135796Y-132532271D01*
X142135796Y-132532271D02*
X142256749Y-132471795D01*
X142256749Y-132471795D02*
X142317225Y-132411318D01*
X142317225Y-132411318D02*
X142438177Y-132229890D01*
X142438177Y-132229890D02*
X142498654Y-131987985D01*
X142498654Y-131987985D02*
X142498654Y-131504175D01*
X142498654Y-131504175D02*
X142438177Y-131383223D01*
X142438177Y-131383223D02*
X142377701Y-131322747D01*
X142377701Y-131322747D02*
X142256749Y-131262271D01*
X142256749Y-131262271D02*
X142014844Y-131262271D01*
X142014844Y-131262271D02*
X141893892Y-131322747D01*
X141893892Y-131322747D02*
X141833415Y-131383223D01*
X141833415Y-131383223D02*
X141772939Y-131504175D01*
X141772939Y-131504175D02*
X141772939Y-131806556D01*
X141772939Y-131806556D02*
X141833415Y-131927509D01*
X141833415Y-131927509D02*
X141893892Y-131987985D01*
X141893892Y-131987985D02*
X142014844Y-132048461D01*
X142014844Y-132048461D02*
X142256749Y-132048461D01*
X142256749Y-132048461D02*
X142377701Y-131987985D01*
X142377701Y-131987985D02*
X142438177Y-131927509D01*
X142438177Y-131927509D02*
X142498654Y-131806556D01*
X144010558Y-132048461D02*
X144978178Y-132048461D01*
X145582939Y-131685604D02*
X146550559Y-132048461D01*
X146550559Y-132048461D02*
X145582939Y-132411318D01*
X148122939Y-132532271D02*
X148122939Y-131262271D01*
X148122939Y-131262271D02*
X148606749Y-131262271D01*
X148606749Y-131262271D02*
X148727701Y-131322747D01*
X148727701Y-131322747D02*
X148788178Y-131383223D01*
X148788178Y-131383223D02*
X148848654Y-131504175D01*
X148848654Y-131504175D02*
X148848654Y-131685604D01*
X148848654Y-131685604D02*
X148788178Y-131806556D01*
X148788178Y-131806556D02*
X148727701Y-131867033D01*
X148727701Y-131867033D02*
X148606749Y-131927509D01*
X148606749Y-131927509D02*
X148122939Y-131927509D01*
X149332463Y-131383223D02*
X149392939Y-131322747D01*
X149392939Y-131322747D02*
X149513892Y-131262271D01*
X149513892Y-131262271D02*
X149816273Y-131262271D01*
X149816273Y-131262271D02*
X149937225Y-131322747D01*
X149937225Y-131322747D02*
X149997701Y-131383223D01*
X149997701Y-131383223D02*
X150058178Y-131504175D01*
X150058178Y-131504175D02*
X150058178Y-131625128D01*
X150058178Y-131625128D02*
X149997701Y-131806556D01*
X149997701Y-131806556D02*
X149271987Y-132532271D01*
X149271987Y-132532271D02*
X150058178Y-132532271D01*
X151267702Y-132532271D02*
X150541987Y-132532271D01*
X150904844Y-132532271D02*
X150904844Y-131262271D01*
X150904844Y-131262271D02*
X150783892Y-131443699D01*
X150783892Y-131443699D02*
X150662940Y-131564652D01*
X150662940Y-131564652D02*
X150541987Y-131625128D01*
X141410082Y-135834271D02*
X140805320Y-135834271D01*
X140805320Y-135834271D02*
X140805320Y-134564271D01*
X142498654Y-135834271D02*
X141772939Y-135834271D01*
X142135796Y-135834271D02*
X142135796Y-134564271D01*
X142135796Y-134564271D02*
X142014844Y-134745699D01*
X142014844Y-134745699D02*
X141893892Y-134866652D01*
X141893892Y-134866652D02*
X141772939Y-134927128D01*
X143284844Y-134564271D02*
X143405797Y-134564271D01*
X143405797Y-134564271D02*
X143526749Y-134624747D01*
X143526749Y-134624747D02*
X143587225Y-134685223D01*
X143587225Y-134685223D02*
X143647701Y-134806175D01*
X143647701Y-134806175D02*
X143708178Y-135048080D01*
X143708178Y-135048080D02*
X143708178Y-135350461D01*
X143708178Y-135350461D02*
X143647701Y-135592366D01*
X143647701Y-135592366D02*
X143587225Y-135713318D01*
X143587225Y-135713318D02*
X143526749Y-135773795D01*
X143526749Y-135773795D02*
X143405797Y-135834271D01*
X143405797Y-135834271D02*
X143284844Y-135834271D01*
X143284844Y-135834271D02*
X143163892Y-135773795D01*
X143163892Y-135773795D02*
X143103416Y-135713318D01*
X143103416Y-135713318D02*
X143042939Y-135592366D01*
X143042939Y-135592366D02*
X142982463Y-135350461D01*
X142982463Y-135350461D02*
X142982463Y-135048080D01*
X142982463Y-135048080D02*
X143042939Y-134806175D01*
X143042939Y-134806175D02*
X143103416Y-134685223D01*
X143103416Y-134685223D02*
X143163892Y-134624747D01*
X143163892Y-134624747D02*
X143284844Y-134564271D01*
X145220082Y-135350461D02*
X146187702Y-135350461D01*
X146792463Y-134987604D02*
X147760083Y-135350461D01*
X147760083Y-135350461D02*
X146792463Y-135713318D01*
X149332463Y-135834271D02*
X149332463Y-134564271D01*
X149332463Y-134564271D02*
X149816273Y-134564271D01*
X149816273Y-134564271D02*
X149937225Y-134624747D01*
X149937225Y-134624747D02*
X149997702Y-134685223D01*
X149997702Y-134685223D02*
X150058178Y-134806175D01*
X150058178Y-134806175D02*
X150058178Y-134987604D01*
X150058178Y-134987604D02*
X149997702Y-135108556D01*
X149997702Y-135108556D02*
X149937225Y-135169033D01*
X149937225Y-135169033D02*
X149816273Y-135229509D01*
X149816273Y-135229509D02*
X149332463Y-135229509D01*
X150541987Y-134685223D02*
X150602463Y-134624747D01*
X150602463Y-134624747D02*
X150723416Y-134564271D01*
X150723416Y-134564271D02*
X151025797Y-134564271D01*
X151025797Y-134564271D02*
X151146749Y-134624747D01*
X151146749Y-134624747D02*
X151207225Y-134685223D01*
X151207225Y-134685223D02*
X151267702Y-134806175D01*
X151267702Y-134806175D02*
X151267702Y-134927128D01*
X151267702Y-134927128D02*
X151207225Y-135108556D01*
X151207225Y-135108556D02*
X150481511Y-135834271D01*
X150481511Y-135834271D02*
X151267702Y-135834271D01*
X151751511Y-134685223D02*
X151811987Y-134624747D01*
X151811987Y-134624747D02*
X151932940Y-134564271D01*
X151932940Y-134564271D02*
X152235321Y-134564271D01*
X152235321Y-134564271D02*
X152356273Y-134624747D01*
X152356273Y-134624747D02*
X152416749Y-134685223D01*
X152416749Y-134685223D02*
X152477226Y-134806175D01*
X152477226Y-134806175D02*
X152477226Y-134927128D01*
X152477226Y-134927128D02*
X152416749Y-135108556D01*
X152416749Y-135108556D02*
X151691035Y-135834271D01*
X151691035Y-135834271D02*
X152477226Y-135834271D01*
X141410082Y-139136271D02*
X140805320Y-139136271D01*
X140805320Y-139136271D02*
X140805320Y-137866271D01*
X142498654Y-139136271D02*
X141772939Y-139136271D01*
X142135796Y-139136271D02*
X142135796Y-137866271D01*
X142135796Y-137866271D02*
X142014844Y-138047699D01*
X142014844Y-138047699D02*
X141893892Y-138168652D01*
X141893892Y-138168652D02*
X141772939Y-138229128D01*
X143708178Y-139136271D02*
X142982463Y-139136271D01*
X143345320Y-139136271D02*
X143345320Y-137866271D01*
X143345320Y-137866271D02*
X143224368Y-138047699D01*
X143224368Y-138047699D02*
X143103416Y-138168652D01*
X143103416Y-138168652D02*
X142982463Y-138229128D01*
X145220082Y-138652461D02*
X146187702Y-138652461D01*
X146792463Y-138289604D02*
X147760083Y-138652461D01*
X147760083Y-138652461D02*
X146792463Y-139015318D01*
X149332463Y-139136271D02*
X149332463Y-137866271D01*
X149332463Y-137866271D02*
X149816273Y-137866271D01*
X149816273Y-137866271D02*
X149937225Y-137926747D01*
X149937225Y-137926747D02*
X149997702Y-137987223D01*
X149997702Y-137987223D02*
X150058178Y-138108175D01*
X150058178Y-138108175D02*
X150058178Y-138289604D01*
X150058178Y-138289604D02*
X149997702Y-138410556D01*
X149997702Y-138410556D02*
X149937225Y-138471033D01*
X149937225Y-138471033D02*
X149816273Y-138531509D01*
X149816273Y-138531509D02*
X149332463Y-138531509D01*
X150541987Y-137987223D02*
X150602463Y-137926747D01*
X150602463Y-137926747D02*
X150723416Y-137866271D01*
X150723416Y-137866271D02*
X151025797Y-137866271D01*
X151025797Y-137866271D02*
X151146749Y-137926747D01*
X151146749Y-137926747D02*
X151207225Y-137987223D01*
X151207225Y-137987223D02*
X151267702Y-138108175D01*
X151267702Y-138108175D02*
X151267702Y-138229128D01*
X151267702Y-138229128D02*
X151207225Y-138410556D01*
X151207225Y-138410556D02*
X150481511Y-139136271D01*
X150481511Y-139136271D02*
X151267702Y-139136271D01*
X151691035Y-137866271D02*
X152477226Y-137866271D01*
X152477226Y-137866271D02*
X152053892Y-138350080D01*
X152053892Y-138350080D02*
X152235321Y-138350080D01*
X152235321Y-138350080D02*
X152356273Y-138410556D01*
X152356273Y-138410556D02*
X152416749Y-138471033D01*
X152416749Y-138471033D02*
X152477226Y-138591985D01*
X152477226Y-138591985D02*
X152477226Y-138894366D01*
X152477226Y-138894366D02*
X152416749Y-139015318D01*
X152416749Y-139015318D02*
X152356273Y-139075795D01*
X152356273Y-139075795D02*
X152235321Y-139136271D01*
X152235321Y-139136271D02*
X151872464Y-139136271D01*
X151872464Y-139136271D02*
X151751511Y-139075795D01*
X151751511Y-139075795D02*
X151691035Y-139015318D01*
D11*
X156006000Y-117144000D02*
X139396000Y-117144000D01*
X156006000Y-120446000D02*
X139396000Y-120446000D01*
X156006000Y-123748000D02*
X139396000Y-123748000D01*
X156006000Y-127050000D02*
X139396000Y-127050000D01*
X156006000Y-130352000D02*
X139396000Y-130352000D01*
X156006000Y-133654000D02*
X139396000Y-133654000D01*
X156006000Y-136956000D02*
X139396000Y-136956000D01*
X139396000Y-113742000D02*
X156006000Y-113742000D01*
X156006000Y-113742000D02*
X156006000Y-140258000D01*
X156006000Y-140258000D02*
X139396000Y-140258000D01*
X139396000Y-140258000D02*
X139396000Y-113742000D01*
D10*
X128710082Y-89606271D02*
X128105320Y-89606271D01*
X128105320Y-89606271D02*
X128105320Y-88336271D01*
X129677701Y-88759604D02*
X129677701Y-89606271D01*
X129375320Y-88275795D02*
X129072939Y-89182937D01*
X129072939Y-89182937D02*
X129859130Y-89182937D01*
X131310558Y-89122461D02*
X132278178Y-89122461D01*
X132882939Y-88759604D02*
X133850559Y-89122461D01*
X133850559Y-89122461D02*
X132882939Y-89485318D01*
X135422939Y-89606271D02*
X135422939Y-88336271D01*
X135422939Y-88336271D02*
X135906749Y-88336271D01*
X135906749Y-88336271D02*
X136027701Y-88396747D01*
X136027701Y-88396747D02*
X136088178Y-88457223D01*
X136088178Y-88457223D02*
X136148654Y-88578175D01*
X136148654Y-88578175D02*
X136148654Y-88759604D01*
X136148654Y-88759604D02*
X136088178Y-88880556D01*
X136088178Y-88880556D02*
X136027701Y-88941033D01*
X136027701Y-88941033D02*
X135906749Y-89001509D01*
X135906749Y-89001509D02*
X135422939Y-89001509D01*
X137358178Y-89606271D02*
X136632463Y-89606271D01*
X136995320Y-89606271D02*
X136995320Y-88336271D01*
X136995320Y-88336271D02*
X136874368Y-88517699D01*
X136874368Y-88517699D02*
X136753416Y-88638652D01*
X136753416Y-88638652D02*
X136632463Y-88699128D01*
X137781511Y-88336271D02*
X138567702Y-88336271D01*
X138567702Y-88336271D02*
X138144368Y-88820080D01*
X138144368Y-88820080D02*
X138325797Y-88820080D01*
X138325797Y-88820080D02*
X138446749Y-88880556D01*
X138446749Y-88880556D02*
X138507225Y-88941033D01*
X138507225Y-88941033D02*
X138567702Y-89061985D01*
X138567702Y-89061985D02*
X138567702Y-89364366D01*
X138567702Y-89364366D02*
X138507225Y-89485318D01*
X138507225Y-89485318D02*
X138446749Y-89545795D01*
X138446749Y-89545795D02*
X138325797Y-89606271D01*
X138325797Y-89606271D02*
X137962940Y-89606271D01*
X137962940Y-89606271D02*
X137841987Y-89545795D01*
X137841987Y-89545795D02*
X137781511Y-89485318D01*
X128710082Y-92908271D02*
X128105320Y-92908271D01*
X128105320Y-92908271D02*
X128105320Y-91638271D01*
X129738177Y-91638271D02*
X129133415Y-91638271D01*
X129133415Y-91638271D02*
X129072939Y-92243033D01*
X129072939Y-92243033D02*
X129133415Y-92182556D01*
X129133415Y-92182556D02*
X129254368Y-92122080D01*
X129254368Y-92122080D02*
X129556749Y-92122080D01*
X129556749Y-92122080D02*
X129677701Y-92182556D01*
X129677701Y-92182556D02*
X129738177Y-92243033D01*
X129738177Y-92243033D02*
X129798654Y-92363985D01*
X129798654Y-92363985D02*
X129798654Y-92666366D01*
X129798654Y-92666366D02*
X129738177Y-92787318D01*
X129738177Y-92787318D02*
X129677701Y-92847795D01*
X129677701Y-92847795D02*
X129556749Y-92908271D01*
X129556749Y-92908271D02*
X129254368Y-92908271D01*
X129254368Y-92908271D02*
X129133415Y-92847795D01*
X129133415Y-92847795D02*
X129072939Y-92787318D01*
X131310558Y-92424461D02*
X132278178Y-92424461D01*
X132882939Y-92061604D02*
X133850559Y-92424461D01*
X133850559Y-92424461D02*
X132882939Y-92787318D01*
X135422939Y-92908271D02*
X135422939Y-91638271D01*
X135422939Y-91638271D02*
X135906749Y-91638271D01*
X135906749Y-91638271D02*
X136027701Y-91698747D01*
X136027701Y-91698747D02*
X136088178Y-91759223D01*
X136088178Y-91759223D02*
X136148654Y-91880175D01*
X136148654Y-91880175D02*
X136148654Y-92061604D01*
X136148654Y-92061604D02*
X136088178Y-92182556D01*
X136088178Y-92182556D02*
X136027701Y-92243033D01*
X136027701Y-92243033D02*
X135906749Y-92303509D01*
X135906749Y-92303509D02*
X135422939Y-92303509D01*
X137358178Y-92908271D02*
X136632463Y-92908271D01*
X136995320Y-92908271D02*
X136995320Y-91638271D01*
X136995320Y-91638271D02*
X136874368Y-91819699D01*
X136874368Y-91819699D02*
X136753416Y-91940652D01*
X136753416Y-91940652D02*
X136632463Y-92001128D01*
X138446749Y-92061604D02*
X138446749Y-92908271D01*
X138144368Y-91577795D02*
X137841987Y-92484937D01*
X137841987Y-92484937D02*
X138628178Y-92484937D01*
X128710082Y-96210271D02*
X128105320Y-96210271D01*
X128105320Y-96210271D02*
X128105320Y-94940271D01*
X129798654Y-96210271D02*
X129072939Y-96210271D01*
X129435796Y-96210271D02*
X129435796Y-94940271D01*
X129435796Y-94940271D02*
X129314844Y-95121699D01*
X129314844Y-95121699D02*
X129193892Y-95242652D01*
X129193892Y-95242652D02*
X129072939Y-95303128D01*
X130887225Y-95363604D02*
X130887225Y-96210271D01*
X130584844Y-94879795D02*
X130282463Y-95786937D01*
X130282463Y-95786937D02*
X131068654Y-95786937D01*
X132520082Y-95726461D02*
X133487702Y-95726461D01*
X134092463Y-95363604D02*
X135060083Y-95726461D01*
X135060083Y-95726461D02*
X134092463Y-96089318D01*
X136632463Y-96210271D02*
X136632463Y-94940271D01*
X136632463Y-94940271D02*
X137116273Y-94940271D01*
X137116273Y-94940271D02*
X137237225Y-95000747D01*
X137237225Y-95000747D02*
X137297702Y-95061223D01*
X137297702Y-95061223D02*
X137358178Y-95182175D01*
X137358178Y-95182175D02*
X137358178Y-95363604D01*
X137358178Y-95363604D02*
X137297702Y-95484556D01*
X137297702Y-95484556D02*
X137237225Y-95545033D01*
X137237225Y-95545033D02*
X137116273Y-95605509D01*
X137116273Y-95605509D02*
X136632463Y-95605509D01*
X137841987Y-95061223D02*
X137902463Y-95000747D01*
X137902463Y-95000747D02*
X138023416Y-94940271D01*
X138023416Y-94940271D02*
X138325797Y-94940271D01*
X138325797Y-94940271D02*
X138446749Y-95000747D01*
X138446749Y-95000747D02*
X138507225Y-95061223D01*
X138507225Y-95061223D02*
X138567702Y-95182175D01*
X138567702Y-95182175D02*
X138567702Y-95303128D01*
X138567702Y-95303128D02*
X138507225Y-95484556D01*
X138507225Y-95484556D02*
X137781511Y-96210271D01*
X137781511Y-96210271D02*
X138567702Y-96210271D01*
X138991035Y-94940271D02*
X139837702Y-94940271D01*
X139837702Y-94940271D02*
X139293416Y-96210271D01*
X128710082Y-99512271D02*
X128105320Y-99512271D01*
X128105320Y-99512271D02*
X128105320Y-98242271D01*
X129798654Y-99512271D02*
X129072939Y-99512271D01*
X129435796Y-99512271D02*
X129435796Y-98242271D01*
X129435796Y-98242271D02*
X129314844Y-98423699D01*
X129314844Y-98423699D02*
X129193892Y-98544652D01*
X129193892Y-98544652D02*
X129072939Y-98605128D01*
X130221987Y-98242271D02*
X131008178Y-98242271D01*
X131008178Y-98242271D02*
X130584844Y-98726080D01*
X130584844Y-98726080D02*
X130766273Y-98726080D01*
X130766273Y-98726080D02*
X130887225Y-98786556D01*
X130887225Y-98786556D02*
X130947701Y-98847033D01*
X130947701Y-98847033D02*
X131008178Y-98967985D01*
X131008178Y-98967985D02*
X131008178Y-99270366D01*
X131008178Y-99270366D02*
X130947701Y-99391318D01*
X130947701Y-99391318D02*
X130887225Y-99451795D01*
X130887225Y-99451795D02*
X130766273Y-99512271D01*
X130766273Y-99512271D02*
X130403416Y-99512271D01*
X130403416Y-99512271D02*
X130282463Y-99451795D01*
X130282463Y-99451795D02*
X130221987Y-99391318D01*
X132520082Y-99028461D02*
X133487702Y-99028461D01*
X134092463Y-98665604D02*
X135060083Y-99028461D01*
X135060083Y-99028461D02*
X134092463Y-99391318D01*
X136632463Y-99512271D02*
X136632463Y-98242271D01*
X136632463Y-98242271D02*
X137116273Y-98242271D01*
X137116273Y-98242271D02*
X137237225Y-98302747D01*
X137237225Y-98302747D02*
X137297702Y-98363223D01*
X137297702Y-98363223D02*
X137358178Y-98484175D01*
X137358178Y-98484175D02*
X137358178Y-98665604D01*
X137358178Y-98665604D02*
X137297702Y-98786556D01*
X137297702Y-98786556D02*
X137237225Y-98847033D01*
X137237225Y-98847033D02*
X137116273Y-98907509D01*
X137116273Y-98907509D02*
X136632463Y-98907509D01*
X137841987Y-98363223D02*
X137902463Y-98302747D01*
X137902463Y-98302747D02*
X138023416Y-98242271D01*
X138023416Y-98242271D02*
X138325797Y-98242271D01*
X138325797Y-98242271D02*
X138446749Y-98302747D01*
X138446749Y-98302747D02*
X138507225Y-98363223D01*
X138507225Y-98363223D02*
X138567702Y-98484175D01*
X138567702Y-98484175D02*
X138567702Y-98605128D01*
X138567702Y-98605128D02*
X138507225Y-98786556D01*
X138507225Y-98786556D02*
X137781511Y-99512271D01*
X137781511Y-99512271D02*
X138567702Y-99512271D01*
X139656273Y-98242271D02*
X139414368Y-98242271D01*
X139414368Y-98242271D02*
X139293416Y-98302747D01*
X139293416Y-98302747D02*
X139232940Y-98363223D01*
X139232940Y-98363223D02*
X139111987Y-98544652D01*
X139111987Y-98544652D02*
X139051511Y-98786556D01*
X139051511Y-98786556D02*
X139051511Y-99270366D01*
X139051511Y-99270366D02*
X139111987Y-99391318D01*
X139111987Y-99391318D02*
X139172464Y-99451795D01*
X139172464Y-99451795D02*
X139293416Y-99512271D01*
X139293416Y-99512271D02*
X139535321Y-99512271D01*
X139535321Y-99512271D02*
X139656273Y-99451795D01*
X139656273Y-99451795D02*
X139716749Y-99391318D01*
X139716749Y-99391318D02*
X139777226Y-99270366D01*
X139777226Y-99270366D02*
X139777226Y-98967985D01*
X139777226Y-98967985D02*
X139716749Y-98847033D01*
X139716749Y-98847033D02*
X139656273Y-98786556D01*
X139656273Y-98786556D02*
X139535321Y-98726080D01*
X139535321Y-98726080D02*
X139293416Y-98726080D01*
X139293416Y-98726080D02*
X139172464Y-98786556D01*
X139172464Y-98786556D02*
X139111987Y-98847033D01*
X139111987Y-98847033D02*
X139051511Y-98967985D01*
X128710082Y-102814271D02*
X128105320Y-102814271D01*
X128105320Y-102814271D02*
X128105320Y-101544271D01*
X129798654Y-102814271D02*
X129072939Y-102814271D01*
X129435796Y-102814271D02*
X129435796Y-101544271D01*
X129435796Y-101544271D02*
X129314844Y-101725699D01*
X129314844Y-101725699D02*
X129193892Y-101846652D01*
X129193892Y-101846652D02*
X129072939Y-101907128D01*
X130282463Y-101665223D02*
X130342939Y-101604747D01*
X130342939Y-101604747D02*
X130463892Y-101544271D01*
X130463892Y-101544271D02*
X130766273Y-101544271D01*
X130766273Y-101544271D02*
X130887225Y-101604747D01*
X130887225Y-101604747D02*
X130947701Y-101665223D01*
X130947701Y-101665223D02*
X131008178Y-101786175D01*
X131008178Y-101786175D02*
X131008178Y-101907128D01*
X131008178Y-101907128D02*
X130947701Y-102088556D01*
X130947701Y-102088556D02*
X130221987Y-102814271D01*
X130221987Y-102814271D02*
X131008178Y-102814271D01*
X132520082Y-102330461D02*
X133487702Y-102330461D01*
X134092463Y-101967604D02*
X135060083Y-102330461D01*
X135060083Y-102330461D02*
X134092463Y-102693318D01*
X136632463Y-102814271D02*
X136632463Y-101544271D01*
X136632463Y-101544271D02*
X137116273Y-101544271D01*
X137116273Y-101544271D02*
X137237225Y-101604747D01*
X137237225Y-101604747D02*
X137297702Y-101665223D01*
X137297702Y-101665223D02*
X137358178Y-101786175D01*
X137358178Y-101786175D02*
X137358178Y-101967604D01*
X137358178Y-101967604D02*
X137297702Y-102088556D01*
X137297702Y-102088556D02*
X137237225Y-102149033D01*
X137237225Y-102149033D02*
X137116273Y-102209509D01*
X137116273Y-102209509D02*
X136632463Y-102209509D01*
X137841987Y-101665223D02*
X137902463Y-101604747D01*
X137902463Y-101604747D02*
X138023416Y-101544271D01*
X138023416Y-101544271D02*
X138325797Y-101544271D01*
X138325797Y-101544271D02*
X138446749Y-101604747D01*
X138446749Y-101604747D02*
X138507225Y-101665223D01*
X138507225Y-101665223D02*
X138567702Y-101786175D01*
X138567702Y-101786175D02*
X138567702Y-101907128D01*
X138567702Y-101907128D02*
X138507225Y-102088556D01*
X138507225Y-102088556D02*
X137781511Y-102814271D01*
X137781511Y-102814271D02*
X138567702Y-102814271D01*
X139716749Y-101544271D02*
X139111987Y-101544271D01*
X139111987Y-101544271D02*
X139051511Y-102149033D01*
X139051511Y-102149033D02*
X139111987Y-102088556D01*
X139111987Y-102088556D02*
X139232940Y-102028080D01*
X139232940Y-102028080D02*
X139535321Y-102028080D01*
X139535321Y-102028080D02*
X139656273Y-102088556D01*
X139656273Y-102088556D02*
X139716749Y-102149033D01*
X139716749Y-102149033D02*
X139777226Y-102269985D01*
X139777226Y-102269985D02*
X139777226Y-102572366D01*
X139777226Y-102572366D02*
X139716749Y-102693318D01*
X139716749Y-102693318D02*
X139656273Y-102753795D01*
X139656273Y-102753795D02*
X139535321Y-102814271D01*
X139535321Y-102814271D02*
X139232940Y-102814271D01*
X139232940Y-102814271D02*
X139111987Y-102753795D01*
X139111987Y-102753795D02*
X139051511Y-102693318D01*
X128710082Y-106116271D02*
X128105320Y-106116271D01*
X128105320Y-106116271D02*
X128105320Y-104846271D01*
X129798654Y-106116271D02*
X129072939Y-106116271D01*
X129435796Y-106116271D02*
X129435796Y-104846271D01*
X129435796Y-104846271D02*
X129314844Y-105027699D01*
X129314844Y-105027699D02*
X129193892Y-105148652D01*
X129193892Y-105148652D02*
X129072939Y-105209128D01*
X130887225Y-104846271D02*
X130645320Y-104846271D01*
X130645320Y-104846271D02*
X130524368Y-104906747D01*
X130524368Y-104906747D02*
X130463892Y-104967223D01*
X130463892Y-104967223D02*
X130342939Y-105148652D01*
X130342939Y-105148652D02*
X130282463Y-105390556D01*
X130282463Y-105390556D02*
X130282463Y-105874366D01*
X130282463Y-105874366D02*
X130342939Y-105995318D01*
X130342939Y-105995318D02*
X130403416Y-106055795D01*
X130403416Y-106055795D02*
X130524368Y-106116271D01*
X130524368Y-106116271D02*
X130766273Y-106116271D01*
X130766273Y-106116271D02*
X130887225Y-106055795D01*
X130887225Y-106055795D02*
X130947701Y-105995318D01*
X130947701Y-105995318D02*
X131008178Y-105874366D01*
X131008178Y-105874366D02*
X131008178Y-105571985D01*
X131008178Y-105571985D02*
X130947701Y-105451033D01*
X130947701Y-105451033D02*
X130887225Y-105390556D01*
X130887225Y-105390556D02*
X130766273Y-105330080D01*
X130766273Y-105330080D02*
X130524368Y-105330080D01*
X130524368Y-105330080D02*
X130403416Y-105390556D01*
X130403416Y-105390556D02*
X130342939Y-105451033D01*
X130342939Y-105451033D02*
X130282463Y-105571985D01*
X132520082Y-105632461D02*
X133487702Y-105632461D01*
X134092463Y-105269604D02*
X135060083Y-105632461D01*
X135060083Y-105632461D02*
X134092463Y-105995318D01*
X136632463Y-106116271D02*
X136632463Y-104846271D01*
X136632463Y-104846271D02*
X137116273Y-104846271D01*
X137116273Y-104846271D02*
X137237225Y-104906747D01*
X137237225Y-104906747D02*
X137297702Y-104967223D01*
X137297702Y-104967223D02*
X137358178Y-105088175D01*
X137358178Y-105088175D02*
X137358178Y-105269604D01*
X137358178Y-105269604D02*
X137297702Y-105390556D01*
X137297702Y-105390556D02*
X137237225Y-105451033D01*
X137237225Y-105451033D02*
X137116273Y-105511509D01*
X137116273Y-105511509D02*
X136632463Y-105511509D01*
X137781511Y-104846271D02*
X138567702Y-104846271D01*
X138567702Y-104846271D02*
X138144368Y-105330080D01*
X138144368Y-105330080D02*
X138325797Y-105330080D01*
X138325797Y-105330080D02*
X138446749Y-105390556D01*
X138446749Y-105390556D02*
X138507225Y-105451033D01*
X138507225Y-105451033D02*
X138567702Y-105571985D01*
X138567702Y-105571985D02*
X138567702Y-105874366D01*
X138567702Y-105874366D02*
X138507225Y-105995318D01*
X138507225Y-105995318D02*
X138446749Y-106055795D01*
X138446749Y-106055795D02*
X138325797Y-106116271D01*
X138325797Y-106116271D02*
X137962940Y-106116271D01*
X137962940Y-106116271D02*
X137841987Y-106055795D01*
X137841987Y-106055795D02*
X137781511Y-105995318D01*
X138991035Y-104846271D02*
X139777226Y-104846271D01*
X139777226Y-104846271D02*
X139353892Y-105330080D01*
X139353892Y-105330080D02*
X139535321Y-105330080D01*
X139535321Y-105330080D02*
X139656273Y-105390556D01*
X139656273Y-105390556D02*
X139716749Y-105451033D01*
X139716749Y-105451033D02*
X139777226Y-105571985D01*
X139777226Y-105571985D02*
X139777226Y-105874366D01*
X139777226Y-105874366D02*
X139716749Y-105995318D01*
X139716749Y-105995318D02*
X139656273Y-106055795D01*
X139656273Y-106055795D02*
X139535321Y-106116271D01*
X139535321Y-106116271D02*
X139172464Y-106116271D01*
X139172464Y-106116271D02*
X139051511Y-106055795D01*
X139051511Y-106055795D02*
X138991035Y-105995318D01*
X128710082Y-109418271D02*
X128105320Y-109418271D01*
X128105320Y-109418271D02*
X128105320Y-108148271D01*
X129798654Y-109418271D02*
X129072939Y-109418271D01*
X129435796Y-109418271D02*
X129435796Y-108148271D01*
X129435796Y-108148271D02*
X129314844Y-108329699D01*
X129314844Y-108329699D02*
X129193892Y-108450652D01*
X129193892Y-108450652D02*
X129072939Y-108511128D01*
X130947701Y-108148271D02*
X130342939Y-108148271D01*
X130342939Y-108148271D02*
X130282463Y-108753033D01*
X130282463Y-108753033D02*
X130342939Y-108692556D01*
X130342939Y-108692556D02*
X130463892Y-108632080D01*
X130463892Y-108632080D02*
X130766273Y-108632080D01*
X130766273Y-108632080D02*
X130887225Y-108692556D01*
X130887225Y-108692556D02*
X130947701Y-108753033D01*
X130947701Y-108753033D02*
X131008178Y-108873985D01*
X131008178Y-108873985D02*
X131008178Y-109176366D01*
X131008178Y-109176366D02*
X130947701Y-109297318D01*
X130947701Y-109297318D02*
X130887225Y-109357795D01*
X130887225Y-109357795D02*
X130766273Y-109418271D01*
X130766273Y-109418271D02*
X130463892Y-109418271D01*
X130463892Y-109418271D02*
X130342939Y-109357795D01*
X130342939Y-109357795D02*
X130282463Y-109297318D01*
X132520082Y-108934461D02*
X133487702Y-108934461D01*
X134092463Y-108571604D02*
X135060083Y-108934461D01*
X135060083Y-108934461D02*
X134092463Y-109297318D01*
X136632463Y-109418271D02*
X136632463Y-108148271D01*
X136632463Y-108148271D02*
X137116273Y-108148271D01*
X137116273Y-108148271D02*
X137237225Y-108208747D01*
X137237225Y-108208747D02*
X137297702Y-108269223D01*
X137297702Y-108269223D02*
X137358178Y-108390175D01*
X137358178Y-108390175D02*
X137358178Y-108571604D01*
X137358178Y-108571604D02*
X137297702Y-108692556D01*
X137297702Y-108692556D02*
X137237225Y-108753033D01*
X137237225Y-108753033D02*
X137116273Y-108813509D01*
X137116273Y-108813509D02*
X136632463Y-108813509D01*
X137781511Y-108148271D02*
X138567702Y-108148271D01*
X138567702Y-108148271D02*
X138144368Y-108632080D01*
X138144368Y-108632080D02*
X138325797Y-108632080D01*
X138325797Y-108632080D02*
X138446749Y-108692556D01*
X138446749Y-108692556D02*
X138507225Y-108753033D01*
X138507225Y-108753033D02*
X138567702Y-108873985D01*
X138567702Y-108873985D02*
X138567702Y-109176366D01*
X138567702Y-109176366D02*
X138507225Y-109297318D01*
X138507225Y-109297318D02*
X138446749Y-109357795D01*
X138446749Y-109357795D02*
X138325797Y-109418271D01*
X138325797Y-109418271D02*
X137962940Y-109418271D01*
X137962940Y-109418271D02*
X137841987Y-109357795D01*
X137841987Y-109357795D02*
X137781511Y-109297318D01*
X139051511Y-108269223D02*
X139111987Y-108208747D01*
X139111987Y-108208747D02*
X139232940Y-108148271D01*
X139232940Y-108148271D02*
X139535321Y-108148271D01*
X139535321Y-108148271D02*
X139656273Y-108208747D01*
X139656273Y-108208747D02*
X139716749Y-108269223D01*
X139716749Y-108269223D02*
X139777226Y-108390175D01*
X139777226Y-108390175D02*
X139777226Y-108511128D01*
X139777226Y-108511128D02*
X139716749Y-108692556D01*
X139716749Y-108692556D02*
X138991035Y-109418271D01*
X138991035Y-109418271D02*
X139777226Y-109418271D01*
D11*
X142798000Y-90728000D02*
X126696000Y-90728000D01*
X142798000Y-94030000D02*
X126696000Y-94030000D01*
X142798000Y-97332000D02*
X126696000Y-97332000D01*
X142798000Y-100634000D02*
X126696000Y-100634000D01*
X142798000Y-103936000D02*
X126696000Y-103936000D01*
X142798000Y-107238000D02*
X126696000Y-107238000D01*
X126696000Y-87326000D02*
X142798000Y-87326000D01*
X142798000Y-87326000D02*
X142798000Y-110540000D01*
X142798000Y-110540000D02*
X126696000Y-110540000D01*
X126696000Y-110540000D02*
X126696000Y-87326000D01*
D12*
X118770495Y-37910419D02*
X118770495Y-38719942D01*
X118770495Y-38719942D02*
X118818114Y-38815180D01*
X118818114Y-38815180D02*
X118865733Y-38862800D01*
X118865733Y-38862800D02*
X118960971Y-38910419D01*
X118960971Y-38910419D02*
X119151447Y-38910419D01*
X119151447Y-38910419D02*
X119246685Y-38862800D01*
X119246685Y-38862800D02*
X119294304Y-38815180D01*
X119294304Y-38815180D02*
X119341923Y-38719942D01*
X119341923Y-38719942D02*
X119341923Y-37910419D01*
X120341923Y-38910419D02*
X119770495Y-38910419D01*
X120056209Y-38910419D02*
X120056209Y-37910419D01*
X120056209Y-37910419D02*
X119960971Y-38053276D01*
X119960971Y-38053276D02*
X119865733Y-38148514D01*
X119865733Y-38148514D02*
X119770495Y-38196133D01*
X190335819Y-52498523D02*
X191050104Y-52498523D01*
X191050104Y-52498523D02*
X191192961Y-52546142D01*
X191192961Y-52546142D02*
X191288200Y-52641380D01*
X191288200Y-52641380D02*
X191335819Y-52784237D01*
X191335819Y-52784237D02*
X191335819Y-52879475D01*
X191335819Y-51498523D02*
X191335819Y-52069951D01*
X191335819Y-51784237D02*
X190335819Y-51784237D01*
X190335819Y-51784237D02*
X190478676Y-51879475D01*
X190478676Y-51879475D02*
X190573914Y-51974713D01*
X190573914Y-51974713D02*
X190621533Y-52069951D01*
X191335819Y-51022332D02*
X191335819Y-50831856D01*
X191335819Y-50831856D02*
X191288200Y-50736618D01*
X191288200Y-50736618D02*
X191240580Y-50688999D01*
X191240580Y-50688999D02*
X191097723Y-50593761D01*
X191097723Y-50593761D02*
X190907247Y-50546142D01*
X190907247Y-50546142D02*
X190526295Y-50546142D01*
X190526295Y-50546142D02*
X190431057Y-50593761D01*
X190431057Y-50593761D02*
X190383438Y-50641380D01*
X190383438Y-50641380D02*
X190335819Y-50736618D01*
X190335819Y-50736618D02*
X190335819Y-50927094D01*
X190335819Y-50927094D02*
X190383438Y-51022332D01*
X190383438Y-51022332D02*
X190431057Y-51069951D01*
X190431057Y-51069951D02*
X190526295Y-51117570D01*
X190526295Y-51117570D02*
X190764390Y-51117570D01*
X190764390Y-51117570D02*
X190859628Y-51069951D01*
X190859628Y-51069951D02*
X190907247Y-51022332D01*
X190907247Y-51022332D02*
X190954866Y-50927094D01*
X190954866Y-50927094D02*
X190954866Y-50736618D01*
X190954866Y-50736618D02*
X190907247Y-50641380D01*
X190907247Y-50641380D02*
X190859628Y-50593761D01*
X190859628Y-50593761D02*
X190764390Y-50546142D01*
X122547142Y-148158819D02*
X122070952Y-148158819D01*
X122070952Y-148158819D02*
X122070952Y-147158819D01*
X123404285Y-148158819D02*
X122832857Y-148158819D01*
X123118571Y-148158819D02*
X123118571Y-147158819D01*
X123118571Y-147158819D02*
X123023333Y-147301676D01*
X123023333Y-147301676D02*
X122928095Y-147396914D01*
X122928095Y-147396914D02*
X122832857Y-147444533D01*
X124261428Y-147158819D02*
X124070952Y-147158819D01*
X124070952Y-147158819D02*
X123975714Y-147206438D01*
X123975714Y-147206438D02*
X123928095Y-147254057D01*
X123928095Y-147254057D02*
X123832857Y-147396914D01*
X123832857Y-147396914D02*
X123785238Y-147587390D01*
X123785238Y-147587390D02*
X123785238Y-147968342D01*
X123785238Y-147968342D02*
X123832857Y-148063580D01*
X123832857Y-148063580D02*
X123880476Y-148111200D01*
X123880476Y-148111200D02*
X123975714Y-148158819D01*
X123975714Y-148158819D02*
X124166190Y-148158819D01*
X124166190Y-148158819D02*
X124261428Y-148111200D01*
X124261428Y-148111200D02*
X124309047Y-148063580D01*
X124309047Y-148063580D02*
X124356666Y-147968342D01*
X124356666Y-147968342D02*
X124356666Y-147730247D01*
X124356666Y-147730247D02*
X124309047Y-147635009D01*
X124309047Y-147635009D02*
X124261428Y-147587390D01*
X124261428Y-147587390D02*
X124166190Y-147539771D01*
X124166190Y-147539771D02*
X123975714Y-147539771D01*
X123975714Y-147539771D02*
X123880476Y-147587390D01*
X123880476Y-147587390D02*
X123832857Y-147635009D01*
X123832857Y-147635009D02*
X123785238Y-147730247D01*
X121785142Y-159080819D02*
X121308952Y-159080819D01*
X121308952Y-159080819D02*
X121308952Y-158080819D01*
X122642285Y-159080819D02*
X122070857Y-159080819D01*
X122356571Y-159080819D02*
X122356571Y-158080819D01*
X122356571Y-158080819D02*
X122261333Y-158223676D01*
X122261333Y-158223676D02*
X122166095Y-158318914D01*
X122166095Y-158318914D02*
X122070857Y-158366533D01*
X123547047Y-158080819D02*
X123070857Y-158080819D01*
X123070857Y-158080819D02*
X123023238Y-158557009D01*
X123023238Y-158557009D02*
X123070857Y-158509390D01*
X123070857Y-158509390D02*
X123166095Y-158461771D01*
X123166095Y-158461771D02*
X123404190Y-158461771D01*
X123404190Y-158461771D02*
X123499428Y-158509390D01*
X123499428Y-158509390D02*
X123547047Y-158557009D01*
X123547047Y-158557009D02*
X123594666Y-158652247D01*
X123594666Y-158652247D02*
X123594666Y-158890342D01*
X123594666Y-158890342D02*
X123547047Y-158985580D01*
X123547047Y-158985580D02*
X123499428Y-159033200D01*
X123499428Y-159033200D02*
X123404190Y-159080819D01*
X123404190Y-159080819D02*
X123166095Y-159080819D01*
X123166095Y-159080819D02*
X123070857Y-159033200D01*
X123070857Y-159033200D02*
X123023238Y-158985580D01*
X121785142Y-114630819D02*
X121308952Y-114630819D01*
X121308952Y-114630819D02*
X121308952Y-113630819D01*
X122642285Y-114630819D02*
X122070857Y-114630819D01*
X122356571Y-114630819D02*
X122356571Y-113630819D01*
X122356571Y-113630819D02*
X122261333Y-113773676D01*
X122261333Y-113773676D02*
X122166095Y-113868914D01*
X122166095Y-113868914D02*
X122070857Y-113916533D01*
X123499428Y-113964152D02*
X123499428Y-114630819D01*
X123261333Y-113583200D02*
X123023238Y-114297485D01*
X123023238Y-114297485D02*
X123642285Y-114297485D01*
X122547142Y-125806819D02*
X122070952Y-125806819D01*
X122070952Y-125806819D02*
X122070952Y-124806819D01*
X123404285Y-125806819D02*
X122832857Y-125806819D01*
X123118571Y-125806819D02*
X123118571Y-124806819D01*
X123118571Y-124806819D02*
X123023333Y-124949676D01*
X123023333Y-124949676D02*
X122928095Y-125044914D01*
X122928095Y-125044914D02*
X122832857Y-125092533D01*
X123737619Y-124806819D02*
X124356666Y-124806819D01*
X124356666Y-124806819D02*
X124023333Y-125187771D01*
X124023333Y-125187771D02*
X124166190Y-125187771D01*
X124166190Y-125187771D02*
X124261428Y-125235390D01*
X124261428Y-125235390D02*
X124309047Y-125283009D01*
X124309047Y-125283009D02*
X124356666Y-125378247D01*
X124356666Y-125378247D02*
X124356666Y-125616342D01*
X124356666Y-125616342D02*
X124309047Y-125711580D01*
X124309047Y-125711580D02*
X124261428Y-125759200D01*
X124261428Y-125759200D02*
X124166190Y-125806819D01*
X124166190Y-125806819D02*
X123880476Y-125806819D01*
X123880476Y-125806819D02*
X123785238Y-125759200D01*
X123785238Y-125759200D02*
X123737619Y-125711580D01*
X121785142Y-137236819D02*
X121308952Y-137236819D01*
X121308952Y-137236819D02*
X121308952Y-136236819D01*
X122642285Y-137236819D02*
X122070857Y-137236819D01*
X122356571Y-137236819D02*
X122356571Y-136236819D01*
X122356571Y-136236819D02*
X122261333Y-136379676D01*
X122261333Y-136379676D02*
X122166095Y-136474914D01*
X122166095Y-136474914D02*
X122070857Y-136522533D01*
X123023238Y-136332057D02*
X123070857Y-136284438D01*
X123070857Y-136284438D02*
X123166095Y-136236819D01*
X123166095Y-136236819D02*
X123404190Y-136236819D01*
X123404190Y-136236819D02*
X123499428Y-136284438D01*
X123499428Y-136284438D02*
X123547047Y-136332057D01*
X123547047Y-136332057D02*
X123594666Y-136427295D01*
X123594666Y-136427295D02*
X123594666Y-136522533D01*
X123594666Y-136522533D02*
X123547047Y-136665390D01*
X123547047Y-136665390D02*
X122975619Y-137236819D01*
X122975619Y-137236819D02*
X123594666Y-137236819D01*
X164203142Y-166192819D02*
X163726952Y-166192819D01*
X163726952Y-166192819D02*
X163726952Y-165192819D01*
X165060285Y-166192819D02*
X164488857Y-166192819D01*
X164774571Y-166192819D02*
X164774571Y-165192819D01*
X164774571Y-165192819D02*
X164679333Y-165335676D01*
X164679333Y-165335676D02*
X164584095Y-165430914D01*
X164584095Y-165430914D02*
X164488857Y-165478533D01*
X166012666Y-166192819D02*
X165441238Y-166192819D01*
X165726952Y-166192819D02*
X165726952Y-165192819D01*
X165726952Y-165192819D02*
X165631714Y-165335676D01*
X165631714Y-165335676D02*
X165536476Y-165430914D01*
X165536476Y-165430914D02*
X165441238Y-165478533D01*
X170553142Y-145364819D02*
X170076952Y-145364819D01*
X170076952Y-145364819D02*
X170076952Y-144364819D01*
X171410285Y-145364819D02*
X170838857Y-145364819D01*
X171124571Y-145364819D02*
X171124571Y-144364819D01*
X171124571Y-144364819D02*
X171029333Y-144507676D01*
X171029333Y-144507676D02*
X170934095Y-144602914D01*
X170934095Y-144602914D02*
X170838857Y-144650533D01*
X172029333Y-144364819D02*
X172124571Y-144364819D01*
X172124571Y-144364819D02*
X172219809Y-144412438D01*
X172219809Y-144412438D02*
X172267428Y-144460057D01*
X172267428Y-144460057D02*
X172315047Y-144555295D01*
X172315047Y-144555295D02*
X172362666Y-144745771D01*
X172362666Y-144745771D02*
X172362666Y-144983866D01*
X172362666Y-144983866D02*
X172315047Y-145174342D01*
X172315047Y-145174342D02*
X172267428Y-145269580D01*
X172267428Y-145269580D02*
X172219809Y-145317200D01*
X172219809Y-145317200D02*
X172124571Y-145364819D01*
X172124571Y-145364819D02*
X172029333Y-145364819D01*
X172029333Y-145364819D02*
X171934095Y-145317200D01*
X171934095Y-145317200D02*
X171886476Y-145269580D01*
X171886476Y-145269580D02*
X171838857Y-145174342D01*
X171838857Y-145174342D02*
X171791238Y-144983866D01*
X171791238Y-144983866D02*
X171791238Y-144745771D01*
X171791238Y-144745771D02*
X171838857Y-144555295D01*
X171838857Y-144555295D02*
X171886476Y-144460057D01*
X171886476Y-144460057D02*
X171934095Y-144412438D01*
X171934095Y-144412438D02*
X172029333Y-144364819D01*
X158075333Y-145364819D02*
X157599143Y-145364819D01*
X157599143Y-145364819D02*
X157599143Y-144364819D01*
X158456286Y-145364819D02*
X158646762Y-145364819D01*
X158646762Y-145364819D02*
X158742000Y-145317200D01*
X158742000Y-145317200D02*
X158789619Y-145269580D01*
X158789619Y-145269580D02*
X158884857Y-145126723D01*
X158884857Y-145126723D02*
X158932476Y-144936247D01*
X158932476Y-144936247D02*
X158932476Y-144555295D01*
X158932476Y-144555295D02*
X158884857Y-144460057D01*
X158884857Y-144460057D02*
X158837238Y-144412438D01*
X158837238Y-144412438D02*
X158742000Y-144364819D01*
X158742000Y-144364819D02*
X158551524Y-144364819D01*
X158551524Y-144364819D02*
X158456286Y-144412438D01*
X158456286Y-144412438D02*
X158408667Y-144460057D01*
X158408667Y-144460057D02*
X158361048Y-144555295D01*
X158361048Y-144555295D02*
X158361048Y-144793390D01*
X158361048Y-144793390D02*
X158408667Y-144888628D01*
X158408667Y-144888628D02*
X158456286Y-144936247D01*
X158456286Y-144936247D02*
X158551524Y-144983866D01*
X158551524Y-144983866D02*
X158742000Y-144983866D01*
X158742000Y-144983866D02*
X158837238Y-144936247D01*
X158837238Y-144936247D02*
X158884857Y-144888628D01*
X158884857Y-144888628D02*
X158932476Y-144793390D01*
X157567333Y-134950819D02*
X157091143Y-134950819D01*
X157091143Y-134950819D02*
X157091143Y-133950819D01*
X158043524Y-134379390D02*
X157948286Y-134331771D01*
X157948286Y-134331771D02*
X157900667Y-134284152D01*
X157900667Y-134284152D02*
X157853048Y-134188914D01*
X157853048Y-134188914D02*
X157853048Y-134141295D01*
X157853048Y-134141295D02*
X157900667Y-134046057D01*
X157900667Y-134046057D02*
X157948286Y-133998438D01*
X157948286Y-133998438D02*
X158043524Y-133950819D01*
X158043524Y-133950819D02*
X158234000Y-133950819D01*
X158234000Y-133950819D02*
X158329238Y-133998438D01*
X158329238Y-133998438D02*
X158376857Y-134046057D01*
X158376857Y-134046057D02*
X158424476Y-134141295D01*
X158424476Y-134141295D02*
X158424476Y-134188914D01*
X158424476Y-134188914D02*
X158376857Y-134284152D01*
X158376857Y-134284152D02*
X158329238Y-134331771D01*
X158329238Y-134331771D02*
X158234000Y-134379390D01*
X158234000Y-134379390D02*
X158043524Y-134379390D01*
X158043524Y-134379390D02*
X157948286Y-134427009D01*
X157948286Y-134427009D02*
X157900667Y-134474628D01*
X157900667Y-134474628D02*
X157853048Y-134569866D01*
X157853048Y-134569866D02*
X157853048Y-134760342D01*
X157853048Y-134760342D02*
X157900667Y-134855580D01*
X157900667Y-134855580D02*
X157948286Y-134903200D01*
X157948286Y-134903200D02*
X158043524Y-134950819D01*
X158043524Y-134950819D02*
X158234000Y-134950819D01*
X158234000Y-134950819D02*
X158329238Y-134903200D01*
X158329238Y-134903200D02*
X158376857Y-134855580D01*
X158376857Y-134855580D02*
X158424476Y-134760342D01*
X158424476Y-134760342D02*
X158424476Y-134569866D01*
X158424476Y-134569866D02*
X158376857Y-134474628D01*
X158376857Y-134474628D02*
X158329238Y-134427009D01*
X158329238Y-134427009D02*
X158234000Y-134379390D01*
X158329333Y-123266819D02*
X157853143Y-123266819D01*
X157853143Y-123266819D02*
X157853143Y-122266819D01*
X158567429Y-122266819D02*
X159234095Y-122266819D01*
X159234095Y-122266819D02*
X158805524Y-123266819D01*
X160107333Y-89738819D02*
X159631143Y-89738819D01*
X159631143Y-89738819D02*
X159631143Y-88738819D01*
X160869238Y-88738819D02*
X160678762Y-88738819D01*
X160678762Y-88738819D02*
X160583524Y-88786438D01*
X160583524Y-88786438D02*
X160535905Y-88834057D01*
X160535905Y-88834057D02*
X160440667Y-88976914D01*
X160440667Y-88976914D02*
X160393048Y-89167390D01*
X160393048Y-89167390D02*
X160393048Y-89548342D01*
X160393048Y-89548342D02*
X160440667Y-89643580D01*
X160440667Y-89643580D02*
X160488286Y-89691200D01*
X160488286Y-89691200D02*
X160583524Y-89738819D01*
X160583524Y-89738819D02*
X160774000Y-89738819D01*
X160774000Y-89738819D02*
X160869238Y-89691200D01*
X160869238Y-89691200D02*
X160916857Y-89643580D01*
X160916857Y-89643580D02*
X160964476Y-89548342D01*
X160964476Y-89548342D02*
X160964476Y-89310247D01*
X160964476Y-89310247D02*
X160916857Y-89215009D01*
X160916857Y-89215009D02*
X160869238Y-89167390D01*
X160869238Y-89167390D02*
X160774000Y-89119771D01*
X160774000Y-89119771D02*
X160583524Y-89119771D01*
X160583524Y-89119771D02*
X160488286Y-89167390D01*
X160488286Y-89167390D02*
X160440667Y-89215009D01*
X160440667Y-89215009D02*
X160393048Y-89310247D01*
X122007333Y-103454819D02*
X121531143Y-103454819D01*
X121531143Y-103454819D02*
X121531143Y-102454819D01*
X122816857Y-102454819D02*
X122340667Y-102454819D01*
X122340667Y-102454819D02*
X122293048Y-102931009D01*
X122293048Y-102931009D02*
X122340667Y-102883390D01*
X122340667Y-102883390D02*
X122435905Y-102835771D01*
X122435905Y-102835771D02*
X122674000Y-102835771D01*
X122674000Y-102835771D02*
X122769238Y-102883390D01*
X122769238Y-102883390D02*
X122816857Y-102931009D01*
X122816857Y-102931009D02*
X122864476Y-103026247D01*
X122864476Y-103026247D02*
X122864476Y-103264342D01*
X122864476Y-103264342D02*
X122816857Y-103359580D01*
X122816857Y-103359580D02*
X122769238Y-103407200D01*
X122769238Y-103407200D02*
X122674000Y-103454819D01*
X122674000Y-103454819D02*
X122435905Y-103454819D01*
X122435905Y-103454819D02*
X122340667Y-103407200D01*
X122340667Y-103407200D02*
X122293048Y-103359580D01*
X121499333Y-92786819D02*
X121023143Y-92786819D01*
X121023143Y-92786819D02*
X121023143Y-91786819D01*
X122261238Y-92120152D02*
X122261238Y-92786819D01*
X122023143Y-91739200D02*
X121785048Y-92453485D01*
X121785048Y-92453485D02*
X122404095Y-92453485D01*
X159345333Y-111582819D02*
X158869143Y-111582819D01*
X158869143Y-111582819D02*
X158869143Y-110582819D01*
X159583429Y-110582819D02*
X160202476Y-110582819D01*
X160202476Y-110582819D02*
X159869143Y-110963771D01*
X159869143Y-110963771D02*
X160012000Y-110963771D01*
X160012000Y-110963771D02*
X160107238Y-111011390D01*
X160107238Y-111011390D02*
X160154857Y-111059009D01*
X160154857Y-111059009D02*
X160202476Y-111154247D01*
X160202476Y-111154247D02*
X160202476Y-111392342D01*
X160202476Y-111392342D02*
X160154857Y-111487580D01*
X160154857Y-111487580D02*
X160107238Y-111535200D01*
X160107238Y-111535200D02*
X160012000Y-111582819D01*
X160012000Y-111582819D02*
X159726286Y-111582819D01*
X159726286Y-111582819D02*
X159631048Y-111535200D01*
X159631048Y-111535200D02*
X159583429Y-111487580D01*
X159091333Y-99644819D02*
X158615143Y-99644819D01*
X158615143Y-99644819D02*
X158615143Y-98644819D01*
X159377048Y-98740057D02*
X159424667Y-98692438D01*
X159424667Y-98692438D02*
X159519905Y-98644819D01*
X159519905Y-98644819D02*
X159758000Y-98644819D01*
X159758000Y-98644819D02*
X159853238Y-98692438D01*
X159853238Y-98692438D02*
X159900857Y-98740057D01*
X159900857Y-98740057D02*
X159948476Y-98835295D01*
X159948476Y-98835295D02*
X159948476Y-98930533D01*
X159948476Y-98930533D02*
X159900857Y-99073390D01*
X159900857Y-99073390D02*
X159329429Y-99644819D01*
X159329429Y-99644819D02*
X159948476Y-99644819D01*
X158329333Y-79324819D02*
X157853143Y-79324819D01*
X157853143Y-79324819D02*
X157853143Y-78324819D01*
X159186476Y-79324819D02*
X158615048Y-79324819D01*
X158900762Y-79324819D02*
X158900762Y-78324819D01*
X158900762Y-78324819D02*
X158805524Y-78467676D01*
X158805524Y-78467676D02*
X158710286Y-78562914D01*
X158710286Y-78562914D02*
X158615048Y-78610533D01*
X174123057Y-85058238D02*
X174075438Y-85153476D01*
X174075438Y-85153476D02*
X173980200Y-85248714D01*
X173980200Y-85248714D02*
X173837342Y-85391571D01*
X173837342Y-85391571D02*
X173789723Y-85486809D01*
X173789723Y-85486809D02*
X173789723Y-85582047D01*
X174027819Y-85534428D02*
X173980200Y-85629666D01*
X173980200Y-85629666D02*
X173884961Y-85724904D01*
X173884961Y-85724904D02*
X173694485Y-85772523D01*
X173694485Y-85772523D02*
X173361152Y-85772523D01*
X173361152Y-85772523D02*
X173170676Y-85724904D01*
X173170676Y-85724904D02*
X173075438Y-85629666D01*
X173075438Y-85629666D02*
X173027819Y-85534428D01*
X173027819Y-85534428D02*
X173027819Y-85343952D01*
X173027819Y-85343952D02*
X173075438Y-85248714D01*
X173075438Y-85248714D02*
X173170676Y-85153476D01*
X173170676Y-85153476D02*
X173361152Y-85105857D01*
X173361152Y-85105857D02*
X173694485Y-85105857D01*
X173694485Y-85105857D02*
X173884961Y-85153476D01*
X173884961Y-85153476D02*
X173980200Y-85248714D01*
X173980200Y-85248714D02*
X174027819Y-85343952D01*
X174027819Y-85343952D02*
X174027819Y-85534428D01*
X173027819Y-84248714D02*
X173027819Y-84439190D01*
X173027819Y-84439190D02*
X173075438Y-84534428D01*
X173075438Y-84534428D02*
X173123057Y-84582047D01*
X173123057Y-84582047D02*
X173265914Y-84677285D01*
X173265914Y-84677285D02*
X173456390Y-84724904D01*
X173456390Y-84724904D02*
X173837342Y-84724904D01*
X173837342Y-84724904D02*
X173932580Y-84677285D01*
X173932580Y-84677285D02*
X173980200Y-84629666D01*
X173980200Y-84629666D02*
X174027819Y-84534428D01*
X174027819Y-84534428D02*
X174027819Y-84343952D01*
X174027819Y-84343952D02*
X173980200Y-84248714D01*
X173980200Y-84248714D02*
X173932580Y-84201095D01*
X173932580Y-84201095D02*
X173837342Y-84153476D01*
X173837342Y-84153476D02*
X173599247Y-84153476D01*
X173599247Y-84153476D02*
X173504009Y-84201095D01*
X173504009Y-84201095D02*
X173456390Y-84248714D01*
X173456390Y-84248714D02*
X173408771Y-84343952D01*
X173408771Y-84343952D02*
X173408771Y-84534428D01*
X173408771Y-84534428D02*
X173456390Y-84629666D01*
X173456390Y-84629666D02*
X173504009Y-84677285D01*
X173504009Y-84677285D02*
X173599247Y-84724904D01*
X179096819Y-75739333D02*
X179811104Y-75739333D01*
X179811104Y-75739333D02*
X179953961Y-75786952D01*
X179953961Y-75786952D02*
X180049200Y-75882190D01*
X180049200Y-75882190D02*
X180096819Y-76025047D01*
X180096819Y-76025047D02*
X180096819Y-76120285D01*
X179096819Y-75358380D02*
X179096819Y-74739333D01*
X179096819Y-74739333D02*
X179477771Y-75072666D01*
X179477771Y-75072666D02*
X179477771Y-74929809D01*
X179477771Y-74929809D02*
X179525390Y-74834571D01*
X179525390Y-74834571D02*
X179573009Y-74786952D01*
X179573009Y-74786952D02*
X179668247Y-74739333D01*
X179668247Y-74739333D02*
X179906342Y-74739333D01*
X179906342Y-74739333D02*
X180001580Y-74786952D01*
X180001580Y-74786952D02*
X180049200Y-74834571D01*
X180049200Y-74834571D02*
X180096819Y-74929809D01*
X180096819Y-74929809D02*
X180096819Y-75215523D01*
X180096819Y-75215523D02*
X180049200Y-75310761D01*
X180049200Y-75310761D02*
X180001580Y-75358380D01*
X173234057Y-140684238D02*
X173186438Y-140779476D01*
X173186438Y-140779476D02*
X173091200Y-140874714D01*
X173091200Y-140874714D02*
X172948342Y-141017571D01*
X172948342Y-141017571D02*
X172900723Y-141112809D01*
X172900723Y-141112809D02*
X172900723Y-141208047D01*
X173138819Y-141160428D02*
X173091200Y-141255666D01*
X173091200Y-141255666D02*
X172995961Y-141350904D01*
X172995961Y-141350904D02*
X172805485Y-141398523D01*
X172805485Y-141398523D02*
X172472152Y-141398523D01*
X172472152Y-141398523D02*
X172281676Y-141350904D01*
X172281676Y-141350904D02*
X172186438Y-141255666D01*
X172186438Y-141255666D02*
X172138819Y-141160428D01*
X172138819Y-141160428D02*
X172138819Y-140969952D01*
X172138819Y-140969952D02*
X172186438Y-140874714D01*
X172186438Y-140874714D02*
X172281676Y-140779476D01*
X172281676Y-140779476D02*
X172472152Y-140731857D01*
X172472152Y-140731857D02*
X172805485Y-140731857D01*
X172805485Y-140731857D02*
X172995961Y-140779476D01*
X172995961Y-140779476D02*
X173091200Y-140874714D01*
X173091200Y-140874714D02*
X173138819Y-140969952D01*
X173138819Y-140969952D02*
X173138819Y-141160428D01*
X173138819Y-140255666D02*
X173138819Y-140065190D01*
X173138819Y-140065190D02*
X173091200Y-139969952D01*
X173091200Y-139969952D02*
X173043580Y-139922333D01*
X173043580Y-139922333D02*
X172900723Y-139827095D01*
X172900723Y-139827095D02*
X172710247Y-139779476D01*
X172710247Y-139779476D02*
X172329295Y-139779476D01*
X172329295Y-139779476D02*
X172234057Y-139827095D01*
X172234057Y-139827095D02*
X172186438Y-139874714D01*
X172186438Y-139874714D02*
X172138819Y-139969952D01*
X172138819Y-139969952D02*
X172138819Y-140160428D01*
X172138819Y-140160428D02*
X172186438Y-140255666D01*
X172186438Y-140255666D02*
X172234057Y-140303285D01*
X172234057Y-140303285D02*
X172329295Y-140350904D01*
X172329295Y-140350904D02*
X172567390Y-140350904D01*
X172567390Y-140350904D02*
X172662628Y-140303285D01*
X172662628Y-140303285D02*
X172710247Y-140255666D01*
X172710247Y-140255666D02*
X172757866Y-140160428D01*
X172757866Y-140160428D02*
X172757866Y-139969952D01*
X172757866Y-139969952D02*
X172710247Y-139874714D01*
X172710247Y-139874714D02*
X172662628Y-139827095D01*
X172662628Y-139827095D02*
X172567390Y-139779476D01*
X101429319Y-149018523D02*
X102143604Y-149018523D01*
X102143604Y-149018523D02*
X102286461Y-149066142D01*
X102286461Y-149066142D02*
X102381700Y-149161380D01*
X102381700Y-149161380D02*
X102429319Y-149304237D01*
X102429319Y-149304237D02*
X102429319Y-149399475D01*
X102429319Y-148018523D02*
X102429319Y-148589951D01*
X102429319Y-148304237D02*
X101429319Y-148304237D01*
X101429319Y-148304237D02*
X101572176Y-148399475D01*
X101572176Y-148399475D02*
X101667414Y-148494713D01*
X101667414Y-148494713D02*
X101715033Y-148589951D01*
X101857890Y-147447094D02*
X101810271Y-147542332D01*
X101810271Y-147542332D02*
X101762652Y-147589951D01*
X101762652Y-147589951D02*
X101667414Y-147637570D01*
X101667414Y-147637570D02*
X101619795Y-147637570D01*
X101619795Y-147637570D02*
X101524557Y-147589951D01*
X101524557Y-147589951D02*
X101476938Y-147542332D01*
X101476938Y-147542332D02*
X101429319Y-147447094D01*
X101429319Y-147447094D02*
X101429319Y-147256618D01*
X101429319Y-147256618D02*
X101476938Y-147161380D01*
X101476938Y-147161380D02*
X101524557Y-147113761D01*
X101524557Y-147113761D02*
X101619795Y-147066142D01*
X101619795Y-147066142D02*
X101667414Y-147066142D01*
X101667414Y-147066142D02*
X101762652Y-147113761D01*
X101762652Y-147113761D02*
X101810271Y-147161380D01*
X101810271Y-147161380D02*
X101857890Y-147256618D01*
X101857890Y-147256618D02*
X101857890Y-147447094D01*
X101857890Y-147447094D02*
X101905509Y-147542332D01*
X101905509Y-147542332D02*
X101953128Y-147589951D01*
X101953128Y-147589951D02*
X102048366Y-147637570D01*
X102048366Y-147637570D02*
X102238842Y-147637570D01*
X102238842Y-147637570D02*
X102334080Y-147589951D01*
X102334080Y-147589951D02*
X102381700Y-147542332D01*
X102381700Y-147542332D02*
X102429319Y-147447094D01*
X102429319Y-147447094D02*
X102429319Y-147256618D01*
X102429319Y-147256618D02*
X102381700Y-147161380D01*
X102381700Y-147161380D02*
X102334080Y-147113761D01*
X102334080Y-147113761D02*
X102238842Y-147066142D01*
X102238842Y-147066142D02*
X102048366Y-147066142D01*
X102048366Y-147066142D02*
X101953128Y-147113761D01*
X101953128Y-147113761D02*
X101905509Y-147161380D01*
X101905509Y-147161380D02*
X101857890Y-147256618D01*
X166076333Y-103525819D02*
X165743000Y-103049628D01*
X165504905Y-103525819D02*
X165504905Y-102525819D01*
X165504905Y-102525819D02*
X165885857Y-102525819D01*
X165885857Y-102525819D02*
X165981095Y-102573438D01*
X165981095Y-102573438D02*
X166028714Y-102621057D01*
X166028714Y-102621057D02*
X166076333Y-102716295D01*
X166076333Y-102716295D02*
X166076333Y-102859152D01*
X166076333Y-102859152D02*
X166028714Y-102954390D01*
X166028714Y-102954390D02*
X165981095Y-103002009D01*
X165981095Y-103002009D02*
X165885857Y-103049628D01*
X165885857Y-103049628D02*
X165504905Y-103049628D01*
X166981095Y-102525819D02*
X166504905Y-102525819D01*
X166504905Y-102525819D02*
X166457286Y-103002009D01*
X166457286Y-103002009D02*
X166504905Y-102954390D01*
X166504905Y-102954390D02*
X166600143Y-102906771D01*
X166600143Y-102906771D02*
X166838238Y-102906771D01*
X166838238Y-102906771D02*
X166933476Y-102954390D01*
X166933476Y-102954390D02*
X166981095Y-103002009D01*
X166981095Y-103002009D02*
X167028714Y-103097247D01*
X167028714Y-103097247D02*
X167028714Y-103335342D01*
X167028714Y-103335342D02*
X166981095Y-103430580D01*
X166981095Y-103430580D02*
X166933476Y-103478200D01*
X166933476Y-103478200D02*
X166838238Y-103525819D01*
X166838238Y-103525819D02*
X166600143Y-103525819D01*
X166600143Y-103525819D02*
X166504905Y-103478200D01*
X166504905Y-103478200D02*
X166457286Y-103430580D01*
X165147761Y-108965819D02*
X164576333Y-108965819D01*
X164862047Y-108965819D02*
X164862047Y-107965819D01*
X164862047Y-107965819D02*
X164766809Y-108108676D01*
X164766809Y-108108676D02*
X164671571Y-108203914D01*
X164671571Y-108203914D02*
X164576333Y-108251533D01*
X165766809Y-107965819D02*
X165862047Y-107965819D01*
X165862047Y-107965819D02*
X165957285Y-108013438D01*
X165957285Y-108013438D02*
X166004904Y-108061057D01*
X166004904Y-108061057D02*
X166052523Y-108156295D01*
X166052523Y-108156295D02*
X166100142Y-108346771D01*
X166100142Y-108346771D02*
X166100142Y-108584866D01*
X166100142Y-108584866D02*
X166052523Y-108775342D01*
X166052523Y-108775342D02*
X166004904Y-108870580D01*
X166004904Y-108870580D02*
X165957285Y-108918200D01*
X165957285Y-108918200D02*
X165862047Y-108965819D01*
X165862047Y-108965819D02*
X165766809Y-108965819D01*
X165766809Y-108965819D02*
X165671571Y-108918200D01*
X165671571Y-108918200D02*
X165623952Y-108870580D01*
X165623952Y-108870580D02*
X165576333Y-108775342D01*
X165576333Y-108775342D02*
X165528714Y-108584866D01*
X165528714Y-108584866D02*
X165528714Y-108346771D01*
X165528714Y-108346771D02*
X165576333Y-108156295D01*
X165576333Y-108156295D02*
X165623952Y-108061057D01*
X165623952Y-108061057D02*
X165671571Y-108013438D01*
X165671571Y-108013438D02*
X165766809Y-107965819D01*
X166528714Y-108965819D02*
X166528714Y-107965819D01*
X166623952Y-108584866D02*
X166909666Y-108965819D01*
X166909666Y-108299152D02*
X166528714Y-108680104D01*
X167909666Y-108965819D02*
X167576333Y-108489628D01*
X167338238Y-108965819D02*
X167338238Y-107965819D01*
X167338238Y-107965819D02*
X167719190Y-107965819D01*
X167719190Y-107965819D02*
X167814428Y-108013438D01*
X167814428Y-108013438D02*
X167862047Y-108061057D01*
X167862047Y-108061057D02*
X167909666Y-108156295D01*
X167909666Y-108156295D02*
X167909666Y-108299152D01*
X167909666Y-108299152D02*
X167862047Y-108394390D01*
X167862047Y-108394390D02*
X167814428Y-108442009D01*
X167814428Y-108442009D02*
X167719190Y-108489628D01*
X167719190Y-108489628D02*
X167338238Y-108489628D01*
X157734095Y-38418419D02*
X157734095Y-39227942D01*
X157734095Y-39227942D02*
X157781714Y-39323180D01*
X157781714Y-39323180D02*
X157829333Y-39370800D01*
X157829333Y-39370800D02*
X157924571Y-39418419D01*
X157924571Y-39418419D02*
X158115047Y-39418419D01*
X158115047Y-39418419D02*
X158210285Y-39370800D01*
X158210285Y-39370800D02*
X158257904Y-39323180D01*
X158257904Y-39323180D02*
X158305523Y-39227942D01*
X158305523Y-39227942D02*
X158305523Y-38418419D01*
X158734095Y-38513657D02*
X158781714Y-38466038D01*
X158781714Y-38466038D02*
X158876952Y-38418419D01*
X158876952Y-38418419D02*
X159115047Y-38418419D01*
X159115047Y-38418419D02*
X159210285Y-38466038D01*
X159210285Y-38466038D02*
X159257904Y-38513657D01*
X159257904Y-38513657D02*
X159305523Y-38608895D01*
X159305523Y-38608895D02*
X159305523Y-38704133D01*
X159305523Y-38704133D02*
X159257904Y-38846990D01*
X159257904Y-38846990D02*
X158686476Y-39418419D01*
X158686476Y-39418419D02*
X159305523Y-39418419D01*
X116197142Y-135254819D02*
X115863809Y-134778628D01*
X115625714Y-135254819D02*
X115625714Y-134254819D01*
X115625714Y-134254819D02*
X116006666Y-134254819D01*
X116006666Y-134254819D02*
X116101904Y-134302438D01*
X116101904Y-134302438D02*
X116149523Y-134350057D01*
X116149523Y-134350057D02*
X116197142Y-134445295D01*
X116197142Y-134445295D02*
X116197142Y-134588152D01*
X116197142Y-134588152D02*
X116149523Y-134683390D01*
X116149523Y-134683390D02*
X116101904Y-134731009D01*
X116101904Y-134731009D02*
X116006666Y-134778628D01*
X116006666Y-134778628D02*
X115625714Y-134778628D01*
X117149523Y-135254819D02*
X116578095Y-135254819D01*
X116863809Y-135254819D02*
X116863809Y-134254819D01*
X116863809Y-134254819D02*
X116768571Y-134397676D01*
X116768571Y-134397676D02*
X116673333Y-134492914D01*
X116673333Y-134492914D02*
X116578095Y-134540533D01*
X118006666Y-134588152D02*
X118006666Y-135254819D01*
X117768571Y-134207200D02*
X117530476Y-134921485D01*
X117530476Y-134921485D02*
X118149523Y-134921485D01*
X115744761Y-129814819D02*
X115173333Y-129814819D01*
X115459047Y-129814819D02*
X115459047Y-128814819D01*
X115459047Y-128814819D02*
X115363809Y-128957676D01*
X115363809Y-128957676D02*
X115268571Y-129052914D01*
X115268571Y-129052914D02*
X115173333Y-129100533D01*
X116363809Y-128814819D02*
X116459047Y-128814819D01*
X116459047Y-128814819D02*
X116554285Y-128862438D01*
X116554285Y-128862438D02*
X116601904Y-128910057D01*
X116601904Y-128910057D02*
X116649523Y-129005295D01*
X116649523Y-129005295D02*
X116697142Y-129195771D01*
X116697142Y-129195771D02*
X116697142Y-129433866D01*
X116697142Y-129433866D02*
X116649523Y-129624342D01*
X116649523Y-129624342D02*
X116601904Y-129719580D01*
X116601904Y-129719580D02*
X116554285Y-129767200D01*
X116554285Y-129767200D02*
X116459047Y-129814819D01*
X116459047Y-129814819D02*
X116363809Y-129814819D01*
X116363809Y-129814819D02*
X116268571Y-129767200D01*
X116268571Y-129767200D02*
X116220952Y-129719580D01*
X116220952Y-129719580D02*
X116173333Y-129624342D01*
X116173333Y-129624342D02*
X116125714Y-129433866D01*
X116125714Y-129433866D02*
X116125714Y-129195771D01*
X116125714Y-129195771D02*
X116173333Y-129005295D01*
X116173333Y-129005295D02*
X116220952Y-128910057D01*
X116220952Y-128910057D02*
X116268571Y-128862438D01*
X116268571Y-128862438D02*
X116363809Y-128814819D01*
X117125714Y-129814819D02*
X117125714Y-128814819D01*
X117220952Y-129433866D02*
X117506666Y-129814819D01*
X117506666Y-129148152D02*
X117125714Y-129529104D01*
X118506666Y-129814819D02*
X118173333Y-129338628D01*
X117935238Y-129814819D02*
X117935238Y-128814819D01*
X117935238Y-128814819D02*
X118316190Y-128814819D01*
X118316190Y-128814819D02*
X118411428Y-128862438D01*
X118411428Y-128862438D02*
X118459047Y-128910057D01*
X118459047Y-128910057D02*
X118506666Y-129005295D01*
X118506666Y-129005295D02*
X118506666Y-129148152D01*
X118506666Y-129148152D02*
X118459047Y-129243390D01*
X118459047Y-129243390D02*
X118411428Y-129291009D01*
X118411428Y-129291009D02*
X118316190Y-129338628D01*
X118316190Y-129338628D02*
X117935238Y-129338628D01*
X101498819Y-126627523D02*
X102213104Y-126627523D01*
X102213104Y-126627523D02*
X102355961Y-126675142D01*
X102355961Y-126675142D02*
X102451200Y-126770380D01*
X102451200Y-126770380D02*
X102498819Y-126913237D01*
X102498819Y-126913237D02*
X102498819Y-127008475D01*
X102498819Y-125627523D02*
X102498819Y-126198951D01*
X102498819Y-125913237D02*
X101498819Y-125913237D01*
X101498819Y-125913237D02*
X101641676Y-126008475D01*
X101641676Y-126008475D02*
X101736914Y-126103713D01*
X101736914Y-126103713D02*
X101784533Y-126198951D01*
X101498819Y-124722761D02*
X101498819Y-125198951D01*
X101498819Y-125198951D02*
X101975009Y-125246570D01*
X101975009Y-125246570D02*
X101927390Y-125198951D01*
X101927390Y-125198951D02*
X101879771Y-125103713D01*
X101879771Y-125103713D02*
X101879771Y-124865618D01*
X101879771Y-124865618D02*
X101927390Y-124770380D01*
X101927390Y-124770380D02*
X101975009Y-124722761D01*
X101975009Y-124722761D02*
X102070247Y-124675142D01*
X102070247Y-124675142D02*
X102308342Y-124675142D01*
X102308342Y-124675142D02*
X102403580Y-124722761D01*
X102403580Y-124722761D02*
X102451200Y-124770380D01*
X102451200Y-124770380D02*
X102498819Y-124865618D01*
X102498819Y-124865618D02*
X102498819Y-125103713D01*
X102498819Y-125103713D02*
X102451200Y-125198951D01*
X102451200Y-125198951D02*
X102403580Y-125246570D01*
X109726057Y-126419428D02*
X109678438Y-126514666D01*
X109678438Y-126514666D02*
X109583200Y-126609904D01*
X109583200Y-126609904D02*
X109440342Y-126752761D01*
X109440342Y-126752761D02*
X109392723Y-126847999D01*
X109392723Y-126847999D02*
X109392723Y-126943237D01*
X109630819Y-126895618D02*
X109583200Y-126990856D01*
X109583200Y-126990856D02*
X109487961Y-127086094D01*
X109487961Y-127086094D02*
X109297485Y-127133713D01*
X109297485Y-127133713D02*
X108964152Y-127133713D01*
X108964152Y-127133713D02*
X108773676Y-127086094D01*
X108773676Y-127086094D02*
X108678438Y-126990856D01*
X108678438Y-126990856D02*
X108630819Y-126895618D01*
X108630819Y-126895618D02*
X108630819Y-126705142D01*
X108630819Y-126705142D02*
X108678438Y-126609904D01*
X108678438Y-126609904D02*
X108773676Y-126514666D01*
X108773676Y-126514666D02*
X108964152Y-126467047D01*
X108964152Y-126467047D02*
X109297485Y-126467047D01*
X109297485Y-126467047D02*
X109487961Y-126514666D01*
X109487961Y-126514666D02*
X109583200Y-126609904D01*
X109583200Y-126609904D02*
X109630819Y-126705142D01*
X109630819Y-126705142D02*
X109630819Y-126895618D01*
X109630819Y-125514666D02*
X109630819Y-126086094D01*
X109630819Y-125800380D02*
X108630819Y-125800380D01*
X108630819Y-125800380D02*
X108773676Y-125895618D01*
X108773676Y-125895618D02*
X108868914Y-125990856D01*
X108868914Y-125990856D02*
X108916533Y-126086094D01*
X108630819Y-125181332D02*
X108630819Y-124562285D01*
X108630819Y-124562285D02*
X109011771Y-124895618D01*
X109011771Y-124895618D02*
X109011771Y-124752761D01*
X109011771Y-124752761D02*
X109059390Y-124657523D01*
X109059390Y-124657523D02*
X109107009Y-124609904D01*
X109107009Y-124609904D02*
X109202247Y-124562285D01*
X109202247Y-124562285D02*
X109440342Y-124562285D01*
X109440342Y-124562285D02*
X109535580Y-124609904D01*
X109535580Y-124609904D02*
X109583200Y-124657523D01*
X109583200Y-124657523D02*
X109630819Y-124752761D01*
X109630819Y-124752761D02*
X109630819Y-125038475D01*
X109630819Y-125038475D02*
X109583200Y-125133713D01*
X109583200Y-125133713D02*
X109535580Y-125181332D01*
X109759057Y-103943238D02*
X109711438Y-104038476D01*
X109711438Y-104038476D02*
X109616200Y-104133714D01*
X109616200Y-104133714D02*
X109473342Y-104276571D01*
X109473342Y-104276571D02*
X109425723Y-104371809D01*
X109425723Y-104371809D02*
X109425723Y-104467047D01*
X109663819Y-104419428D02*
X109616200Y-104514666D01*
X109616200Y-104514666D02*
X109520961Y-104609904D01*
X109520961Y-104609904D02*
X109330485Y-104657523D01*
X109330485Y-104657523D02*
X108997152Y-104657523D01*
X108997152Y-104657523D02*
X108806676Y-104609904D01*
X108806676Y-104609904D02*
X108711438Y-104514666D01*
X108711438Y-104514666D02*
X108663819Y-104419428D01*
X108663819Y-104419428D02*
X108663819Y-104228952D01*
X108663819Y-104228952D02*
X108711438Y-104133714D01*
X108711438Y-104133714D02*
X108806676Y-104038476D01*
X108806676Y-104038476D02*
X108997152Y-103990857D01*
X108997152Y-103990857D02*
X109330485Y-103990857D01*
X109330485Y-103990857D02*
X109520961Y-104038476D01*
X109520961Y-104038476D02*
X109616200Y-104133714D01*
X109616200Y-104133714D02*
X109663819Y-104228952D01*
X109663819Y-104228952D02*
X109663819Y-104419428D01*
X108663819Y-103086095D02*
X108663819Y-103562285D01*
X108663819Y-103562285D02*
X109140009Y-103609904D01*
X109140009Y-103609904D02*
X109092390Y-103562285D01*
X109092390Y-103562285D02*
X109044771Y-103467047D01*
X109044771Y-103467047D02*
X109044771Y-103228952D01*
X109044771Y-103228952D02*
X109092390Y-103133714D01*
X109092390Y-103133714D02*
X109140009Y-103086095D01*
X109140009Y-103086095D02*
X109235247Y-103038476D01*
X109235247Y-103038476D02*
X109473342Y-103038476D01*
X109473342Y-103038476D02*
X109568580Y-103086095D01*
X109568580Y-103086095D02*
X109616200Y-103133714D01*
X109616200Y-103133714D02*
X109663819Y-103228952D01*
X109663819Y-103228952D02*
X109663819Y-103467047D01*
X109663819Y-103467047D02*
X109616200Y-103562285D01*
X109616200Y-103562285D02*
X109568580Y-103609904D01*
X94458095Y-42680819D02*
X95029523Y-42680819D01*
X94743809Y-43680819D02*
X94743809Y-42680819D01*
X95362857Y-43680819D02*
X95362857Y-42680819D01*
X95362857Y-42680819D02*
X95743809Y-42680819D01*
X95743809Y-42680819D02*
X95839047Y-42728438D01*
X95839047Y-42728438D02*
X95886666Y-42776057D01*
X95886666Y-42776057D02*
X95934285Y-42871295D01*
X95934285Y-42871295D02*
X95934285Y-43014152D01*
X95934285Y-43014152D02*
X95886666Y-43109390D01*
X95886666Y-43109390D02*
X95839047Y-43157009D01*
X95839047Y-43157009D02*
X95743809Y-43204628D01*
X95743809Y-43204628D02*
X95362857Y-43204628D01*
X96886666Y-43680819D02*
X96315238Y-43680819D01*
X96600952Y-43680819D02*
X96600952Y-42680819D01*
X96600952Y-42680819D02*
X96505714Y-42823676D01*
X96505714Y-42823676D02*
X96410476Y-42918914D01*
X96410476Y-42918914D02*
X96315238Y-42966533D01*
X174123057Y-106931238D02*
X174075438Y-107026476D01*
X174075438Y-107026476D02*
X173980200Y-107121714D01*
X173980200Y-107121714D02*
X173837342Y-107264571D01*
X173837342Y-107264571D02*
X173789723Y-107359809D01*
X173789723Y-107359809D02*
X173789723Y-107455047D01*
X174027819Y-107407428D02*
X173980200Y-107502666D01*
X173980200Y-107502666D02*
X173884961Y-107597904D01*
X173884961Y-107597904D02*
X173694485Y-107645523D01*
X173694485Y-107645523D02*
X173361152Y-107645523D01*
X173361152Y-107645523D02*
X173170676Y-107597904D01*
X173170676Y-107597904D02*
X173075438Y-107502666D01*
X173075438Y-107502666D02*
X173027819Y-107407428D01*
X173027819Y-107407428D02*
X173027819Y-107216952D01*
X173027819Y-107216952D02*
X173075438Y-107121714D01*
X173075438Y-107121714D02*
X173170676Y-107026476D01*
X173170676Y-107026476D02*
X173361152Y-106978857D01*
X173361152Y-106978857D02*
X173694485Y-106978857D01*
X173694485Y-106978857D02*
X173884961Y-107026476D01*
X173884961Y-107026476D02*
X173980200Y-107121714D01*
X173980200Y-107121714D02*
X174027819Y-107216952D01*
X174027819Y-107216952D02*
X174027819Y-107407428D01*
X173027819Y-106645523D02*
X173027819Y-106026476D01*
X173027819Y-106026476D02*
X173408771Y-106359809D01*
X173408771Y-106359809D02*
X173408771Y-106216952D01*
X173408771Y-106216952D02*
X173456390Y-106121714D01*
X173456390Y-106121714D02*
X173504009Y-106074095D01*
X173504009Y-106074095D02*
X173599247Y-106026476D01*
X173599247Y-106026476D02*
X173837342Y-106026476D01*
X173837342Y-106026476D02*
X173932580Y-106074095D01*
X173932580Y-106074095D02*
X173980200Y-106121714D01*
X173980200Y-106121714D02*
X174027819Y-106216952D01*
X174027819Y-106216952D02*
X174027819Y-106502666D01*
X174027819Y-106502666D02*
X173980200Y-106597904D01*
X173980200Y-106597904D02*
X173932580Y-106645523D01*
X101498819Y-94726333D02*
X102213104Y-94726333D01*
X102213104Y-94726333D02*
X102355961Y-94773952D01*
X102355961Y-94773952D02*
X102451200Y-94869190D01*
X102451200Y-94869190D02*
X102498819Y-95012047D01*
X102498819Y-95012047D02*
X102498819Y-95107285D01*
X101498819Y-93821571D02*
X101498819Y-94012047D01*
X101498819Y-94012047D02*
X101546438Y-94107285D01*
X101546438Y-94107285D02*
X101594057Y-94154904D01*
X101594057Y-94154904D02*
X101736914Y-94250142D01*
X101736914Y-94250142D02*
X101927390Y-94297761D01*
X101927390Y-94297761D02*
X102308342Y-94297761D01*
X102308342Y-94297761D02*
X102403580Y-94250142D01*
X102403580Y-94250142D02*
X102451200Y-94202523D01*
X102451200Y-94202523D02*
X102498819Y-94107285D01*
X102498819Y-94107285D02*
X102498819Y-93916809D01*
X102498819Y-93916809D02*
X102451200Y-93821571D01*
X102451200Y-93821571D02*
X102403580Y-93773952D01*
X102403580Y-93773952D02*
X102308342Y-93726333D01*
X102308342Y-93726333D02*
X102070247Y-93726333D01*
X102070247Y-93726333D02*
X101975009Y-93773952D01*
X101975009Y-93773952D02*
X101927390Y-93821571D01*
X101927390Y-93821571D02*
X101879771Y-93916809D01*
X101879771Y-93916809D02*
X101879771Y-94107285D01*
X101879771Y-94107285D02*
X101927390Y-94202523D01*
X101927390Y-94202523D02*
X101975009Y-94250142D01*
X101975009Y-94250142D02*
X102070247Y-94297761D01*
X178922819Y-116831333D02*
X179637104Y-116831333D01*
X179637104Y-116831333D02*
X179779961Y-116878952D01*
X179779961Y-116878952D02*
X179875200Y-116974190D01*
X179875200Y-116974190D02*
X179922819Y-117117047D01*
X179922819Y-117117047D02*
X179922819Y-117212285D01*
X179922819Y-116307523D02*
X179922819Y-116117047D01*
X179922819Y-116117047D02*
X179875200Y-116021809D01*
X179875200Y-116021809D02*
X179827580Y-115974190D01*
X179827580Y-115974190D02*
X179684723Y-115878952D01*
X179684723Y-115878952D02*
X179494247Y-115831333D01*
X179494247Y-115831333D02*
X179113295Y-115831333D01*
X179113295Y-115831333D02*
X179018057Y-115878952D01*
X179018057Y-115878952D02*
X178970438Y-115926571D01*
X178970438Y-115926571D02*
X178922819Y-116021809D01*
X178922819Y-116021809D02*
X178922819Y-116212285D01*
X178922819Y-116212285D02*
X178970438Y-116307523D01*
X178970438Y-116307523D02*
X179018057Y-116355142D01*
X179018057Y-116355142D02*
X179113295Y-116402761D01*
X179113295Y-116402761D02*
X179351390Y-116402761D01*
X179351390Y-116402761D02*
X179446628Y-116355142D01*
X179446628Y-116355142D02*
X179494247Y-116307523D01*
X179494247Y-116307523D02*
X179541866Y-116212285D01*
X179541866Y-116212285D02*
X179541866Y-116021809D01*
X179541866Y-116021809D02*
X179494247Y-115926571D01*
X179494247Y-115926571D02*
X179446628Y-115878952D01*
X179446628Y-115878952D02*
X179351390Y-115831333D01*
X116165333Y-91439819D02*
X115832000Y-90963628D01*
X115593905Y-91439819D02*
X115593905Y-90439819D01*
X115593905Y-90439819D02*
X115974857Y-90439819D01*
X115974857Y-90439819D02*
X116070095Y-90487438D01*
X116070095Y-90487438D02*
X116117714Y-90535057D01*
X116117714Y-90535057D02*
X116165333Y-90630295D01*
X116165333Y-90630295D02*
X116165333Y-90773152D01*
X116165333Y-90773152D02*
X116117714Y-90868390D01*
X116117714Y-90868390D02*
X116070095Y-90916009D01*
X116070095Y-90916009D02*
X115974857Y-90963628D01*
X115974857Y-90963628D02*
X115593905Y-90963628D01*
X117022476Y-90439819D02*
X116832000Y-90439819D01*
X116832000Y-90439819D02*
X116736762Y-90487438D01*
X116736762Y-90487438D02*
X116689143Y-90535057D01*
X116689143Y-90535057D02*
X116593905Y-90677914D01*
X116593905Y-90677914D02*
X116546286Y-90868390D01*
X116546286Y-90868390D02*
X116546286Y-91249342D01*
X116546286Y-91249342D02*
X116593905Y-91344580D01*
X116593905Y-91344580D02*
X116641524Y-91392200D01*
X116641524Y-91392200D02*
X116736762Y-91439819D01*
X116736762Y-91439819D02*
X116927238Y-91439819D01*
X116927238Y-91439819D02*
X117022476Y-91392200D01*
X117022476Y-91392200D02*
X117070095Y-91344580D01*
X117070095Y-91344580D02*
X117117714Y-91249342D01*
X117117714Y-91249342D02*
X117117714Y-91011247D01*
X117117714Y-91011247D02*
X117070095Y-90916009D01*
X117070095Y-90916009D02*
X117022476Y-90868390D01*
X117022476Y-90868390D02*
X116927238Y-90820771D01*
X116927238Y-90820771D02*
X116736762Y-90820771D01*
X116736762Y-90820771D02*
X116641524Y-90868390D01*
X116641524Y-90868390D02*
X116593905Y-90916009D01*
X116593905Y-90916009D02*
X116546286Y-91011247D01*
X115236761Y-85999819D02*
X114665333Y-85999819D01*
X114951047Y-85999819D02*
X114951047Y-84999819D01*
X114951047Y-84999819D02*
X114855809Y-85142676D01*
X114855809Y-85142676D02*
X114760571Y-85237914D01*
X114760571Y-85237914D02*
X114665333Y-85285533D01*
X115855809Y-84999819D02*
X115951047Y-84999819D01*
X115951047Y-84999819D02*
X116046285Y-85047438D01*
X116046285Y-85047438D02*
X116093904Y-85095057D01*
X116093904Y-85095057D02*
X116141523Y-85190295D01*
X116141523Y-85190295D02*
X116189142Y-85380771D01*
X116189142Y-85380771D02*
X116189142Y-85618866D01*
X116189142Y-85618866D02*
X116141523Y-85809342D01*
X116141523Y-85809342D02*
X116093904Y-85904580D01*
X116093904Y-85904580D02*
X116046285Y-85952200D01*
X116046285Y-85952200D02*
X115951047Y-85999819D01*
X115951047Y-85999819D02*
X115855809Y-85999819D01*
X115855809Y-85999819D02*
X115760571Y-85952200D01*
X115760571Y-85952200D02*
X115712952Y-85904580D01*
X115712952Y-85904580D02*
X115665333Y-85809342D01*
X115665333Y-85809342D02*
X115617714Y-85618866D01*
X115617714Y-85618866D02*
X115617714Y-85380771D01*
X115617714Y-85380771D02*
X115665333Y-85190295D01*
X115665333Y-85190295D02*
X115712952Y-85095057D01*
X115712952Y-85095057D02*
X115760571Y-85047438D01*
X115760571Y-85047438D02*
X115855809Y-84999819D01*
X116617714Y-85999819D02*
X116617714Y-84999819D01*
X116712952Y-85618866D02*
X116998666Y-85999819D01*
X116998666Y-85333152D02*
X116617714Y-85714104D01*
X117998666Y-85999819D02*
X117665333Y-85523628D01*
X117427238Y-85999819D02*
X117427238Y-84999819D01*
X117427238Y-84999819D02*
X117808190Y-84999819D01*
X117808190Y-84999819D02*
X117903428Y-85047438D01*
X117903428Y-85047438D02*
X117951047Y-85095057D01*
X117951047Y-85095057D02*
X117998666Y-85190295D01*
X117998666Y-85190295D02*
X117998666Y-85333152D01*
X117998666Y-85333152D02*
X117951047Y-85428390D01*
X117951047Y-85428390D02*
X117903428Y-85476009D01*
X117903428Y-85476009D02*
X117808190Y-85523628D01*
X117808190Y-85523628D02*
X117427238Y-85523628D01*
X101371819Y-160282523D02*
X102086104Y-160282523D01*
X102086104Y-160282523D02*
X102228961Y-160330142D01*
X102228961Y-160330142D02*
X102324200Y-160425380D01*
X102324200Y-160425380D02*
X102371819Y-160568237D01*
X102371819Y-160568237D02*
X102371819Y-160663475D01*
X102371819Y-159282523D02*
X102371819Y-159853951D01*
X102371819Y-159568237D02*
X101371819Y-159568237D01*
X101371819Y-159568237D02*
X101514676Y-159663475D01*
X101514676Y-159663475D02*
X101609914Y-159758713D01*
X101609914Y-159758713D02*
X101657533Y-159853951D01*
X101371819Y-158949189D02*
X101371819Y-158282523D01*
X101371819Y-158282523D02*
X102371819Y-158711094D01*
X101545819Y-115705523D02*
X102260104Y-115705523D01*
X102260104Y-115705523D02*
X102402961Y-115753142D01*
X102402961Y-115753142D02*
X102498200Y-115848380D01*
X102498200Y-115848380D02*
X102545819Y-115991237D01*
X102545819Y-115991237D02*
X102545819Y-116086475D01*
X102545819Y-114705523D02*
X102545819Y-115276951D01*
X102545819Y-114991237D02*
X101545819Y-114991237D01*
X101545819Y-114991237D02*
X101688676Y-115086475D01*
X101688676Y-115086475D02*
X101783914Y-115181713D01*
X101783914Y-115181713D02*
X101831533Y-115276951D01*
X101545819Y-113848380D02*
X101545819Y-114038856D01*
X101545819Y-114038856D02*
X101593438Y-114134094D01*
X101593438Y-114134094D02*
X101641057Y-114181713D01*
X101641057Y-114181713D02*
X101783914Y-114276951D01*
X101783914Y-114276951D02*
X101974390Y-114324570D01*
X101974390Y-114324570D02*
X102355342Y-114324570D01*
X102355342Y-114324570D02*
X102450580Y-114276951D01*
X102450580Y-114276951D02*
X102498200Y-114229332D01*
X102498200Y-114229332D02*
X102545819Y-114134094D01*
X102545819Y-114134094D02*
X102545819Y-113943618D01*
X102545819Y-113943618D02*
X102498200Y-113848380D01*
X102498200Y-113848380D02*
X102450580Y-113800761D01*
X102450580Y-113800761D02*
X102355342Y-113753142D01*
X102355342Y-113753142D02*
X102117247Y-113753142D01*
X102117247Y-113753142D02*
X102022009Y-113800761D01*
X102022009Y-113800761D02*
X101974390Y-113848380D01*
X101974390Y-113848380D02*
X101926771Y-113943618D01*
X101926771Y-113943618D02*
X101926771Y-114134094D01*
X101926771Y-114134094D02*
X101974390Y-114229332D01*
X101974390Y-114229332D02*
X102022009Y-114276951D01*
X102022009Y-114276951D02*
X102117247Y-114324570D01*
X163187142Y-127274819D02*
X162853809Y-126798628D01*
X162615714Y-127274819D02*
X162615714Y-126274819D01*
X162615714Y-126274819D02*
X162996666Y-126274819D01*
X162996666Y-126274819D02*
X163091904Y-126322438D01*
X163091904Y-126322438D02*
X163139523Y-126370057D01*
X163139523Y-126370057D02*
X163187142Y-126465295D01*
X163187142Y-126465295D02*
X163187142Y-126608152D01*
X163187142Y-126608152D02*
X163139523Y-126703390D01*
X163139523Y-126703390D02*
X163091904Y-126751009D01*
X163091904Y-126751009D02*
X162996666Y-126798628D01*
X162996666Y-126798628D02*
X162615714Y-126798628D01*
X164139523Y-127274819D02*
X163568095Y-127274819D01*
X163853809Y-127274819D02*
X163853809Y-126274819D01*
X163853809Y-126274819D02*
X163758571Y-126417676D01*
X163758571Y-126417676D02*
X163663333Y-126512914D01*
X163663333Y-126512914D02*
X163568095Y-126560533D01*
X164758571Y-126274819D02*
X164853809Y-126274819D01*
X164853809Y-126274819D02*
X164949047Y-126322438D01*
X164949047Y-126322438D02*
X164996666Y-126370057D01*
X164996666Y-126370057D02*
X165044285Y-126465295D01*
X165044285Y-126465295D02*
X165091904Y-126655771D01*
X165091904Y-126655771D02*
X165091904Y-126893866D01*
X165091904Y-126893866D02*
X165044285Y-127084342D01*
X165044285Y-127084342D02*
X164996666Y-127179580D01*
X164996666Y-127179580D02*
X164949047Y-127227200D01*
X164949047Y-127227200D02*
X164853809Y-127274819D01*
X164853809Y-127274819D02*
X164758571Y-127274819D01*
X164758571Y-127274819D02*
X164663333Y-127227200D01*
X164663333Y-127227200D02*
X164615714Y-127179580D01*
X164615714Y-127179580D02*
X164568095Y-127084342D01*
X164568095Y-127084342D02*
X164520476Y-126893866D01*
X164520476Y-126893866D02*
X164520476Y-126655771D01*
X164520476Y-126655771D02*
X164568095Y-126465295D01*
X164568095Y-126465295D02*
X164615714Y-126370057D01*
X164615714Y-126370057D02*
X164663333Y-126322438D01*
X164663333Y-126322438D02*
X164758571Y-126274819D01*
X162734761Y-132714819D02*
X162163333Y-132714819D01*
X162449047Y-132714819D02*
X162449047Y-131714819D01*
X162449047Y-131714819D02*
X162353809Y-131857676D01*
X162353809Y-131857676D02*
X162258571Y-131952914D01*
X162258571Y-131952914D02*
X162163333Y-132000533D01*
X163353809Y-131714819D02*
X163449047Y-131714819D01*
X163449047Y-131714819D02*
X163544285Y-131762438D01*
X163544285Y-131762438D02*
X163591904Y-131810057D01*
X163591904Y-131810057D02*
X163639523Y-131905295D01*
X163639523Y-131905295D02*
X163687142Y-132095771D01*
X163687142Y-132095771D02*
X163687142Y-132333866D01*
X163687142Y-132333866D02*
X163639523Y-132524342D01*
X163639523Y-132524342D02*
X163591904Y-132619580D01*
X163591904Y-132619580D02*
X163544285Y-132667200D01*
X163544285Y-132667200D02*
X163449047Y-132714819D01*
X163449047Y-132714819D02*
X163353809Y-132714819D01*
X163353809Y-132714819D02*
X163258571Y-132667200D01*
X163258571Y-132667200D02*
X163210952Y-132619580D01*
X163210952Y-132619580D02*
X163163333Y-132524342D01*
X163163333Y-132524342D02*
X163115714Y-132333866D01*
X163115714Y-132333866D02*
X163115714Y-132095771D01*
X163115714Y-132095771D02*
X163163333Y-131905295D01*
X163163333Y-131905295D02*
X163210952Y-131810057D01*
X163210952Y-131810057D02*
X163258571Y-131762438D01*
X163258571Y-131762438D02*
X163353809Y-131714819D01*
X164115714Y-132714819D02*
X164115714Y-131714819D01*
X164210952Y-132333866D02*
X164496666Y-132714819D01*
X164496666Y-132048152D02*
X164115714Y-132429104D01*
X165496666Y-132714819D02*
X165163333Y-132238628D01*
X164925238Y-132714819D02*
X164925238Y-131714819D01*
X164925238Y-131714819D02*
X165306190Y-131714819D01*
X165306190Y-131714819D02*
X165401428Y-131762438D01*
X165401428Y-131762438D02*
X165449047Y-131810057D01*
X165449047Y-131810057D02*
X165496666Y-131905295D01*
X165496666Y-131905295D02*
X165496666Y-132048152D01*
X165496666Y-132048152D02*
X165449047Y-132143390D01*
X165449047Y-132143390D02*
X165401428Y-132191009D01*
X165401428Y-132191009D02*
X165306190Y-132238628D01*
X165306190Y-132238628D02*
X164925238Y-132238628D01*
X163187142Y-138704819D02*
X162853809Y-138228628D01*
X162615714Y-138704819D02*
X162615714Y-137704819D01*
X162615714Y-137704819D02*
X162996666Y-137704819D01*
X162996666Y-137704819D02*
X163091904Y-137752438D01*
X163091904Y-137752438D02*
X163139523Y-137800057D01*
X163139523Y-137800057D02*
X163187142Y-137895295D01*
X163187142Y-137895295D02*
X163187142Y-138038152D01*
X163187142Y-138038152D02*
X163139523Y-138133390D01*
X163139523Y-138133390D02*
X163091904Y-138181009D01*
X163091904Y-138181009D02*
X162996666Y-138228628D01*
X162996666Y-138228628D02*
X162615714Y-138228628D01*
X164139523Y-138704819D02*
X163568095Y-138704819D01*
X163853809Y-138704819D02*
X163853809Y-137704819D01*
X163853809Y-137704819D02*
X163758571Y-137847676D01*
X163758571Y-137847676D02*
X163663333Y-137942914D01*
X163663333Y-137942914D02*
X163568095Y-137990533D01*
X165091904Y-138704819D02*
X164520476Y-138704819D01*
X164806190Y-138704819D02*
X164806190Y-137704819D01*
X164806190Y-137704819D02*
X164710952Y-137847676D01*
X164710952Y-137847676D02*
X164615714Y-137942914D01*
X164615714Y-137942914D02*
X164520476Y-137990533D01*
X162734761Y-144144819D02*
X162163333Y-144144819D01*
X162449047Y-144144819D02*
X162449047Y-143144819D01*
X162449047Y-143144819D02*
X162353809Y-143287676D01*
X162353809Y-143287676D02*
X162258571Y-143382914D01*
X162258571Y-143382914D02*
X162163333Y-143430533D01*
X163353809Y-143144819D02*
X163449047Y-143144819D01*
X163449047Y-143144819D02*
X163544285Y-143192438D01*
X163544285Y-143192438D02*
X163591904Y-143240057D01*
X163591904Y-143240057D02*
X163639523Y-143335295D01*
X163639523Y-143335295D02*
X163687142Y-143525771D01*
X163687142Y-143525771D02*
X163687142Y-143763866D01*
X163687142Y-143763866D02*
X163639523Y-143954342D01*
X163639523Y-143954342D02*
X163591904Y-144049580D01*
X163591904Y-144049580D02*
X163544285Y-144097200D01*
X163544285Y-144097200D02*
X163449047Y-144144819D01*
X163449047Y-144144819D02*
X163353809Y-144144819D01*
X163353809Y-144144819D02*
X163258571Y-144097200D01*
X163258571Y-144097200D02*
X163210952Y-144049580D01*
X163210952Y-144049580D02*
X163163333Y-143954342D01*
X163163333Y-143954342D02*
X163115714Y-143763866D01*
X163115714Y-143763866D02*
X163115714Y-143525771D01*
X163115714Y-143525771D02*
X163163333Y-143335295D01*
X163163333Y-143335295D02*
X163210952Y-143240057D01*
X163210952Y-143240057D02*
X163258571Y-143192438D01*
X163258571Y-143192438D02*
X163353809Y-143144819D01*
X164115714Y-144144819D02*
X164115714Y-143144819D01*
X164210952Y-143763866D02*
X164496666Y-144144819D01*
X164496666Y-143478152D02*
X164115714Y-143859104D01*
X165496666Y-144144819D02*
X165163333Y-143668628D01*
X164925238Y-144144819D02*
X164925238Y-143144819D01*
X164925238Y-143144819D02*
X165306190Y-143144819D01*
X165306190Y-143144819D02*
X165401428Y-143192438D01*
X165401428Y-143192438D02*
X165449047Y-143240057D01*
X165449047Y-143240057D02*
X165496666Y-143335295D01*
X165496666Y-143335295D02*
X165496666Y-143478152D01*
X165496666Y-143478152D02*
X165449047Y-143573390D01*
X165449047Y-143573390D02*
X165401428Y-143621009D01*
X165401428Y-143621009D02*
X165306190Y-143668628D01*
X165306190Y-143668628D02*
X164925238Y-143668628D01*
X93021180Y-43652666D02*
X92306895Y-43652666D01*
X92306895Y-43652666D02*
X92164038Y-43605047D01*
X92164038Y-43605047D02*
X92068800Y-43509809D01*
X92068800Y-43509809D02*
X92021180Y-43366952D01*
X92021180Y-43366952D02*
X92021180Y-43271714D01*
X92021180Y-44652666D02*
X92021180Y-44081238D01*
X92021180Y-44366952D02*
X93021180Y-44366952D01*
X93021180Y-44366952D02*
X92878323Y-44271714D01*
X92878323Y-44271714D02*
X92783085Y-44176476D01*
X92783085Y-44176476D02*
X92735466Y-44081238D01*
X174123057Y-74390238D02*
X174075438Y-74485476D01*
X174075438Y-74485476D02*
X173980200Y-74580714D01*
X173980200Y-74580714D02*
X173837342Y-74723571D01*
X173837342Y-74723571D02*
X173789723Y-74818809D01*
X173789723Y-74818809D02*
X173789723Y-74914047D01*
X174027819Y-74866428D02*
X173980200Y-74961666D01*
X173980200Y-74961666D02*
X173884961Y-75056904D01*
X173884961Y-75056904D02*
X173694485Y-75104523D01*
X173694485Y-75104523D02*
X173361152Y-75104523D01*
X173361152Y-75104523D02*
X173170676Y-75056904D01*
X173170676Y-75056904D02*
X173075438Y-74961666D01*
X173075438Y-74961666D02*
X173027819Y-74866428D01*
X173027819Y-74866428D02*
X173027819Y-74675952D01*
X173027819Y-74675952D02*
X173075438Y-74580714D01*
X173075438Y-74580714D02*
X173170676Y-74485476D01*
X173170676Y-74485476D02*
X173361152Y-74437857D01*
X173361152Y-74437857D02*
X173694485Y-74437857D01*
X173694485Y-74437857D02*
X173884961Y-74485476D01*
X173884961Y-74485476D02*
X173980200Y-74580714D01*
X173980200Y-74580714D02*
X174027819Y-74675952D01*
X174027819Y-74675952D02*
X174027819Y-74866428D01*
X174027819Y-73485476D02*
X174027819Y-74056904D01*
X174027819Y-73771190D02*
X173027819Y-73771190D01*
X173027819Y-73771190D02*
X173170676Y-73866428D01*
X173170676Y-73866428D02*
X173265914Y-73961666D01*
X173265914Y-73961666D02*
X173313533Y-74056904D01*
X178969819Y-138191523D02*
X179684104Y-138191523D01*
X179684104Y-138191523D02*
X179826961Y-138239142D01*
X179826961Y-138239142D02*
X179922200Y-138334380D01*
X179922200Y-138334380D02*
X179969819Y-138477237D01*
X179969819Y-138477237D02*
X179969819Y-138572475D01*
X179969819Y-137191523D02*
X179969819Y-137762951D01*
X179969819Y-137477237D02*
X178969819Y-137477237D01*
X178969819Y-137477237D02*
X179112676Y-137572475D01*
X179112676Y-137572475D02*
X179207914Y-137667713D01*
X179207914Y-137667713D02*
X179255533Y-137762951D01*
X179969819Y-136239142D02*
X179969819Y-136810570D01*
X179969819Y-136524856D02*
X178969819Y-136524856D01*
X178969819Y-136524856D02*
X179112676Y-136620094D01*
X179112676Y-136620094D02*
X179207914Y-136715332D01*
X179207914Y-136715332D02*
X179255533Y-136810570D01*
X166203333Y-82824819D02*
X165870000Y-82348628D01*
X165631905Y-82824819D02*
X165631905Y-81824819D01*
X165631905Y-81824819D02*
X166012857Y-81824819D01*
X166012857Y-81824819D02*
X166108095Y-81872438D01*
X166108095Y-81872438D02*
X166155714Y-81920057D01*
X166155714Y-81920057D02*
X166203333Y-82015295D01*
X166203333Y-82015295D02*
X166203333Y-82158152D01*
X166203333Y-82158152D02*
X166155714Y-82253390D01*
X166155714Y-82253390D02*
X166108095Y-82301009D01*
X166108095Y-82301009D02*
X166012857Y-82348628D01*
X166012857Y-82348628D02*
X165631905Y-82348628D01*
X166774762Y-82253390D02*
X166679524Y-82205771D01*
X166679524Y-82205771D02*
X166631905Y-82158152D01*
X166631905Y-82158152D02*
X166584286Y-82062914D01*
X166584286Y-82062914D02*
X166584286Y-82015295D01*
X166584286Y-82015295D02*
X166631905Y-81920057D01*
X166631905Y-81920057D02*
X166679524Y-81872438D01*
X166679524Y-81872438D02*
X166774762Y-81824819D01*
X166774762Y-81824819D02*
X166965238Y-81824819D01*
X166965238Y-81824819D02*
X167060476Y-81872438D01*
X167060476Y-81872438D02*
X167108095Y-81920057D01*
X167108095Y-81920057D02*
X167155714Y-82015295D01*
X167155714Y-82015295D02*
X167155714Y-82062914D01*
X167155714Y-82062914D02*
X167108095Y-82158152D01*
X167108095Y-82158152D02*
X167060476Y-82205771D01*
X167060476Y-82205771D02*
X166965238Y-82253390D01*
X166965238Y-82253390D02*
X166774762Y-82253390D01*
X166774762Y-82253390D02*
X166679524Y-82301009D01*
X166679524Y-82301009D02*
X166631905Y-82348628D01*
X166631905Y-82348628D02*
X166584286Y-82443866D01*
X166584286Y-82443866D02*
X166584286Y-82634342D01*
X166584286Y-82634342D02*
X166631905Y-82729580D01*
X166631905Y-82729580D02*
X166679524Y-82777200D01*
X166679524Y-82777200D02*
X166774762Y-82824819D01*
X166774762Y-82824819D02*
X166965238Y-82824819D01*
X166965238Y-82824819D02*
X167060476Y-82777200D01*
X167060476Y-82777200D02*
X167108095Y-82729580D01*
X167108095Y-82729580D02*
X167155714Y-82634342D01*
X167155714Y-82634342D02*
X167155714Y-82443866D01*
X167155714Y-82443866D02*
X167108095Y-82348628D01*
X167108095Y-82348628D02*
X167060476Y-82301009D01*
X167060476Y-82301009D02*
X166965238Y-82253390D01*
X165274761Y-88264819D02*
X164703333Y-88264819D01*
X164989047Y-88264819D02*
X164989047Y-87264819D01*
X164989047Y-87264819D02*
X164893809Y-87407676D01*
X164893809Y-87407676D02*
X164798571Y-87502914D01*
X164798571Y-87502914D02*
X164703333Y-87550533D01*
X165893809Y-87264819D02*
X165989047Y-87264819D01*
X165989047Y-87264819D02*
X166084285Y-87312438D01*
X166084285Y-87312438D02*
X166131904Y-87360057D01*
X166131904Y-87360057D02*
X166179523Y-87455295D01*
X166179523Y-87455295D02*
X166227142Y-87645771D01*
X166227142Y-87645771D02*
X166227142Y-87883866D01*
X166227142Y-87883866D02*
X166179523Y-88074342D01*
X166179523Y-88074342D02*
X166131904Y-88169580D01*
X166131904Y-88169580D02*
X166084285Y-88217200D01*
X166084285Y-88217200D02*
X165989047Y-88264819D01*
X165989047Y-88264819D02*
X165893809Y-88264819D01*
X165893809Y-88264819D02*
X165798571Y-88217200D01*
X165798571Y-88217200D02*
X165750952Y-88169580D01*
X165750952Y-88169580D02*
X165703333Y-88074342D01*
X165703333Y-88074342D02*
X165655714Y-87883866D01*
X165655714Y-87883866D02*
X165655714Y-87645771D01*
X165655714Y-87645771D02*
X165703333Y-87455295D01*
X165703333Y-87455295D02*
X165750952Y-87360057D01*
X165750952Y-87360057D02*
X165798571Y-87312438D01*
X165798571Y-87312438D02*
X165893809Y-87264819D01*
X166655714Y-88264819D02*
X166655714Y-87264819D01*
X166750952Y-87883866D02*
X167036666Y-88264819D01*
X167036666Y-87598152D02*
X166655714Y-87979104D01*
X168036666Y-88264819D02*
X167703333Y-87788628D01*
X167465238Y-88264819D02*
X167465238Y-87264819D01*
X167465238Y-87264819D02*
X167846190Y-87264819D01*
X167846190Y-87264819D02*
X167941428Y-87312438D01*
X167941428Y-87312438D02*
X167989047Y-87360057D01*
X167989047Y-87360057D02*
X168036666Y-87455295D01*
X168036666Y-87455295D02*
X168036666Y-87598152D01*
X168036666Y-87598152D02*
X167989047Y-87693390D01*
X167989047Y-87693390D02*
X167941428Y-87741009D01*
X167941428Y-87741009D02*
X167846190Y-87788628D01*
X167846190Y-87788628D02*
X167465238Y-87788628D01*
X109679057Y-160210428D02*
X109631438Y-160305666D01*
X109631438Y-160305666D02*
X109536200Y-160400904D01*
X109536200Y-160400904D02*
X109393342Y-160543761D01*
X109393342Y-160543761D02*
X109345723Y-160638999D01*
X109345723Y-160638999D02*
X109345723Y-160734237D01*
X109583819Y-160686618D02*
X109536200Y-160781856D01*
X109536200Y-160781856D02*
X109440961Y-160877094D01*
X109440961Y-160877094D02*
X109250485Y-160924713D01*
X109250485Y-160924713D02*
X108917152Y-160924713D01*
X108917152Y-160924713D02*
X108726676Y-160877094D01*
X108726676Y-160877094D02*
X108631438Y-160781856D01*
X108631438Y-160781856D02*
X108583819Y-160686618D01*
X108583819Y-160686618D02*
X108583819Y-160496142D01*
X108583819Y-160496142D02*
X108631438Y-160400904D01*
X108631438Y-160400904D02*
X108726676Y-160305666D01*
X108726676Y-160305666D02*
X108917152Y-160258047D01*
X108917152Y-160258047D02*
X109250485Y-160258047D01*
X109250485Y-160258047D02*
X109440961Y-160305666D01*
X109440961Y-160305666D02*
X109536200Y-160400904D01*
X109536200Y-160400904D02*
X109583819Y-160496142D01*
X109583819Y-160496142D02*
X109583819Y-160686618D01*
X109583819Y-159305666D02*
X109583819Y-159877094D01*
X109583819Y-159591380D02*
X108583819Y-159591380D01*
X108583819Y-159591380D02*
X108726676Y-159686618D01*
X108726676Y-159686618D02*
X108821914Y-159781856D01*
X108821914Y-159781856D02*
X108869533Y-159877094D01*
X108583819Y-158400904D02*
X108583819Y-158877094D01*
X108583819Y-158877094D02*
X109060009Y-158924713D01*
X109060009Y-158924713D02*
X109012390Y-158877094D01*
X109012390Y-158877094D02*
X108964771Y-158781856D01*
X108964771Y-158781856D02*
X108964771Y-158543761D01*
X108964771Y-158543761D02*
X109012390Y-158448523D01*
X109012390Y-158448523D02*
X109060009Y-158400904D01*
X109060009Y-158400904D02*
X109155247Y-158353285D01*
X109155247Y-158353285D02*
X109393342Y-158353285D01*
X109393342Y-158353285D02*
X109488580Y-158400904D01*
X109488580Y-158400904D02*
X109536200Y-158448523D01*
X109536200Y-158448523D02*
X109583819Y-158543761D01*
X109583819Y-158543761D02*
X109583819Y-158781856D01*
X109583819Y-158781856D02*
X109536200Y-158877094D01*
X109536200Y-158877094D02*
X109488580Y-158924713D01*
X124391009Y-164440333D02*
X124391009Y-164773666D01*
X124914819Y-164773666D02*
X123914819Y-164773666D01*
X123914819Y-164773666D02*
X123914819Y-164297476D01*
X124914819Y-163392714D02*
X124914819Y-163964142D01*
X124914819Y-163678428D02*
X123914819Y-163678428D01*
X123914819Y-163678428D02*
X124057676Y-163773666D01*
X124057676Y-163773666D02*
X124152914Y-163868904D01*
X124152914Y-163868904D02*
X124200533Y-163964142D01*
X178922819Y-106854333D02*
X179637104Y-106854333D01*
X179637104Y-106854333D02*
X179779961Y-106901952D01*
X179779961Y-106901952D02*
X179875200Y-106997190D01*
X179875200Y-106997190D02*
X179922819Y-107140047D01*
X179922819Y-107140047D02*
X179922819Y-107235285D01*
X178922819Y-105901952D02*
X178922819Y-106378142D01*
X178922819Y-106378142D02*
X179399009Y-106425761D01*
X179399009Y-106425761D02*
X179351390Y-106378142D01*
X179351390Y-106378142D02*
X179303771Y-106282904D01*
X179303771Y-106282904D02*
X179303771Y-106044809D01*
X179303771Y-106044809D02*
X179351390Y-105949571D01*
X179351390Y-105949571D02*
X179399009Y-105901952D01*
X179399009Y-105901952D02*
X179494247Y-105854333D01*
X179494247Y-105854333D02*
X179732342Y-105854333D01*
X179732342Y-105854333D02*
X179827580Y-105901952D01*
X179827580Y-105901952D02*
X179875200Y-105949571D01*
X179875200Y-105949571D02*
X179922819Y-106044809D01*
X179922819Y-106044809D02*
X179922819Y-106282904D01*
X179922819Y-106282904D02*
X179875200Y-106378142D01*
X179875200Y-106378142D02*
X179827580Y-106425761D01*
X109668557Y-115411428D02*
X109620938Y-115506666D01*
X109620938Y-115506666D02*
X109525700Y-115601904D01*
X109525700Y-115601904D02*
X109382842Y-115744761D01*
X109382842Y-115744761D02*
X109335223Y-115839999D01*
X109335223Y-115839999D02*
X109335223Y-115935237D01*
X109573319Y-115887618D02*
X109525700Y-115982856D01*
X109525700Y-115982856D02*
X109430461Y-116078094D01*
X109430461Y-116078094D02*
X109239985Y-116125713D01*
X109239985Y-116125713D02*
X108906652Y-116125713D01*
X108906652Y-116125713D02*
X108716176Y-116078094D01*
X108716176Y-116078094D02*
X108620938Y-115982856D01*
X108620938Y-115982856D02*
X108573319Y-115887618D01*
X108573319Y-115887618D02*
X108573319Y-115697142D01*
X108573319Y-115697142D02*
X108620938Y-115601904D01*
X108620938Y-115601904D02*
X108716176Y-115506666D01*
X108716176Y-115506666D02*
X108906652Y-115459047D01*
X108906652Y-115459047D02*
X109239985Y-115459047D01*
X109239985Y-115459047D02*
X109430461Y-115506666D01*
X109430461Y-115506666D02*
X109525700Y-115601904D01*
X109525700Y-115601904D02*
X109573319Y-115697142D01*
X109573319Y-115697142D02*
X109573319Y-115887618D01*
X109573319Y-114506666D02*
X109573319Y-115078094D01*
X109573319Y-114792380D02*
X108573319Y-114792380D01*
X108573319Y-114792380D02*
X108716176Y-114887618D01*
X108716176Y-114887618D02*
X108811414Y-114982856D01*
X108811414Y-114982856D02*
X108859033Y-115078094D01*
X108906652Y-113649523D02*
X109573319Y-113649523D01*
X108525700Y-113887618D02*
X109239985Y-114125713D01*
X109239985Y-114125713D02*
X109239985Y-113506666D01*
X116038333Y-101853819D02*
X115705000Y-101377628D01*
X115466905Y-101853819D02*
X115466905Y-100853819D01*
X115466905Y-100853819D02*
X115847857Y-100853819D01*
X115847857Y-100853819D02*
X115943095Y-100901438D01*
X115943095Y-100901438D02*
X115990714Y-100949057D01*
X115990714Y-100949057D02*
X116038333Y-101044295D01*
X116038333Y-101044295D02*
X116038333Y-101187152D01*
X116038333Y-101187152D02*
X115990714Y-101282390D01*
X115990714Y-101282390D02*
X115943095Y-101330009D01*
X115943095Y-101330009D02*
X115847857Y-101377628D01*
X115847857Y-101377628D02*
X115466905Y-101377628D01*
X116371667Y-100853819D02*
X117038333Y-100853819D01*
X117038333Y-100853819D02*
X116609762Y-101853819D01*
X115109761Y-96413819D02*
X114538333Y-96413819D01*
X114824047Y-96413819D02*
X114824047Y-95413819D01*
X114824047Y-95413819D02*
X114728809Y-95556676D01*
X114728809Y-95556676D02*
X114633571Y-95651914D01*
X114633571Y-95651914D02*
X114538333Y-95699533D01*
X115728809Y-95413819D02*
X115824047Y-95413819D01*
X115824047Y-95413819D02*
X115919285Y-95461438D01*
X115919285Y-95461438D02*
X115966904Y-95509057D01*
X115966904Y-95509057D02*
X116014523Y-95604295D01*
X116014523Y-95604295D02*
X116062142Y-95794771D01*
X116062142Y-95794771D02*
X116062142Y-96032866D01*
X116062142Y-96032866D02*
X116014523Y-96223342D01*
X116014523Y-96223342D02*
X115966904Y-96318580D01*
X115966904Y-96318580D02*
X115919285Y-96366200D01*
X115919285Y-96366200D02*
X115824047Y-96413819D01*
X115824047Y-96413819D02*
X115728809Y-96413819D01*
X115728809Y-96413819D02*
X115633571Y-96366200D01*
X115633571Y-96366200D02*
X115585952Y-96318580D01*
X115585952Y-96318580D02*
X115538333Y-96223342D01*
X115538333Y-96223342D02*
X115490714Y-96032866D01*
X115490714Y-96032866D02*
X115490714Y-95794771D01*
X115490714Y-95794771D02*
X115538333Y-95604295D01*
X115538333Y-95604295D02*
X115585952Y-95509057D01*
X115585952Y-95509057D02*
X115633571Y-95461438D01*
X115633571Y-95461438D02*
X115728809Y-95413819D01*
X116490714Y-96413819D02*
X116490714Y-95413819D01*
X116585952Y-96032866D02*
X116871666Y-96413819D01*
X116871666Y-95747152D02*
X116490714Y-96128104D01*
X117871666Y-96413819D02*
X117538333Y-95937628D01*
X117300238Y-96413819D02*
X117300238Y-95413819D01*
X117300238Y-95413819D02*
X117681190Y-95413819D01*
X117681190Y-95413819D02*
X117776428Y-95461438D01*
X117776428Y-95461438D02*
X117824047Y-95509057D01*
X117824047Y-95509057D02*
X117871666Y-95604295D01*
X117871666Y-95604295D02*
X117871666Y-95747152D01*
X117871666Y-95747152D02*
X117824047Y-95842390D01*
X117824047Y-95842390D02*
X117776428Y-95890009D01*
X117776428Y-95890009D02*
X117681190Y-95937628D01*
X117681190Y-95937628D02*
X117300238Y-95937628D01*
X116197142Y-146684819D02*
X115863809Y-146208628D01*
X115625714Y-146684819D02*
X115625714Y-145684819D01*
X115625714Y-145684819D02*
X116006666Y-145684819D01*
X116006666Y-145684819D02*
X116101904Y-145732438D01*
X116101904Y-145732438D02*
X116149523Y-145780057D01*
X116149523Y-145780057D02*
X116197142Y-145875295D01*
X116197142Y-145875295D02*
X116197142Y-146018152D01*
X116197142Y-146018152D02*
X116149523Y-146113390D01*
X116149523Y-146113390D02*
X116101904Y-146161009D01*
X116101904Y-146161009D02*
X116006666Y-146208628D01*
X116006666Y-146208628D02*
X115625714Y-146208628D01*
X117149523Y-146684819D02*
X116578095Y-146684819D01*
X116863809Y-146684819D02*
X116863809Y-145684819D01*
X116863809Y-145684819D02*
X116768571Y-145827676D01*
X116768571Y-145827676D02*
X116673333Y-145922914D01*
X116673333Y-145922914D02*
X116578095Y-145970533D01*
X118054285Y-145684819D02*
X117578095Y-145684819D01*
X117578095Y-145684819D02*
X117530476Y-146161009D01*
X117530476Y-146161009D02*
X117578095Y-146113390D01*
X117578095Y-146113390D02*
X117673333Y-146065771D01*
X117673333Y-146065771D02*
X117911428Y-146065771D01*
X117911428Y-146065771D02*
X118006666Y-146113390D01*
X118006666Y-146113390D02*
X118054285Y-146161009D01*
X118054285Y-146161009D02*
X118101904Y-146256247D01*
X118101904Y-146256247D02*
X118101904Y-146494342D01*
X118101904Y-146494342D02*
X118054285Y-146589580D01*
X118054285Y-146589580D02*
X118006666Y-146637200D01*
X118006666Y-146637200D02*
X117911428Y-146684819D01*
X117911428Y-146684819D02*
X117673333Y-146684819D01*
X117673333Y-146684819D02*
X117578095Y-146637200D01*
X117578095Y-146637200D02*
X117530476Y-146589580D01*
X115744761Y-141244819D02*
X115173333Y-141244819D01*
X115459047Y-141244819D02*
X115459047Y-140244819D01*
X115459047Y-140244819D02*
X115363809Y-140387676D01*
X115363809Y-140387676D02*
X115268571Y-140482914D01*
X115268571Y-140482914D02*
X115173333Y-140530533D01*
X116363809Y-140244819D02*
X116459047Y-140244819D01*
X116459047Y-140244819D02*
X116554285Y-140292438D01*
X116554285Y-140292438D02*
X116601904Y-140340057D01*
X116601904Y-140340057D02*
X116649523Y-140435295D01*
X116649523Y-140435295D02*
X116697142Y-140625771D01*
X116697142Y-140625771D02*
X116697142Y-140863866D01*
X116697142Y-140863866D02*
X116649523Y-141054342D01*
X116649523Y-141054342D02*
X116601904Y-141149580D01*
X116601904Y-141149580D02*
X116554285Y-141197200D01*
X116554285Y-141197200D02*
X116459047Y-141244819D01*
X116459047Y-141244819D02*
X116363809Y-141244819D01*
X116363809Y-141244819D02*
X116268571Y-141197200D01*
X116268571Y-141197200D02*
X116220952Y-141149580D01*
X116220952Y-141149580D02*
X116173333Y-141054342D01*
X116173333Y-141054342D02*
X116125714Y-140863866D01*
X116125714Y-140863866D02*
X116125714Y-140625771D01*
X116125714Y-140625771D02*
X116173333Y-140435295D01*
X116173333Y-140435295D02*
X116220952Y-140340057D01*
X116220952Y-140340057D02*
X116268571Y-140292438D01*
X116268571Y-140292438D02*
X116363809Y-140244819D01*
X117125714Y-141244819D02*
X117125714Y-140244819D01*
X117220952Y-140863866D02*
X117506666Y-141244819D01*
X117506666Y-140578152D02*
X117125714Y-140959104D01*
X118506666Y-141244819D02*
X118173333Y-140768628D01*
X117935238Y-141244819D02*
X117935238Y-140244819D01*
X117935238Y-140244819D02*
X118316190Y-140244819D01*
X118316190Y-140244819D02*
X118411428Y-140292438D01*
X118411428Y-140292438D02*
X118459047Y-140340057D01*
X118459047Y-140340057D02*
X118506666Y-140435295D01*
X118506666Y-140435295D02*
X118506666Y-140578152D01*
X118506666Y-140578152D02*
X118459047Y-140673390D01*
X118459047Y-140673390D02*
X118411428Y-140721009D01*
X118411428Y-140721009D02*
X118316190Y-140768628D01*
X118316190Y-140768628D02*
X117935238Y-140768628D01*
X109679057Y-148907428D02*
X109631438Y-149002666D01*
X109631438Y-149002666D02*
X109536200Y-149097904D01*
X109536200Y-149097904D02*
X109393342Y-149240761D01*
X109393342Y-149240761D02*
X109345723Y-149335999D01*
X109345723Y-149335999D02*
X109345723Y-149431237D01*
X109583819Y-149383618D02*
X109536200Y-149478856D01*
X109536200Y-149478856D02*
X109440961Y-149574094D01*
X109440961Y-149574094D02*
X109250485Y-149621713D01*
X109250485Y-149621713D02*
X108917152Y-149621713D01*
X108917152Y-149621713D02*
X108726676Y-149574094D01*
X108726676Y-149574094D02*
X108631438Y-149478856D01*
X108631438Y-149478856D02*
X108583819Y-149383618D01*
X108583819Y-149383618D02*
X108583819Y-149193142D01*
X108583819Y-149193142D02*
X108631438Y-149097904D01*
X108631438Y-149097904D02*
X108726676Y-149002666D01*
X108726676Y-149002666D02*
X108917152Y-148955047D01*
X108917152Y-148955047D02*
X109250485Y-148955047D01*
X109250485Y-148955047D02*
X109440961Y-149002666D01*
X109440961Y-149002666D02*
X109536200Y-149097904D01*
X109536200Y-149097904D02*
X109583819Y-149193142D01*
X109583819Y-149193142D02*
X109583819Y-149383618D01*
X109583819Y-148002666D02*
X109583819Y-148574094D01*
X109583819Y-148288380D02*
X108583819Y-148288380D01*
X108583819Y-148288380D02*
X108726676Y-148383618D01*
X108726676Y-148383618D02*
X108821914Y-148478856D01*
X108821914Y-148478856D02*
X108869533Y-148574094D01*
X108583819Y-147145523D02*
X108583819Y-147335999D01*
X108583819Y-147335999D02*
X108631438Y-147431237D01*
X108631438Y-147431237D02*
X108679057Y-147478856D01*
X108679057Y-147478856D02*
X108821914Y-147574094D01*
X108821914Y-147574094D02*
X109012390Y-147621713D01*
X109012390Y-147621713D02*
X109393342Y-147621713D01*
X109393342Y-147621713D02*
X109488580Y-147574094D01*
X109488580Y-147574094D02*
X109536200Y-147526475D01*
X109536200Y-147526475D02*
X109583819Y-147431237D01*
X109583819Y-147431237D02*
X109583819Y-147240761D01*
X109583819Y-147240761D02*
X109536200Y-147145523D01*
X109536200Y-147145523D02*
X109488580Y-147097904D01*
X109488580Y-147097904D02*
X109393342Y-147050285D01*
X109393342Y-147050285D02*
X109155247Y-147050285D01*
X109155247Y-147050285D02*
X109060009Y-147097904D01*
X109060009Y-147097904D02*
X109012390Y-147145523D01*
X109012390Y-147145523D02*
X108964771Y-147240761D01*
X108964771Y-147240761D02*
X108964771Y-147431237D01*
X108964771Y-147431237D02*
X109012390Y-147526475D01*
X109012390Y-147526475D02*
X109060009Y-147574094D01*
X109060009Y-147574094D02*
X109155247Y-147621713D01*
X101498819Y-105276333D02*
X102213104Y-105276333D01*
X102213104Y-105276333D02*
X102355961Y-105323952D01*
X102355961Y-105323952D02*
X102451200Y-105419190D01*
X102451200Y-105419190D02*
X102498819Y-105562047D01*
X102498819Y-105562047D02*
X102498819Y-105657285D01*
X101498819Y-104895380D02*
X101498819Y-104228714D01*
X101498819Y-104228714D02*
X102498819Y-104657285D01*
X173234057Y-151955428D02*
X173186438Y-152050666D01*
X173186438Y-152050666D02*
X173091200Y-152145904D01*
X173091200Y-152145904D02*
X172948342Y-152288761D01*
X172948342Y-152288761D02*
X172900723Y-152383999D01*
X172900723Y-152383999D02*
X172900723Y-152479237D01*
X173138819Y-152431618D02*
X173091200Y-152526856D01*
X173091200Y-152526856D02*
X172995961Y-152622094D01*
X172995961Y-152622094D02*
X172805485Y-152669713D01*
X172805485Y-152669713D02*
X172472152Y-152669713D01*
X172472152Y-152669713D02*
X172281676Y-152622094D01*
X172281676Y-152622094D02*
X172186438Y-152526856D01*
X172186438Y-152526856D02*
X172138819Y-152431618D01*
X172138819Y-152431618D02*
X172138819Y-152241142D01*
X172138819Y-152241142D02*
X172186438Y-152145904D01*
X172186438Y-152145904D02*
X172281676Y-152050666D01*
X172281676Y-152050666D02*
X172472152Y-152003047D01*
X172472152Y-152003047D02*
X172805485Y-152003047D01*
X172805485Y-152003047D02*
X172995961Y-152050666D01*
X172995961Y-152050666D02*
X173091200Y-152145904D01*
X173091200Y-152145904D02*
X173138819Y-152241142D01*
X173138819Y-152241142D02*
X173138819Y-152431618D01*
X173138819Y-151050666D02*
X173138819Y-151622094D01*
X173138819Y-151336380D02*
X172138819Y-151336380D01*
X172138819Y-151336380D02*
X172281676Y-151431618D01*
X172281676Y-151431618D02*
X172376914Y-151526856D01*
X172376914Y-151526856D02*
X172424533Y-151622094D01*
X172138819Y-150431618D02*
X172138819Y-150336380D01*
X172138819Y-150336380D02*
X172186438Y-150241142D01*
X172186438Y-150241142D02*
X172234057Y-150193523D01*
X172234057Y-150193523D02*
X172329295Y-150145904D01*
X172329295Y-150145904D02*
X172519771Y-150098285D01*
X172519771Y-150098285D02*
X172757866Y-150098285D01*
X172757866Y-150098285D02*
X172948342Y-150145904D01*
X172948342Y-150145904D02*
X173043580Y-150193523D01*
X173043580Y-150193523D02*
X173091200Y-150241142D01*
X173091200Y-150241142D02*
X173138819Y-150336380D01*
X173138819Y-150336380D02*
X173138819Y-150431618D01*
X173138819Y-150431618D02*
X173091200Y-150526856D01*
X173091200Y-150526856D02*
X173043580Y-150574475D01*
X173043580Y-150574475D02*
X172948342Y-150622094D01*
X172948342Y-150622094D02*
X172757866Y-150669713D01*
X172757866Y-150669713D02*
X172519771Y-150669713D01*
X172519771Y-150669713D02*
X172329295Y-150622094D01*
X172329295Y-150622094D02*
X172234057Y-150574475D01*
X172234057Y-150574475D02*
X172186438Y-150526856D01*
X172186438Y-150526856D02*
X172138819Y-150431618D01*
X178969819Y-85645333D02*
X179684104Y-85645333D01*
X179684104Y-85645333D02*
X179826961Y-85692952D01*
X179826961Y-85692952D02*
X179922200Y-85788190D01*
X179922200Y-85788190D02*
X179969819Y-85931047D01*
X179969819Y-85931047D02*
X179969819Y-86026285D01*
X179398390Y-85026285D02*
X179350771Y-85121523D01*
X179350771Y-85121523D02*
X179303152Y-85169142D01*
X179303152Y-85169142D02*
X179207914Y-85216761D01*
X179207914Y-85216761D02*
X179160295Y-85216761D01*
X179160295Y-85216761D02*
X179065057Y-85169142D01*
X179065057Y-85169142D02*
X179017438Y-85121523D01*
X179017438Y-85121523D02*
X178969819Y-85026285D01*
X178969819Y-85026285D02*
X178969819Y-84835809D01*
X178969819Y-84835809D02*
X179017438Y-84740571D01*
X179017438Y-84740571D02*
X179065057Y-84692952D01*
X179065057Y-84692952D02*
X179160295Y-84645333D01*
X179160295Y-84645333D02*
X179207914Y-84645333D01*
X179207914Y-84645333D02*
X179303152Y-84692952D01*
X179303152Y-84692952D02*
X179350771Y-84740571D01*
X179350771Y-84740571D02*
X179398390Y-84835809D01*
X179398390Y-84835809D02*
X179398390Y-85026285D01*
X179398390Y-85026285D02*
X179446009Y-85121523D01*
X179446009Y-85121523D02*
X179493628Y-85169142D01*
X179493628Y-85169142D02*
X179588866Y-85216761D01*
X179588866Y-85216761D02*
X179779342Y-85216761D01*
X179779342Y-85216761D02*
X179874580Y-85169142D01*
X179874580Y-85169142D02*
X179922200Y-85121523D01*
X179922200Y-85121523D02*
X179969819Y-85026285D01*
X179969819Y-85026285D02*
X179969819Y-84835809D01*
X179969819Y-84835809D02*
X179922200Y-84740571D01*
X179922200Y-84740571D02*
X179874580Y-84692952D01*
X179874580Y-84692952D02*
X179779342Y-84645333D01*
X179779342Y-84645333D02*
X179588866Y-84645333D01*
X179588866Y-84645333D02*
X179493628Y-84692952D01*
X179493628Y-84692952D02*
X179446009Y-84740571D01*
X179446009Y-84740571D02*
X179398390Y-84835809D01*
X163187142Y-148864819D02*
X162853809Y-148388628D01*
X162615714Y-148864819D02*
X162615714Y-147864819D01*
X162615714Y-147864819D02*
X162996666Y-147864819D01*
X162996666Y-147864819D02*
X163091904Y-147912438D01*
X163091904Y-147912438D02*
X163139523Y-147960057D01*
X163139523Y-147960057D02*
X163187142Y-148055295D01*
X163187142Y-148055295D02*
X163187142Y-148198152D01*
X163187142Y-148198152D02*
X163139523Y-148293390D01*
X163139523Y-148293390D02*
X163091904Y-148341009D01*
X163091904Y-148341009D02*
X162996666Y-148388628D01*
X162996666Y-148388628D02*
X162615714Y-148388628D01*
X164139523Y-148864819D02*
X163568095Y-148864819D01*
X163853809Y-148864819D02*
X163853809Y-147864819D01*
X163853809Y-147864819D02*
X163758571Y-148007676D01*
X163758571Y-148007676D02*
X163663333Y-148102914D01*
X163663333Y-148102914D02*
X163568095Y-148150533D01*
X164520476Y-147960057D02*
X164568095Y-147912438D01*
X164568095Y-147912438D02*
X164663333Y-147864819D01*
X164663333Y-147864819D02*
X164901428Y-147864819D01*
X164901428Y-147864819D02*
X164996666Y-147912438D01*
X164996666Y-147912438D02*
X165044285Y-147960057D01*
X165044285Y-147960057D02*
X165091904Y-148055295D01*
X165091904Y-148055295D02*
X165091904Y-148150533D01*
X165091904Y-148150533D02*
X165044285Y-148293390D01*
X165044285Y-148293390D02*
X164472857Y-148864819D01*
X164472857Y-148864819D02*
X165091904Y-148864819D01*
X162734761Y-154304819D02*
X162163333Y-154304819D01*
X162449047Y-154304819D02*
X162449047Y-153304819D01*
X162449047Y-153304819D02*
X162353809Y-153447676D01*
X162353809Y-153447676D02*
X162258571Y-153542914D01*
X162258571Y-153542914D02*
X162163333Y-153590533D01*
X163353809Y-153304819D02*
X163449047Y-153304819D01*
X163449047Y-153304819D02*
X163544285Y-153352438D01*
X163544285Y-153352438D02*
X163591904Y-153400057D01*
X163591904Y-153400057D02*
X163639523Y-153495295D01*
X163639523Y-153495295D02*
X163687142Y-153685771D01*
X163687142Y-153685771D02*
X163687142Y-153923866D01*
X163687142Y-153923866D02*
X163639523Y-154114342D01*
X163639523Y-154114342D02*
X163591904Y-154209580D01*
X163591904Y-154209580D02*
X163544285Y-154257200D01*
X163544285Y-154257200D02*
X163449047Y-154304819D01*
X163449047Y-154304819D02*
X163353809Y-154304819D01*
X163353809Y-154304819D02*
X163258571Y-154257200D01*
X163258571Y-154257200D02*
X163210952Y-154209580D01*
X163210952Y-154209580D02*
X163163333Y-154114342D01*
X163163333Y-154114342D02*
X163115714Y-153923866D01*
X163115714Y-153923866D02*
X163115714Y-153685771D01*
X163115714Y-153685771D02*
X163163333Y-153495295D01*
X163163333Y-153495295D02*
X163210952Y-153400057D01*
X163210952Y-153400057D02*
X163258571Y-153352438D01*
X163258571Y-153352438D02*
X163353809Y-153304819D01*
X164115714Y-154304819D02*
X164115714Y-153304819D01*
X164210952Y-153923866D02*
X164496666Y-154304819D01*
X164496666Y-153638152D02*
X164115714Y-154019104D01*
X165496666Y-154304819D02*
X165163333Y-153828628D01*
X164925238Y-154304819D02*
X164925238Y-153304819D01*
X164925238Y-153304819D02*
X165306190Y-153304819D01*
X165306190Y-153304819D02*
X165401428Y-153352438D01*
X165401428Y-153352438D02*
X165449047Y-153400057D01*
X165449047Y-153400057D02*
X165496666Y-153495295D01*
X165496666Y-153495295D02*
X165496666Y-153638152D01*
X165496666Y-153638152D02*
X165449047Y-153733390D01*
X165449047Y-153733390D02*
X165401428Y-153781009D01*
X165401428Y-153781009D02*
X165306190Y-153828628D01*
X165306190Y-153828628D02*
X164925238Y-153828628D01*
X132247666Y-148870819D02*
X132247666Y-149585104D01*
X132247666Y-149585104D02*
X132200047Y-149727961D01*
X132200047Y-149727961D02*
X132104809Y-149823200D01*
X132104809Y-149823200D02*
X131961952Y-149870819D01*
X131961952Y-149870819D02*
X131866714Y-149870819D01*
X132676238Y-148966057D02*
X132723857Y-148918438D01*
X132723857Y-148918438D02*
X132819095Y-148870819D01*
X132819095Y-148870819D02*
X133057190Y-148870819D01*
X133057190Y-148870819D02*
X133152428Y-148918438D01*
X133152428Y-148918438D02*
X133200047Y-148966057D01*
X133200047Y-148966057D02*
X133247666Y-149061295D01*
X133247666Y-149061295D02*
X133247666Y-149156533D01*
X133247666Y-149156533D02*
X133200047Y-149299390D01*
X133200047Y-149299390D02*
X132628619Y-149870819D01*
X132628619Y-149870819D02*
X133247666Y-149870819D01*
X173154057Y-130143238D02*
X173106438Y-130238476D01*
X173106438Y-130238476D02*
X173011200Y-130333714D01*
X173011200Y-130333714D02*
X172868342Y-130476571D01*
X172868342Y-130476571D02*
X172820723Y-130571809D01*
X172820723Y-130571809D02*
X172820723Y-130667047D01*
X173058819Y-130619428D02*
X173011200Y-130714666D01*
X173011200Y-130714666D02*
X172915961Y-130809904D01*
X172915961Y-130809904D02*
X172725485Y-130857523D01*
X172725485Y-130857523D02*
X172392152Y-130857523D01*
X172392152Y-130857523D02*
X172201676Y-130809904D01*
X172201676Y-130809904D02*
X172106438Y-130714666D01*
X172106438Y-130714666D02*
X172058819Y-130619428D01*
X172058819Y-130619428D02*
X172058819Y-130428952D01*
X172058819Y-130428952D02*
X172106438Y-130333714D01*
X172106438Y-130333714D02*
X172201676Y-130238476D01*
X172201676Y-130238476D02*
X172392152Y-130190857D01*
X172392152Y-130190857D02*
X172725485Y-130190857D01*
X172725485Y-130190857D02*
X172915961Y-130238476D01*
X172915961Y-130238476D02*
X173011200Y-130333714D01*
X173011200Y-130333714D02*
X173058819Y-130428952D01*
X173058819Y-130428952D02*
X173058819Y-130619428D01*
X172487390Y-129619428D02*
X172439771Y-129714666D01*
X172439771Y-129714666D02*
X172392152Y-129762285D01*
X172392152Y-129762285D02*
X172296914Y-129809904D01*
X172296914Y-129809904D02*
X172249295Y-129809904D01*
X172249295Y-129809904D02*
X172154057Y-129762285D01*
X172154057Y-129762285D02*
X172106438Y-129714666D01*
X172106438Y-129714666D02*
X172058819Y-129619428D01*
X172058819Y-129619428D02*
X172058819Y-129428952D01*
X172058819Y-129428952D02*
X172106438Y-129333714D01*
X172106438Y-129333714D02*
X172154057Y-129286095D01*
X172154057Y-129286095D02*
X172249295Y-129238476D01*
X172249295Y-129238476D02*
X172296914Y-129238476D01*
X172296914Y-129238476D02*
X172392152Y-129286095D01*
X172392152Y-129286095D02*
X172439771Y-129333714D01*
X172439771Y-129333714D02*
X172487390Y-129428952D01*
X172487390Y-129428952D02*
X172487390Y-129619428D01*
X172487390Y-129619428D02*
X172535009Y-129714666D01*
X172535009Y-129714666D02*
X172582628Y-129762285D01*
X172582628Y-129762285D02*
X172677866Y-129809904D01*
X172677866Y-129809904D02*
X172868342Y-129809904D01*
X172868342Y-129809904D02*
X172963580Y-129762285D01*
X172963580Y-129762285D02*
X173011200Y-129714666D01*
X173011200Y-129714666D02*
X173058819Y-129619428D01*
X173058819Y-129619428D02*
X173058819Y-129428952D01*
X173058819Y-129428952D02*
X173011200Y-129333714D01*
X173011200Y-129333714D02*
X172963580Y-129286095D01*
X172963580Y-129286095D02*
X172868342Y-129238476D01*
X172868342Y-129238476D02*
X172677866Y-129238476D01*
X172677866Y-129238476D02*
X172582628Y-129286095D01*
X172582628Y-129286095D02*
X172535009Y-129333714D01*
X172535009Y-129333714D02*
X172487390Y-129428952D01*
X178922819Y-148605523D02*
X179637104Y-148605523D01*
X179637104Y-148605523D02*
X179779961Y-148653142D01*
X179779961Y-148653142D02*
X179875200Y-148748380D01*
X179875200Y-148748380D02*
X179922819Y-148891237D01*
X179922819Y-148891237D02*
X179922819Y-148986475D01*
X179922819Y-147605523D02*
X179922819Y-148176951D01*
X179922819Y-147891237D02*
X178922819Y-147891237D01*
X178922819Y-147891237D02*
X179065676Y-147986475D01*
X179065676Y-147986475D02*
X179160914Y-148081713D01*
X179160914Y-148081713D02*
X179208533Y-148176951D01*
X179018057Y-147224570D02*
X178970438Y-147176951D01*
X178970438Y-147176951D02*
X178922819Y-147081713D01*
X178922819Y-147081713D02*
X178922819Y-146843618D01*
X178922819Y-146843618D02*
X178970438Y-146748380D01*
X178970438Y-146748380D02*
X179018057Y-146700761D01*
X179018057Y-146700761D02*
X179113295Y-146653142D01*
X179113295Y-146653142D02*
X179208533Y-146653142D01*
X179208533Y-146653142D02*
X179351390Y-146700761D01*
X179351390Y-146700761D02*
X179922819Y-147272189D01*
X179922819Y-147272189D02*
X179922819Y-146653142D01*
X178969819Y-95542333D02*
X179684104Y-95542333D01*
X179684104Y-95542333D02*
X179826961Y-95589952D01*
X179826961Y-95589952D02*
X179922200Y-95685190D01*
X179922200Y-95685190D02*
X179969819Y-95828047D01*
X179969819Y-95828047D02*
X179969819Y-95923285D01*
X179303152Y-94637571D02*
X179969819Y-94637571D01*
X178922200Y-94875666D02*
X179636485Y-95113761D01*
X179636485Y-95113761D02*
X179636485Y-94494714D01*
X173107057Y-118530238D02*
X173059438Y-118625476D01*
X173059438Y-118625476D02*
X172964200Y-118720714D01*
X172964200Y-118720714D02*
X172821342Y-118863571D01*
X172821342Y-118863571D02*
X172773723Y-118958809D01*
X172773723Y-118958809D02*
X172773723Y-119054047D01*
X173011819Y-119006428D02*
X172964200Y-119101666D01*
X172964200Y-119101666D02*
X172868961Y-119196904D01*
X172868961Y-119196904D02*
X172678485Y-119244523D01*
X172678485Y-119244523D02*
X172345152Y-119244523D01*
X172345152Y-119244523D02*
X172154676Y-119196904D01*
X172154676Y-119196904D02*
X172059438Y-119101666D01*
X172059438Y-119101666D02*
X172011819Y-119006428D01*
X172011819Y-119006428D02*
X172011819Y-118815952D01*
X172011819Y-118815952D02*
X172059438Y-118720714D01*
X172059438Y-118720714D02*
X172154676Y-118625476D01*
X172154676Y-118625476D02*
X172345152Y-118577857D01*
X172345152Y-118577857D02*
X172678485Y-118577857D01*
X172678485Y-118577857D02*
X172868961Y-118625476D01*
X172868961Y-118625476D02*
X172964200Y-118720714D01*
X172964200Y-118720714D02*
X173011819Y-118815952D01*
X173011819Y-118815952D02*
X173011819Y-119006428D01*
X172011819Y-118244523D02*
X172011819Y-117577857D01*
X172011819Y-117577857D02*
X173011819Y-118006428D01*
X109599057Y-137633428D02*
X109551438Y-137728666D01*
X109551438Y-137728666D02*
X109456200Y-137823904D01*
X109456200Y-137823904D02*
X109313342Y-137966761D01*
X109313342Y-137966761D02*
X109265723Y-138061999D01*
X109265723Y-138061999D02*
X109265723Y-138157237D01*
X109503819Y-138109618D02*
X109456200Y-138204856D01*
X109456200Y-138204856D02*
X109360961Y-138300094D01*
X109360961Y-138300094D02*
X109170485Y-138347713D01*
X109170485Y-138347713D02*
X108837152Y-138347713D01*
X108837152Y-138347713D02*
X108646676Y-138300094D01*
X108646676Y-138300094D02*
X108551438Y-138204856D01*
X108551438Y-138204856D02*
X108503819Y-138109618D01*
X108503819Y-138109618D02*
X108503819Y-137919142D01*
X108503819Y-137919142D02*
X108551438Y-137823904D01*
X108551438Y-137823904D02*
X108646676Y-137728666D01*
X108646676Y-137728666D02*
X108837152Y-137681047D01*
X108837152Y-137681047D02*
X109170485Y-137681047D01*
X109170485Y-137681047D02*
X109360961Y-137728666D01*
X109360961Y-137728666D02*
X109456200Y-137823904D01*
X109456200Y-137823904D02*
X109503819Y-137919142D01*
X109503819Y-137919142D02*
X109503819Y-138109618D01*
X109503819Y-136728666D02*
X109503819Y-137300094D01*
X109503819Y-137014380D02*
X108503819Y-137014380D01*
X108503819Y-137014380D02*
X108646676Y-137109618D01*
X108646676Y-137109618D02*
X108741914Y-137204856D01*
X108741914Y-137204856D02*
X108789533Y-137300094D01*
X108599057Y-136347713D02*
X108551438Y-136300094D01*
X108551438Y-136300094D02*
X108503819Y-136204856D01*
X108503819Y-136204856D02*
X108503819Y-135966761D01*
X108503819Y-135966761D02*
X108551438Y-135871523D01*
X108551438Y-135871523D02*
X108599057Y-135823904D01*
X108599057Y-135823904D02*
X108694295Y-135776285D01*
X108694295Y-135776285D02*
X108789533Y-135776285D01*
X108789533Y-135776285D02*
X108932390Y-135823904D01*
X108932390Y-135823904D02*
X109503819Y-136395332D01*
X109503819Y-136395332D02*
X109503819Y-135776285D01*
X163663333Y-115844819D02*
X163330000Y-115368628D01*
X163091905Y-115844819D02*
X163091905Y-114844819D01*
X163091905Y-114844819D02*
X163472857Y-114844819D01*
X163472857Y-114844819D02*
X163568095Y-114892438D01*
X163568095Y-114892438D02*
X163615714Y-114940057D01*
X163615714Y-114940057D02*
X163663333Y-115035295D01*
X163663333Y-115035295D02*
X163663333Y-115178152D01*
X163663333Y-115178152D02*
X163615714Y-115273390D01*
X163615714Y-115273390D02*
X163568095Y-115321009D01*
X163568095Y-115321009D02*
X163472857Y-115368628D01*
X163472857Y-115368628D02*
X163091905Y-115368628D01*
X164139524Y-115844819D02*
X164330000Y-115844819D01*
X164330000Y-115844819D02*
X164425238Y-115797200D01*
X164425238Y-115797200D02*
X164472857Y-115749580D01*
X164472857Y-115749580D02*
X164568095Y-115606723D01*
X164568095Y-115606723D02*
X164615714Y-115416247D01*
X164615714Y-115416247D02*
X164615714Y-115035295D01*
X164615714Y-115035295D02*
X164568095Y-114940057D01*
X164568095Y-114940057D02*
X164520476Y-114892438D01*
X164520476Y-114892438D02*
X164425238Y-114844819D01*
X164425238Y-114844819D02*
X164234762Y-114844819D01*
X164234762Y-114844819D02*
X164139524Y-114892438D01*
X164139524Y-114892438D02*
X164091905Y-114940057D01*
X164091905Y-114940057D02*
X164044286Y-115035295D01*
X164044286Y-115035295D02*
X164044286Y-115273390D01*
X164044286Y-115273390D02*
X164091905Y-115368628D01*
X164091905Y-115368628D02*
X164139524Y-115416247D01*
X164139524Y-115416247D02*
X164234762Y-115463866D01*
X164234762Y-115463866D02*
X164425238Y-115463866D01*
X164425238Y-115463866D02*
X164520476Y-115416247D01*
X164520476Y-115416247D02*
X164568095Y-115368628D01*
X164568095Y-115368628D02*
X164615714Y-115273390D01*
X162734761Y-121284819D02*
X162163333Y-121284819D01*
X162449047Y-121284819D02*
X162449047Y-120284819D01*
X162449047Y-120284819D02*
X162353809Y-120427676D01*
X162353809Y-120427676D02*
X162258571Y-120522914D01*
X162258571Y-120522914D02*
X162163333Y-120570533D01*
X163353809Y-120284819D02*
X163449047Y-120284819D01*
X163449047Y-120284819D02*
X163544285Y-120332438D01*
X163544285Y-120332438D02*
X163591904Y-120380057D01*
X163591904Y-120380057D02*
X163639523Y-120475295D01*
X163639523Y-120475295D02*
X163687142Y-120665771D01*
X163687142Y-120665771D02*
X163687142Y-120903866D01*
X163687142Y-120903866D02*
X163639523Y-121094342D01*
X163639523Y-121094342D02*
X163591904Y-121189580D01*
X163591904Y-121189580D02*
X163544285Y-121237200D01*
X163544285Y-121237200D02*
X163449047Y-121284819D01*
X163449047Y-121284819D02*
X163353809Y-121284819D01*
X163353809Y-121284819D02*
X163258571Y-121237200D01*
X163258571Y-121237200D02*
X163210952Y-121189580D01*
X163210952Y-121189580D02*
X163163333Y-121094342D01*
X163163333Y-121094342D02*
X163115714Y-120903866D01*
X163115714Y-120903866D02*
X163115714Y-120665771D01*
X163115714Y-120665771D02*
X163163333Y-120475295D01*
X163163333Y-120475295D02*
X163210952Y-120380057D01*
X163210952Y-120380057D02*
X163258571Y-120332438D01*
X163258571Y-120332438D02*
X163353809Y-120284819D01*
X164115714Y-121284819D02*
X164115714Y-120284819D01*
X164210952Y-120903866D02*
X164496666Y-121284819D01*
X164496666Y-120618152D02*
X164115714Y-120999104D01*
X165496666Y-121284819D02*
X165163333Y-120808628D01*
X164925238Y-121284819D02*
X164925238Y-120284819D01*
X164925238Y-120284819D02*
X165306190Y-120284819D01*
X165306190Y-120284819D02*
X165401428Y-120332438D01*
X165401428Y-120332438D02*
X165449047Y-120380057D01*
X165449047Y-120380057D02*
X165496666Y-120475295D01*
X165496666Y-120475295D02*
X165496666Y-120618152D01*
X165496666Y-120618152D02*
X165449047Y-120713390D01*
X165449047Y-120713390D02*
X165401428Y-120761009D01*
X165401428Y-120761009D02*
X165306190Y-120808628D01*
X165306190Y-120808628D02*
X164925238Y-120808628D01*
X173234057Y-162966428D02*
X173186438Y-163061666D01*
X173186438Y-163061666D02*
X173091200Y-163156904D01*
X173091200Y-163156904D02*
X172948342Y-163299761D01*
X172948342Y-163299761D02*
X172900723Y-163394999D01*
X172900723Y-163394999D02*
X172900723Y-163490237D01*
X173138819Y-163442618D02*
X173091200Y-163537856D01*
X173091200Y-163537856D02*
X172995961Y-163633094D01*
X172995961Y-163633094D02*
X172805485Y-163680713D01*
X172805485Y-163680713D02*
X172472152Y-163680713D01*
X172472152Y-163680713D02*
X172281676Y-163633094D01*
X172281676Y-163633094D02*
X172186438Y-163537856D01*
X172186438Y-163537856D02*
X172138819Y-163442618D01*
X172138819Y-163442618D02*
X172138819Y-163252142D01*
X172138819Y-163252142D02*
X172186438Y-163156904D01*
X172186438Y-163156904D02*
X172281676Y-163061666D01*
X172281676Y-163061666D02*
X172472152Y-163014047D01*
X172472152Y-163014047D02*
X172805485Y-163014047D01*
X172805485Y-163014047D02*
X172995961Y-163061666D01*
X172995961Y-163061666D02*
X173091200Y-163156904D01*
X173091200Y-163156904D02*
X173138819Y-163252142D01*
X173138819Y-163252142D02*
X173138819Y-163442618D01*
X173138819Y-162061666D02*
X173138819Y-162633094D01*
X173138819Y-162347380D02*
X172138819Y-162347380D01*
X172138819Y-162347380D02*
X172281676Y-162442618D01*
X172281676Y-162442618D02*
X172376914Y-162537856D01*
X172376914Y-162537856D02*
X172424533Y-162633094D01*
X173138819Y-161109285D02*
X173138819Y-161680713D01*
X173138819Y-161394999D02*
X172138819Y-161394999D01*
X172138819Y-161394999D02*
X172281676Y-161490237D01*
X172281676Y-161490237D02*
X172376914Y-161585475D01*
X172376914Y-161585475D02*
X172424533Y-161680713D01*
X163187142Y-156484819D02*
X162853809Y-156008628D01*
X162615714Y-156484819D02*
X162615714Y-155484819D01*
X162615714Y-155484819D02*
X162996666Y-155484819D01*
X162996666Y-155484819D02*
X163091904Y-155532438D01*
X163091904Y-155532438D02*
X163139523Y-155580057D01*
X163139523Y-155580057D02*
X163187142Y-155675295D01*
X163187142Y-155675295D02*
X163187142Y-155818152D01*
X163187142Y-155818152D02*
X163139523Y-155913390D01*
X163139523Y-155913390D02*
X163091904Y-155961009D01*
X163091904Y-155961009D02*
X162996666Y-156008628D01*
X162996666Y-156008628D02*
X162615714Y-156008628D01*
X164139523Y-156484819D02*
X163568095Y-156484819D01*
X163853809Y-156484819D02*
X163853809Y-155484819D01*
X163853809Y-155484819D02*
X163758571Y-155627676D01*
X163758571Y-155627676D02*
X163663333Y-155722914D01*
X163663333Y-155722914D02*
X163568095Y-155770533D01*
X164472857Y-155484819D02*
X165091904Y-155484819D01*
X165091904Y-155484819D02*
X164758571Y-155865771D01*
X164758571Y-155865771D02*
X164901428Y-155865771D01*
X164901428Y-155865771D02*
X164996666Y-155913390D01*
X164996666Y-155913390D02*
X165044285Y-155961009D01*
X165044285Y-155961009D02*
X165091904Y-156056247D01*
X165091904Y-156056247D02*
X165091904Y-156294342D01*
X165091904Y-156294342D02*
X165044285Y-156389580D01*
X165044285Y-156389580D02*
X164996666Y-156437200D01*
X164996666Y-156437200D02*
X164901428Y-156484819D01*
X164901428Y-156484819D02*
X164615714Y-156484819D01*
X164615714Y-156484819D02*
X164520476Y-156437200D01*
X164520476Y-156437200D02*
X164472857Y-156389580D01*
X162734761Y-161924819D02*
X162163333Y-161924819D01*
X162449047Y-161924819D02*
X162449047Y-160924819D01*
X162449047Y-160924819D02*
X162353809Y-161067676D01*
X162353809Y-161067676D02*
X162258571Y-161162914D01*
X162258571Y-161162914D02*
X162163333Y-161210533D01*
X163353809Y-160924819D02*
X163449047Y-160924819D01*
X163449047Y-160924819D02*
X163544285Y-160972438D01*
X163544285Y-160972438D02*
X163591904Y-161020057D01*
X163591904Y-161020057D02*
X163639523Y-161115295D01*
X163639523Y-161115295D02*
X163687142Y-161305771D01*
X163687142Y-161305771D02*
X163687142Y-161543866D01*
X163687142Y-161543866D02*
X163639523Y-161734342D01*
X163639523Y-161734342D02*
X163591904Y-161829580D01*
X163591904Y-161829580D02*
X163544285Y-161877200D01*
X163544285Y-161877200D02*
X163449047Y-161924819D01*
X163449047Y-161924819D02*
X163353809Y-161924819D01*
X163353809Y-161924819D02*
X163258571Y-161877200D01*
X163258571Y-161877200D02*
X163210952Y-161829580D01*
X163210952Y-161829580D02*
X163163333Y-161734342D01*
X163163333Y-161734342D02*
X163115714Y-161543866D01*
X163115714Y-161543866D02*
X163115714Y-161305771D01*
X163115714Y-161305771D02*
X163163333Y-161115295D01*
X163163333Y-161115295D02*
X163210952Y-161020057D01*
X163210952Y-161020057D02*
X163258571Y-160972438D01*
X163258571Y-160972438D02*
X163353809Y-160924819D01*
X164115714Y-161924819D02*
X164115714Y-160924819D01*
X164210952Y-161543866D02*
X164496666Y-161924819D01*
X164496666Y-161258152D02*
X164115714Y-161639104D01*
X165496666Y-161924819D02*
X165163333Y-161448628D01*
X164925238Y-161924819D02*
X164925238Y-160924819D01*
X164925238Y-160924819D02*
X165306190Y-160924819D01*
X165306190Y-160924819D02*
X165401428Y-160972438D01*
X165401428Y-160972438D02*
X165449047Y-161020057D01*
X165449047Y-161020057D02*
X165496666Y-161115295D01*
X165496666Y-161115295D02*
X165496666Y-161258152D01*
X165496666Y-161258152D02*
X165449047Y-161353390D01*
X165449047Y-161353390D02*
X165401428Y-161401009D01*
X165401428Y-161401009D02*
X165306190Y-161448628D01*
X165306190Y-161448628D02*
X164925238Y-161448628D01*
X101418819Y-138946523D02*
X102133104Y-138946523D01*
X102133104Y-138946523D02*
X102275961Y-138994142D01*
X102275961Y-138994142D02*
X102371200Y-139089380D01*
X102371200Y-139089380D02*
X102418819Y-139232237D01*
X102418819Y-139232237D02*
X102418819Y-139327475D01*
X102418819Y-137946523D02*
X102418819Y-138517951D01*
X102418819Y-138232237D02*
X101418819Y-138232237D01*
X101418819Y-138232237D02*
X101561676Y-138327475D01*
X101561676Y-138327475D02*
X101656914Y-138422713D01*
X101656914Y-138422713D02*
X101704533Y-138517951D01*
X101752152Y-137089380D02*
X102418819Y-137089380D01*
X101371200Y-137327475D02*
X102085485Y-137565570D01*
X102085485Y-137565570D02*
X102085485Y-136946523D01*
X116197142Y-156844819D02*
X115863809Y-156368628D01*
X115625714Y-156844819D02*
X115625714Y-155844819D01*
X115625714Y-155844819D02*
X116006666Y-155844819D01*
X116006666Y-155844819D02*
X116101904Y-155892438D01*
X116101904Y-155892438D02*
X116149523Y-155940057D01*
X116149523Y-155940057D02*
X116197142Y-156035295D01*
X116197142Y-156035295D02*
X116197142Y-156178152D01*
X116197142Y-156178152D02*
X116149523Y-156273390D01*
X116149523Y-156273390D02*
X116101904Y-156321009D01*
X116101904Y-156321009D02*
X116006666Y-156368628D01*
X116006666Y-156368628D02*
X115625714Y-156368628D01*
X117149523Y-156844819D02*
X116578095Y-156844819D01*
X116863809Y-156844819D02*
X116863809Y-155844819D01*
X116863809Y-155844819D02*
X116768571Y-155987676D01*
X116768571Y-155987676D02*
X116673333Y-156082914D01*
X116673333Y-156082914D02*
X116578095Y-156130533D01*
X117720952Y-156273390D02*
X117625714Y-156225771D01*
X117625714Y-156225771D02*
X117578095Y-156178152D01*
X117578095Y-156178152D02*
X117530476Y-156082914D01*
X117530476Y-156082914D02*
X117530476Y-156035295D01*
X117530476Y-156035295D02*
X117578095Y-155940057D01*
X117578095Y-155940057D02*
X117625714Y-155892438D01*
X117625714Y-155892438D02*
X117720952Y-155844819D01*
X117720952Y-155844819D02*
X117911428Y-155844819D01*
X117911428Y-155844819D02*
X118006666Y-155892438D01*
X118006666Y-155892438D02*
X118054285Y-155940057D01*
X118054285Y-155940057D02*
X118101904Y-156035295D01*
X118101904Y-156035295D02*
X118101904Y-156082914D01*
X118101904Y-156082914D02*
X118054285Y-156178152D01*
X118054285Y-156178152D02*
X118006666Y-156225771D01*
X118006666Y-156225771D02*
X117911428Y-156273390D01*
X117911428Y-156273390D02*
X117720952Y-156273390D01*
X117720952Y-156273390D02*
X117625714Y-156321009D01*
X117625714Y-156321009D02*
X117578095Y-156368628D01*
X117578095Y-156368628D02*
X117530476Y-156463866D01*
X117530476Y-156463866D02*
X117530476Y-156654342D01*
X117530476Y-156654342D02*
X117578095Y-156749580D01*
X117578095Y-156749580D02*
X117625714Y-156797200D01*
X117625714Y-156797200D02*
X117720952Y-156844819D01*
X117720952Y-156844819D02*
X117911428Y-156844819D01*
X117911428Y-156844819D02*
X118006666Y-156797200D01*
X118006666Y-156797200D02*
X118054285Y-156749580D01*
X118054285Y-156749580D02*
X118101904Y-156654342D01*
X118101904Y-156654342D02*
X118101904Y-156463866D01*
X118101904Y-156463866D02*
X118054285Y-156368628D01*
X118054285Y-156368628D02*
X118006666Y-156321009D01*
X118006666Y-156321009D02*
X117911428Y-156273390D01*
X115744761Y-151404819D02*
X115173333Y-151404819D01*
X115459047Y-151404819D02*
X115459047Y-150404819D01*
X115459047Y-150404819D02*
X115363809Y-150547676D01*
X115363809Y-150547676D02*
X115268571Y-150642914D01*
X115268571Y-150642914D02*
X115173333Y-150690533D01*
X116363809Y-150404819D02*
X116459047Y-150404819D01*
X116459047Y-150404819D02*
X116554285Y-150452438D01*
X116554285Y-150452438D02*
X116601904Y-150500057D01*
X116601904Y-150500057D02*
X116649523Y-150595295D01*
X116649523Y-150595295D02*
X116697142Y-150785771D01*
X116697142Y-150785771D02*
X116697142Y-151023866D01*
X116697142Y-151023866D02*
X116649523Y-151214342D01*
X116649523Y-151214342D02*
X116601904Y-151309580D01*
X116601904Y-151309580D02*
X116554285Y-151357200D01*
X116554285Y-151357200D02*
X116459047Y-151404819D01*
X116459047Y-151404819D02*
X116363809Y-151404819D01*
X116363809Y-151404819D02*
X116268571Y-151357200D01*
X116268571Y-151357200D02*
X116220952Y-151309580D01*
X116220952Y-151309580D02*
X116173333Y-151214342D01*
X116173333Y-151214342D02*
X116125714Y-151023866D01*
X116125714Y-151023866D02*
X116125714Y-150785771D01*
X116125714Y-150785771D02*
X116173333Y-150595295D01*
X116173333Y-150595295D02*
X116220952Y-150500057D01*
X116220952Y-150500057D02*
X116268571Y-150452438D01*
X116268571Y-150452438D02*
X116363809Y-150404819D01*
X117125714Y-151404819D02*
X117125714Y-150404819D01*
X117220952Y-151023866D02*
X117506666Y-151404819D01*
X117506666Y-150738152D02*
X117125714Y-151119104D01*
X118506666Y-151404819D02*
X118173333Y-150928628D01*
X117935238Y-151404819D02*
X117935238Y-150404819D01*
X117935238Y-150404819D02*
X118316190Y-150404819D01*
X118316190Y-150404819D02*
X118411428Y-150452438D01*
X118411428Y-150452438D02*
X118459047Y-150500057D01*
X118459047Y-150500057D02*
X118506666Y-150595295D01*
X118506666Y-150595295D02*
X118506666Y-150738152D01*
X118506666Y-150738152D02*
X118459047Y-150833390D01*
X118459047Y-150833390D02*
X118411428Y-150881009D01*
X118411428Y-150881009D02*
X118316190Y-150928628D01*
X118316190Y-150928628D02*
X117935238Y-150928628D01*
X156647819Y-60237666D02*
X156171628Y-60570999D01*
X156647819Y-60809094D02*
X155647819Y-60809094D01*
X155647819Y-60809094D02*
X155647819Y-60428142D01*
X155647819Y-60428142D02*
X155695438Y-60332904D01*
X155695438Y-60332904D02*
X155743057Y-60285285D01*
X155743057Y-60285285D02*
X155838295Y-60237666D01*
X155838295Y-60237666D02*
X155981152Y-60237666D01*
X155981152Y-60237666D02*
X156076390Y-60285285D01*
X156076390Y-60285285D02*
X156124009Y-60332904D01*
X156124009Y-60332904D02*
X156171628Y-60428142D01*
X156171628Y-60428142D02*
X156171628Y-60809094D01*
X156647819Y-59285285D02*
X156647819Y-59856713D01*
X156647819Y-59570999D02*
X155647819Y-59570999D01*
X155647819Y-59570999D02*
X155790676Y-59666237D01*
X155790676Y-59666237D02*
X155885914Y-59761475D01*
X155885914Y-59761475D02*
X155933533Y-59856713D01*
X156647819Y-56848238D02*
X156647819Y-57419666D01*
X156647819Y-57133952D02*
X155647819Y-57133952D01*
X155647819Y-57133952D02*
X155790676Y-57229190D01*
X155790676Y-57229190D02*
X155885914Y-57324428D01*
X155885914Y-57324428D02*
X155933533Y-57419666D01*
X155647819Y-56229190D02*
X155647819Y-56133952D01*
X155647819Y-56133952D02*
X155695438Y-56038714D01*
X155695438Y-56038714D02*
X155743057Y-55991095D01*
X155743057Y-55991095D02*
X155838295Y-55943476D01*
X155838295Y-55943476D02*
X156028771Y-55895857D01*
X156028771Y-55895857D02*
X156266866Y-55895857D01*
X156266866Y-55895857D02*
X156457342Y-55943476D01*
X156457342Y-55943476D02*
X156552580Y-55991095D01*
X156552580Y-55991095D02*
X156600200Y-56038714D01*
X156600200Y-56038714D02*
X156647819Y-56133952D01*
X156647819Y-56133952D02*
X156647819Y-56229190D01*
X156647819Y-56229190D02*
X156600200Y-56324428D01*
X156600200Y-56324428D02*
X156552580Y-56372047D01*
X156552580Y-56372047D02*
X156457342Y-56419666D01*
X156457342Y-56419666D02*
X156266866Y-56467285D01*
X156266866Y-56467285D02*
X156028771Y-56467285D01*
X156028771Y-56467285D02*
X155838295Y-56419666D01*
X155838295Y-56419666D02*
X155743057Y-56372047D01*
X155743057Y-56372047D02*
X155695438Y-56324428D01*
X155695438Y-56324428D02*
X155647819Y-56229190D01*
X156647819Y-55467285D02*
X155647819Y-55467285D01*
X156266866Y-55372047D02*
X156647819Y-55086333D01*
X155981152Y-55086333D02*
X156362104Y-55467285D01*
X156647819Y-54086333D02*
X156171628Y-54419666D01*
X156647819Y-54657761D02*
X155647819Y-54657761D01*
X155647819Y-54657761D02*
X155647819Y-54276809D01*
X155647819Y-54276809D02*
X155695438Y-54181571D01*
X155695438Y-54181571D02*
X155743057Y-54133952D01*
X155743057Y-54133952D02*
X155838295Y-54086333D01*
X155838295Y-54086333D02*
X155981152Y-54086333D01*
X155981152Y-54086333D02*
X156076390Y-54133952D01*
X156076390Y-54133952D02*
X156124009Y-54181571D01*
X156124009Y-54181571D02*
X156171628Y-54276809D01*
X156171628Y-54276809D02*
X156171628Y-54657761D01*
X178969819Y-127340523D02*
X179684104Y-127340523D01*
X179684104Y-127340523D02*
X179826961Y-127388142D01*
X179826961Y-127388142D02*
X179922200Y-127483380D01*
X179922200Y-127483380D02*
X179969819Y-127626237D01*
X179969819Y-127626237D02*
X179969819Y-127721475D01*
X179969819Y-126340523D02*
X179969819Y-126911951D01*
X179969819Y-126626237D02*
X178969819Y-126626237D01*
X178969819Y-126626237D02*
X179112676Y-126721475D01*
X179112676Y-126721475D02*
X179207914Y-126816713D01*
X179207914Y-126816713D02*
X179255533Y-126911951D01*
X178969819Y-125721475D02*
X178969819Y-125626237D01*
X178969819Y-125626237D02*
X179017438Y-125530999D01*
X179017438Y-125530999D02*
X179065057Y-125483380D01*
X179065057Y-125483380D02*
X179160295Y-125435761D01*
X179160295Y-125435761D02*
X179350771Y-125388142D01*
X179350771Y-125388142D02*
X179588866Y-125388142D01*
X179588866Y-125388142D02*
X179779342Y-125435761D01*
X179779342Y-125435761D02*
X179874580Y-125483380D01*
X179874580Y-125483380D02*
X179922200Y-125530999D01*
X179922200Y-125530999D02*
X179969819Y-125626237D01*
X179969819Y-125626237D02*
X179969819Y-125721475D01*
X179969819Y-125721475D02*
X179922200Y-125816713D01*
X179922200Y-125816713D02*
X179874580Y-125864332D01*
X179874580Y-125864332D02*
X179779342Y-125911951D01*
X179779342Y-125911951D02*
X179588866Y-125959570D01*
X179588866Y-125959570D02*
X179350771Y-125959570D01*
X179350771Y-125959570D02*
X179160295Y-125911951D01*
X179160295Y-125911951D02*
X179065057Y-125864332D01*
X179065057Y-125864332D02*
X179017438Y-125816713D01*
X179017438Y-125816713D02*
X178969819Y-125721475D01*
X150963524Y-165875619D02*
X151296857Y-166875619D01*
X151296857Y-166875619D02*
X151630190Y-165875619D01*
X152439714Y-166875619D02*
X151963524Y-166875619D01*
X151963524Y-166875619D02*
X151963524Y-165875619D01*
X152773048Y-166351809D02*
X153106381Y-166351809D01*
X153249238Y-166875619D02*
X152773048Y-166875619D01*
X152773048Y-166875619D02*
X152773048Y-165875619D01*
X152773048Y-165875619D02*
X153249238Y-165875619D01*
X153677810Y-166875619D02*
X153677810Y-165875619D01*
X153677810Y-165875619D02*
X153915905Y-165875619D01*
X153915905Y-165875619D02*
X154058762Y-165923238D01*
X154058762Y-165923238D02*
X154154000Y-166018476D01*
X154154000Y-166018476D02*
X154201619Y-166113714D01*
X154201619Y-166113714D02*
X154249238Y-166304190D01*
X154249238Y-166304190D02*
X154249238Y-166447047D01*
X154249238Y-166447047D02*
X154201619Y-166637523D01*
X154201619Y-166637523D02*
X154154000Y-166732761D01*
X154154000Y-166732761D02*
X154058762Y-166828000D01*
X154058762Y-166828000D02*
X153915905Y-166875619D01*
X153915905Y-166875619D02*
X153677810Y-166875619D01*
X152837819Y-60237666D02*
X152361628Y-60570999D01*
X152837819Y-60809094D02*
X151837819Y-60809094D01*
X151837819Y-60809094D02*
X151837819Y-60428142D01*
X151837819Y-60428142D02*
X151885438Y-60332904D01*
X151885438Y-60332904D02*
X151933057Y-60285285D01*
X151933057Y-60285285D02*
X152028295Y-60237666D01*
X152028295Y-60237666D02*
X152171152Y-60237666D01*
X152171152Y-60237666D02*
X152266390Y-60285285D01*
X152266390Y-60285285D02*
X152314009Y-60332904D01*
X152314009Y-60332904D02*
X152361628Y-60428142D01*
X152361628Y-60428142D02*
X152361628Y-60809094D01*
X151933057Y-59856713D02*
X151885438Y-59809094D01*
X151885438Y-59809094D02*
X151837819Y-59713856D01*
X151837819Y-59713856D02*
X151837819Y-59475761D01*
X151837819Y-59475761D02*
X151885438Y-59380523D01*
X151885438Y-59380523D02*
X151933057Y-59332904D01*
X151933057Y-59332904D02*
X152028295Y-59285285D01*
X152028295Y-59285285D02*
X152123533Y-59285285D01*
X152123533Y-59285285D02*
X152266390Y-59332904D01*
X152266390Y-59332904D02*
X152837819Y-59904332D01*
X152837819Y-59904332D02*
X152837819Y-59285285D01*
X151933057Y-57419666D02*
X151885438Y-57372047D01*
X151885438Y-57372047D02*
X151837819Y-57276809D01*
X151837819Y-57276809D02*
X151837819Y-57038714D01*
X151837819Y-57038714D02*
X151885438Y-56943476D01*
X151885438Y-56943476D02*
X151933057Y-56895857D01*
X151933057Y-56895857D02*
X152028295Y-56848238D01*
X152028295Y-56848238D02*
X152123533Y-56848238D01*
X152123533Y-56848238D02*
X152266390Y-56895857D01*
X152266390Y-56895857D02*
X152837819Y-57467285D01*
X152837819Y-57467285D02*
X152837819Y-56848238D01*
X151933057Y-56467285D02*
X151885438Y-56419666D01*
X151885438Y-56419666D02*
X151837819Y-56324428D01*
X151837819Y-56324428D02*
X151837819Y-56086333D01*
X151837819Y-56086333D02*
X151885438Y-55991095D01*
X151885438Y-55991095D02*
X151933057Y-55943476D01*
X151933057Y-55943476D02*
X152028295Y-55895857D01*
X152028295Y-55895857D02*
X152123533Y-55895857D01*
X152123533Y-55895857D02*
X152266390Y-55943476D01*
X152266390Y-55943476D02*
X152837819Y-56514904D01*
X152837819Y-56514904D02*
X152837819Y-55895857D01*
X152837819Y-55467285D02*
X151837819Y-55467285D01*
X152456866Y-55372047D02*
X152837819Y-55086333D01*
X152171152Y-55086333D02*
X152552104Y-55467285D01*
X152837819Y-54086333D02*
X152361628Y-54419666D01*
X152837819Y-54657761D02*
X151837819Y-54657761D01*
X151837819Y-54657761D02*
X151837819Y-54276809D01*
X151837819Y-54276809D02*
X151885438Y-54181571D01*
X151885438Y-54181571D02*
X151933057Y-54133952D01*
X151933057Y-54133952D02*
X152028295Y-54086333D01*
X152028295Y-54086333D02*
X152171152Y-54086333D01*
X152171152Y-54086333D02*
X152266390Y-54133952D01*
X152266390Y-54133952D02*
X152314009Y-54181571D01*
X152314009Y-54181571D02*
X152361628Y-54276809D01*
X152361628Y-54276809D02*
X152361628Y-54657761D01*
X165441333Y-92984819D02*
X165108000Y-92508628D01*
X164869905Y-92984819D02*
X164869905Y-91984819D01*
X164869905Y-91984819D02*
X165250857Y-91984819D01*
X165250857Y-91984819D02*
X165346095Y-92032438D01*
X165346095Y-92032438D02*
X165393714Y-92080057D01*
X165393714Y-92080057D02*
X165441333Y-92175295D01*
X165441333Y-92175295D02*
X165441333Y-92318152D01*
X165441333Y-92318152D02*
X165393714Y-92413390D01*
X165393714Y-92413390D02*
X165346095Y-92461009D01*
X165346095Y-92461009D02*
X165250857Y-92508628D01*
X165250857Y-92508628D02*
X164869905Y-92508628D01*
X166298476Y-92318152D02*
X166298476Y-92984819D01*
X166060381Y-91937200D02*
X165822286Y-92651485D01*
X165822286Y-92651485D02*
X166441333Y-92651485D01*
X164512761Y-98424819D02*
X163941333Y-98424819D01*
X164227047Y-98424819D02*
X164227047Y-97424819D01*
X164227047Y-97424819D02*
X164131809Y-97567676D01*
X164131809Y-97567676D02*
X164036571Y-97662914D01*
X164036571Y-97662914D02*
X163941333Y-97710533D01*
X165131809Y-97424819D02*
X165227047Y-97424819D01*
X165227047Y-97424819D02*
X165322285Y-97472438D01*
X165322285Y-97472438D02*
X165369904Y-97520057D01*
X165369904Y-97520057D02*
X165417523Y-97615295D01*
X165417523Y-97615295D02*
X165465142Y-97805771D01*
X165465142Y-97805771D02*
X165465142Y-98043866D01*
X165465142Y-98043866D02*
X165417523Y-98234342D01*
X165417523Y-98234342D02*
X165369904Y-98329580D01*
X165369904Y-98329580D02*
X165322285Y-98377200D01*
X165322285Y-98377200D02*
X165227047Y-98424819D01*
X165227047Y-98424819D02*
X165131809Y-98424819D01*
X165131809Y-98424819D02*
X165036571Y-98377200D01*
X165036571Y-98377200D02*
X164988952Y-98329580D01*
X164988952Y-98329580D02*
X164941333Y-98234342D01*
X164941333Y-98234342D02*
X164893714Y-98043866D01*
X164893714Y-98043866D02*
X164893714Y-97805771D01*
X164893714Y-97805771D02*
X164941333Y-97615295D01*
X164941333Y-97615295D02*
X164988952Y-97520057D01*
X164988952Y-97520057D02*
X165036571Y-97472438D01*
X165036571Y-97472438D02*
X165131809Y-97424819D01*
X165893714Y-98424819D02*
X165893714Y-97424819D01*
X165988952Y-98043866D02*
X166274666Y-98424819D01*
X166274666Y-97758152D02*
X165893714Y-98139104D01*
X167274666Y-98424819D02*
X166941333Y-97948628D01*
X166703238Y-98424819D02*
X166703238Y-97424819D01*
X166703238Y-97424819D02*
X167084190Y-97424819D01*
X167084190Y-97424819D02*
X167179428Y-97472438D01*
X167179428Y-97472438D02*
X167227047Y-97520057D01*
X167227047Y-97520057D02*
X167274666Y-97615295D01*
X167274666Y-97615295D02*
X167274666Y-97758152D01*
X167274666Y-97758152D02*
X167227047Y-97853390D01*
X167227047Y-97853390D02*
X167179428Y-97901009D01*
X167179428Y-97901009D02*
X167084190Y-97948628D01*
X167084190Y-97948628D02*
X166703238Y-97948628D01*
X164298333Y-71775819D02*
X163965000Y-71299628D01*
X163726905Y-71775819D02*
X163726905Y-70775819D01*
X163726905Y-70775819D02*
X164107857Y-70775819D01*
X164107857Y-70775819D02*
X164203095Y-70823438D01*
X164203095Y-70823438D02*
X164250714Y-70871057D01*
X164250714Y-70871057D02*
X164298333Y-70966295D01*
X164298333Y-70966295D02*
X164298333Y-71109152D01*
X164298333Y-71109152D02*
X164250714Y-71204390D01*
X164250714Y-71204390D02*
X164203095Y-71252009D01*
X164203095Y-71252009D02*
X164107857Y-71299628D01*
X164107857Y-71299628D02*
X163726905Y-71299628D01*
X164631667Y-70775819D02*
X165250714Y-70775819D01*
X165250714Y-70775819D02*
X164917381Y-71156771D01*
X164917381Y-71156771D02*
X165060238Y-71156771D01*
X165060238Y-71156771D02*
X165155476Y-71204390D01*
X165155476Y-71204390D02*
X165203095Y-71252009D01*
X165203095Y-71252009D02*
X165250714Y-71347247D01*
X165250714Y-71347247D02*
X165250714Y-71585342D01*
X165250714Y-71585342D02*
X165203095Y-71680580D01*
X165203095Y-71680580D02*
X165155476Y-71728200D01*
X165155476Y-71728200D02*
X165060238Y-71775819D01*
X165060238Y-71775819D02*
X164774524Y-71775819D01*
X164774524Y-71775819D02*
X164679286Y-71728200D01*
X164679286Y-71728200D02*
X164631667Y-71680580D01*
X163369761Y-77215819D02*
X162798333Y-77215819D01*
X163084047Y-77215819D02*
X163084047Y-76215819D01*
X163084047Y-76215819D02*
X162988809Y-76358676D01*
X162988809Y-76358676D02*
X162893571Y-76453914D01*
X162893571Y-76453914D02*
X162798333Y-76501533D01*
X163988809Y-76215819D02*
X164084047Y-76215819D01*
X164084047Y-76215819D02*
X164179285Y-76263438D01*
X164179285Y-76263438D02*
X164226904Y-76311057D01*
X164226904Y-76311057D02*
X164274523Y-76406295D01*
X164274523Y-76406295D02*
X164322142Y-76596771D01*
X164322142Y-76596771D02*
X164322142Y-76834866D01*
X164322142Y-76834866D02*
X164274523Y-77025342D01*
X164274523Y-77025342D02*
X164226904Y-77120580D01*
X164226904Y-77120580D02*
X164179285Y-77168200D01*
X164179285Y-77168200D02*
X164084047Y-77215819D01*
X164084047Y-77215819D02*
X163988809Y-77215819D01*
X163988809Y-77215819D02*
X163893571Y-77168200D01*
X163893571Y-77168200D02*
X163845952Y-77120580D01*
X163845952Y-77120580D02*
X163798333Y-77025342D01*
X163798333Y-77025342D02*
X163750714Y-76834866D01*
X163750714Y-76834866D02*
X163750714Y-76596771D01*
X163750714Y-76596771D02*
X163798333Y-76406295D01*
X163798333Y-76406295D02*
X163845952Y-76311057D01*
X163845952Y-76311057D02*
X163893571Y-76263438D01*
X163893571Y-76263438D02*
X163988809Y-76215819D01*
X164750714Y-77215819D02*
X164750714Y-76215819D01*
X164845952Y-76834866D02*
X165131666Y-77215819D01*
X165131666Y-76549152D02*
X164750714Y-76930104D01*
X166131666Y-77215819D02*
X165798333Y-76739628D01*
X165560238Y-77215819D02*
X165560238Y-76215819D01*
X165560238Y-76215819D02*
X165941190Y-76215819D01*
X165941190Y-76215819D02*
X166036428Y-76263438D01*
X166036428Y-76263438D02*
X166084047Y-76311057D01*
X166084047Y-76311057D02*
X166131666Y-76406295D01*
X166131666Y-76406295D02*
X166131666Y-76549152D01*
X166131666Y-76549152D02*
X166084047Y-76644390D01*
X166084047Y-76644390D02*
X166036428Y-76692009D01*
X166036428Y-76692009D02*
X165941190Y-76739628D01*
X165941190Y-76739628D02*
X165560238Y-76739628D01*
X178969819Y-160487523D02*
X179684104Y-160487523D01*
X179684104Y-160487523D02*
X179826961Y-160535142D01*
X179826961Y-160535142D02*
X179922200Y-160630380D01*
X179922200Y-160630380D02*
X179969819Y-160773237D01*
X179969819Y-160773237D02*
X179969819Y-160868475D01*
X179969819Y-159487523D02*
X179969819Y-160058951D01*
X179969819Y-159773237D02*
X178969819Y-159773237D01*
X178969819Y-159773237D02*
X179112676Y-159868475D01*
X179112676Y-159868475D02*
X179207914Y-159963713D01*
X179207914Y-159963713D02*
X179255533Y-160058951D01*
X178969819Y-159154189D02*
X178969819Y-158535142D01*
X178969819Y-158535142D02*
X179350771Y-158868475D01*
X179350771Y-158868475D02*
X179350771Y-158725618D01*
X179350771Y-158725618D02*
X179398390Y-158630380D01*
X179398390Y-158630380D02*
X179446009Y-158582761D01*
X179446009Y-158582761D02*
X179541247Y-158535142D01*
X179541247Y-158535142D02*
X179779342Y-158535142D01*
X179779342Y-158535142D02*
X179874580Y-158582761D01*
X179874580Y-158582761D02*
X179922200Y-158630380D01*
X179922200Y-158630380D02*
X179969819Y-158725618D01*
X179969819Y-158725618D02*
X179969819Y-159011332D01*
X179969819Y-159011332D02*
X179922200Y-159106570D01*
X179922200Y-159106570D02*
X179874580Y-159154189D01*
X116197142Y-123824819D02*
X115863809Y-123348628D01*
X115625714Y-123824819D02*
X115625714Y-122824819D01*
X115625714Y-122824819D02*
X116006666Y-122824819D01*
X116006666Y-122824819D02*
X116101904Y-122872438D01*
X116101904Y-122872438D02*
X116149523Y-122920057D01*
X116149523Y-122920057D02*
X116197142Y-123015295D01*
X116197142Y-123015295D02*
X116197142Y-123158152D01*
X116197142Y-123158152D02*
X116149523Y-123253390D01*
X116149523Y-123253390D02*
X116101904Y-123301009D01*
X116101904Y-123301009D02*
X116006666Y-123348628D01*
X116006666Y-123348628D02*
X115625714Y-123348628D01*
X117149523Y-123824819D02*
X116578095Y-123824819D01*
X116863809Y-123824819D02*
X116863809Y-122824819D01*
X116863809Y-122824819D02*
X116768571Y-122967676D01*
X116768571Y-122967676D02*
X116673333Y-123062914D01*
X116673333Y-123062914D02*
X116578095Y-123110533D01*
X118006666Y-122824819D02*
X117816190Y-122824819D01*
X117816190Y-122824819D02*
X117720952Y-122872438D01*
X117720952Y-122872438D02*
X117673333Y-122920057D01*
X117673333Y-122920057D02*
X117578095Y-123062914D01*
X117578095Y-123062914D02*
X117530476Y-123253390D01*
X117530476Y-123253390D02*
X117530476Y-123634342D01*
X117530476Y-123634342D02*
X117578095Y-123729580D01*
X117578095Y-123729580D02*
X117625714Y-123777200D01*
X117625714Y-123777200D02*
X117720952Y-123824819D01*
X117720952Y-123824819D02*
X117911428Y-123824819D01*
X117911428Y-123824819D02*
X118006666Y-123777200D01*
X118006666Y-123777200D02*
X118054285Y-123729580D01*
X118054285Y-123729580D02*
X118101904Y-123634342D01*
X118101904Y-123634342D02*
X118101904Y-123396247D01*
X118101904Y-123396247D02*
X118054285Y-123301009D01*
X118054285Y-123301009D02*
X118006666Y-123253390D01*
X118006666Y-123253390D02*
X117911428Y-123205771D01*
X117911428Y-123205771D02*
X117720952Y-123205771D01*
X117720952Y-123205771D02*
X117625714Y-123253390D01*
X117625714Y-123253390D02*
X117578095Y-123301009D01*
X117578095Y-123301009D02*
X117530476Y-123396247D01*
X115744761Y-118384819D02*
X115173333Y-118384819D01*
X115459047Y-118384819D02*
X115459047Y-117384819D01*
X115459047Y-117384819D02*
X115363809Y-117527676D01*
X115363809Y-117527676D02*
X115268571Y-117622914D01*
X115268571Y-117622914D02*
X115173333Y-117670533D01*
X116363809Y-117384819D02*
X116459047Y-117384819D01*
X116459047Y-117384819D02*
X116554285Y-117432438D01*
X116554285Y-117432438D02*
X116601904Y-117480057D01*
X116601904Y-117480057D02*
X116649523Y-117575295D01*
X116649523Y-117575295D02*
X116697142Y-117765771D01*
X116697142Y-117765771D02*
X116697142Y-118003866D01*
X116697142Y-118003866D02*
X116649523Y-118194342D01*
X116649523Y-118194342D02*
X116601904Y-118289580D01*
X116601904Y-118289580D02*
X116554285Y-118337200D01*
X116554285Y-118337200D02*
X116459047Y-118384819D01*
X116459047Y-118384819D02*
X116363809Y-118384819D01*
X116363809Y-118384819D02*
X116268571Y-118337200D01*
X116268571Y-118337200D02*
X116220952Y-118289580D01*
X116220952Y-118289580D02*
X116173333Y-118194342D01*
X116173333Y-118194342D02*
X116125714Y-118003866D01*
X116125714Y-118003866D02*
X116125714Y-117765771D01*
X116125714Y-117765771D02*
X116173333Y-117575295D01*
X116173333Y-117575295D02*
X116220952Y-117480057D01*
X116220952Y-117480057D02*
X116268571Y-117432438D01*
X116268571Y-117432438D02*
X116363809Y-117384819D01*
X117125714Y-118384819D02*
X117125714Y-117384819D01*
X117220952Y-118003866D02*
X117506666Y-118384819D01*
X117506666Y-117718152D02*
X117125714Y-118099104D01*
X118506666Y-118384819D02*
X118173333Y-117908628D01*
X117935238Y-118384819D02*
X117935238Y-117384819D01*
X117935238Y-117384819D02*
X118316190Y-117384819D01*
X118316190Y-117384819D02*
X118411428Y-117432438D01*
X118411428Y-117432438D02*
X118459047Y-117480057D01*
X118459047Y-117480057D02*
X118506666Y-117575295D01*
X118506666Y-117575295D02*
X118506666Y-117718152D01*
X118506666Y-117718152D02*
X118459047Y-117813390D01*
X118459047Y-117813390D02*
X118411428Y-117861009D01*
X118411428Y-117861009D02*
X118316190Y-117908628D01*
X118316190Y-117908628D02*
X117935238Y-117908628D01*
X94458095Y-40180819D02*
X95029523Y-40180819D01*
X94743809Y-41180819D02*
X94743809Y-40180819D01*
X95362857Y-41180819D02*
X95362857Y-40180819D01*
X95362857Y-40180819D02*
X95743809Y-40180819D01*
X95743809Y-40180819D02*
X95839047Y-40228438D01*
X95839047Y-40228438D02*
X95886666Y-40276057D01*
X95886666Y-40276057D02*
X95934285Y-40371295D01*
X95934285Y-40371295D02*
X95934285Y-40514152D01*
X95934285Y-40514152D02*
X95886666Y-40609390D01*
X95886666Y-40609390D02*
X95839047Y-40657009D01*
X95839047Y-40657009D02*
X95743809Y-40704628D01*
X95743809Y-40704628D02*
X95362857Y-40704628D01*
X96315238Y-40276057D02*
X96362857Y-40228438D01*
X96362857Y-40228438D02*
X96458095Y-40180819D01*
X96458095Y-40180819D02*
X96696190Y-40180819D01*
X96696190Y-40180819D02*
X96791428Y-40228438D01*
X96791428Y-40228438D02*
X96839047Y-40276057D01*
X96839047Y-40276057D02*
X96886666Y-40371295D01*
X96886666Y-40371295D02*
X96886666Y-40466533D01*
X96886666Y-40466533D02*
X96839047Y-40609390D01*
X96839047Y-40609390D02*
X96267619Y-41180819D01*
X96267619Y-41180819D02*
X96886666Y-41180819D01*
X134620095Y-145908038D02*
X134524857Y-145860419D01*
X134524857Y-145860419D02*
X134382000Y-145860419D01*
X134382000Y-145860419D02*
X134239143Y-145908038D01*
X134239143Y-145908038D02*
X134143905Y-146003276D01*
X134143905Y-146003276D02*
X134096286Y-146098514D01*
X134096286Y-146098514D02*
X134048667Y-146288990D01*
X134048667Y-146288990D02*
X134048667Y-146431847D01*
X134048667Y-146431847D02*
X134096286Y-146622323D01*
X134096286Y-146622323D02*
X134143905Y-146717561D01*
X134143905Y-146717561D02*
X134239143Y-146812800D01*
X134239143Y-146812800D02*
X134382000Y-146860419D01*
X134382000Y-146860419D02*
X134477238Y-146860419D01*
X134477238Y-146860419D02*
X134620095Y-146812800D01*
X134620095Y-146812800D02*
X134667714Y-146765180D01*
X134667714Y-146765180D02*
X134667714Y-146431847D01*
X134667714Y-146431847D02*
X134477238Y-146431847D01*
X135096286Y-146860419D02*
X135096286Y-145860419D01*
X135096286Y-145860419D02*
X135667714Y-146860419D01*
X135667714Y-146860419D02*
X135667714Y-145860419D01*
X136143905Y-146860419D02*
X136143905Y-145860419D01*
X136143905Y-145860419D02*
X136382000Y-145860419D01*
X136382000Y-145860419D02*
X136524857Y-145908038D01*
X136524857Y-145908038D02*
X136620095Y-146003276D01*
X136620095Y-146003276D02*
X136667714Y-146098514D01*
X136667714Y-146098514D02*
X136715333Y-146288990D01*
X136715333Y-146288990D02*
X136715333Y-146431847D01*
X136715333Y-146431847D02*
X136667714Y-146622323D01*
X136667714Y-146622323D02*
X136620095Y-146717561D01*
X136620095Y-146717561D02*
X136524857Y-146812800D01*
X136524857Y-146812800D02*
X136382000Y-146860419D01*
X136382000Y-146860419D02*
X136143905Y-146860419D01*
X109759057Y-93148238D02*
X109711438Y-93243476D01*
X109711438Y-93243476D02*
X109616200Y-93338714D01*
X109616200Y-93338714D02*
X109473342Y-93481571D01*
X109473342Y-93481571D02*
X109425723Y-93576809D01*
X109425723Y-93576809D02*
X109425723Y-93672047D01*
X109663819Y-93624428D02*
X109616200Y-93719666D01*
X109616200Y-93719666D02*
X109520961Y-93814904D01*
X109520961Y-93814904D02*
X109330485Y-93862523D01*
X109330485Y-93862523D02*
X108997152Y-93862523D01*
X108997152Y-93862523D02*
X108806676Y-93814904D01*
X108806676Y-93814904D02*
X108711438Y-93719666D01*
X108711438Y-93719666D02*
X108663819Y-93624428D01*
X108663819Y-93624428D02*
X108663819Y-93433952D01*
X108663819Y-93433952D02*
X108711438Y-93338714D01*
X108711438Y-93338714D02*
X108806676Y-93243476D01*
X108806676Y-93243476D02*
X108997152Y-93195857D01*
X108997152Y-93195857D02*
X109330485Y-93195857D01*
X109330485Y-93195857D02*
X109520961Y-93243476D01*
X109520961Y-93243476D02*
X109616200Y-93338714D01*
X109616200Y-93338714D02*
X109663819Y-93433952D01*
X109663819Y-93433952D02*
X109663819Y-93624428D01*
X108997152Y-92338714D02*
X109663819Y-92338714D01*
X108616200Y-92576809D02*
X109330485Y-92814904D01*
X109330485Y-92814904D02*
X109330485Y-92195857D01*
X116197142Y-112394819D02*
X115863809Y-111918628D01*
X115625714Y-112394819D02*
X115625714Y-111394819D01*
X115625714Y-111394819D02*
X116006666Y-111394819D01*
X116006666Y-111394819D02*
X116101904Y-111442438D01*
X116101904Y-111442438D02*
X116149523Y-111490057D01*
X116149523Y-111490057D02*
X116197142Y-111585295D01*
X116197142Y-111585295D02*
X116197142Y-111728152D01*
X116197142Y-111728152D02*
X116149523Y-111823390D01*
X116149523Y-111823390D02*
X116101904Y-111871009D01*
X116101904Y-111871009D02*
X116006666Y-111918628D01*
X116006666Y-111918628D02*
X115625714Y-111918628D01*
X117149523Y-112394819D02*
X116578095Y-112394819D01*
X116863809Y-112394819D02*
X116863809Y-111394819D01*
X116863809Y-111394819D02*
X116768571Y-111537676D01*
X116768571Y-111537676D02*
X116673333Y-111632914D01*
X116673333Y-111632914D02*
X116578095Y-111680533D01*
X117482857Y-111394819D02*
X118149523Y-111394819D01*
X118149523Y-111394819D02*
X117720952Y-112394819D01*
X115744761Y-106954819D02*
X115173333Y-106954819D01*
X115459047Y-106954819D02*
X115459047Y-105954819D01*
X115459047Y-105954819D02*
X115363809Y-106097676D01*
X115363809Y-106097676D02*
X115268571Y-106192914D01*
X115268571Y-106192914D02*
X115173333Y-106240533D01*
X116363809Y-105954819D02*
X116459047Y-105954819D01*
X116459047Y-105954819D02*
X116554285Y-106002438D01*
X116554285Y-106002438D02*
X116601904Y-106050057D01*
X116601904Y-106050057D02*
X116649523Y-106145295D01*
X116649523Y-106145295D02*
X116697142Y-106335771D01*
X116697142Y-106335771D02*
X116697142Y-106573866D01*
X116697142Y-106573866D02*
X116649523Y-106764342D01*
X116649523Y-106764342D02*
X116601904Y-106859580D01*
X116601904Y-106859580D02*
X116554285Y-106907200D01*
X116554285Y-106907200D02*
X116459047Y-106954819D01*
X116459047Y-106954819D02*
X116363809Y-106954819D01*
X116363809Y-106954819D02*
X116268571Y-106907200D01*
X116268571Y-106907200D02*
X116220952Y-106859580D01*
X116220952Y-106859580D02*
X116173333Y-106764342D01*
X116173333Y-106764342D02*
X116125714Y-106573866D01*
X116125714Y-106573866D02*
X116125714Y-106335771D01*
X116125714Y-106335771D02*
X116173333Y-106145295D01*
X116173333Y-106145295D02*
X116220952Y-106050057D01*
X116220952Y-106050057D02*
X116268571Y-106002438D01*
X116268571Y-106002438D02*
X116363809Y-105954819D01*
X117125714Y-106954819D02*
X117125714Y-105954819D01*
X117220952Y-106573866D02*
X117506666Y-106954819D01*
X117506666Y-106288152D02*
X117125714Y-106669104D01*
X118506666Y-106954819D02*
X118173333Y-106478628D01*
X117935238Y-106954819D02*
X117935238Y-105954819D01*
X117935238Y-105954819D02*
X118316190Y-105954819D01*
X118316190Y-105954819D02*
X118411428Y-106002438D01*
X118411428Y-106002438D02*
X118459047Y-106050057D01*
X118459047Y-106050057D02*
X118506666Y-106145295D01*
X118506666Y-106145295D02*
X118506666Y-106288152D01*
X118506666Y-106288152D02*
X118459047Y-106383390D01*
X118459047Y-106383390D02*
X118411428Y-106431009D01*
X118411428Y-106431009D02*
X118316190Y-106478628D01*
X118316190Y-106478628D02*
X117935238Y-106478628D01*
X174170057Y-95864238D02*
X174122438Y-95959476D01*
X174122438Y-95959476D02*
X174027200Y-96054714D01*
X174027200Y-96054714D02*
X173884342Y-96197571D01*
X173884342Y-96197571D02*
X173836723Y-96292809D01*
X173836723Y-96292809D02*
X173836723Y-96388047D01*
X174074819Y-96340428D02*
X174027200Y-96435666D01*
X174027200Y-96435666D02*
X173931961Y-96530904D01*
X173931961Y-96530904D02*
X173741485Y-96578523D01*
X173741485Y-96578523D02*
X173408152Y-96578523D01*
X173408152Y-96578523D02*
X173217676Y-96530904D01*
X173217676Y-96530904D02*
X173122438Y-96435666D01*
X173122438Y-96435666D02*
X173074819Y-96340428D01*
X173074819Y-96340428D02*
X173074819Y-96149952D01*
X173074819Y-96149952D02*
X173122438Y-96054714D01*
X173122438Y-96054714D02*
X173217676Y-95959476D01*
X173217676Y-95959476D02*
X173408152Y-95911857D01*
X173408152Y-95911857D02*
X173741485Y-95911857D01*
X173741485Y-95911857D02*
X173931961Y-95959476D01*
X173931961Y-95959476D02*
X174027200Y-96054714D01*
X174027200Y-96054714D02*
X174074819Y-96149952D01*
X174074819Y-96149952D02*
X174074819Y-96340428D01*
X173170057Y-95530904D02*
X173122438Y-95483285D01*
X173122438Y-95483285D02*
X173074819Y-95388047D01*
X173074819Y-95388047D02*
X173074819Y-95149952D01*
X173074819Y-95149952D02*
X173122438Y-95054714D01*
X173122438Y-95054714D02*
X173170057Y-95007095D01*
X173170057Y-95007095D02*
X173265295Y-94959476D01*
X173265295Y-94959476D02*
X173360533Y-94959476D01*
X173360533Y-94959476D02*
X173503390Y-95007095D01*
X173503390Y-95007095D02*
X174074819Y-95578523D01*
X174074819Y-95578523D02*
X174074819Y-94959476D01*
D13*
%TO.C,U1*%
X120770000Y-39750000D02*
X120770000Y-85530000D01*
X120770000Y-39750000D02*
X123430000Y-39750000D01*
X120770000Y-85530000D02*
X123430000Y-85530000D01*
X122100000Y-37150000D02*
X123430000Y-37150000D01*
X123430000Y-37150000D02*
X123430000Y-38480000D01*
X123430000Y-39750000D02*
X123430000Y-85530000D01*
X146170000Y-39750000D02*
X146170000Y-85530000D01*
X146170000Y-39750000D02*
X148830000Y-39750000D01*
X146170000Y-85530000D02*
X148830000Y-85530000D01*
X147500000Y-37150000D02*
X148830000Y-37150000D01*
X148830000Y-37150000D02*
X148830000Y-38480000D01*
X148830000Y-39750000D02*
X148830000Y-85530000D01*
%TO.C,L16*%
X122240000Y-148402000D02*
X124140000Y-148402000D01*
X122240000Y-150302000D02*
X122240000Y-148402000D01*
X124140000Y-148402000D02*
X124140000Y-150302000D01*
X124140000Y-150302000D02*
X122240000Y-150302000D01*
%TO.C,L15*%
X121478000Y-159324000D02*
X123378000Y-159324000D01*
X121478000Y-161224000D02*
X121478000Y-159324000D01*
X123378000Y-159324000D02*
X123378000Y-161224000D01*
X123378000Y-161224000D02*
X121478000Y-161224000D01*
%TO.C,L14*%
X121478000Y-114874000D02*
X123378000Y-114874000D01*
X121478000Y-116774000D02*
X121478000Y-114874000D01*
X123378000Y-114874000D02*
X123378000Y-116774000D01*
X123378000Y-116774000D02*
X121478000Y-116774000D01*
%TO.C,L13*%
X122240000Y-126050000D02*
X124140000Y-126050000D01*
X122240000Y-127950000D02*
X122240000Y-126050000D01*
X124140000Y-126050000D02*
X124140000Y-127950000D01*
X124140000Y-127950000D02*
X122240000Y-127950000D01*
%TO.C,L12*%
X121478000Y-137480000D02*
X123378000Y-137480000D01*
X121478000Y-139380000D02*
X121478000Y-137480000D01*
X123378000Y-137480000D02*
X123378000Y-139380000D01*
X123378000Y-139380000D02*
X121478000Y-139380000D01*
%TO.C,L11*%
X163896000Y-166436000D02*
X165796000Y-166436000D01*
X163896000Y-168336000D02*
X163896000Y-166436000D01*
X165796000Y-166436000D02*
X165796000Y-168336000D01*
X165796000Y-168336000D02*
X163896000Y-168336000D01*
%TO.C,L10*%
X170246000Y-145608000D02*
X172146000Y-145608000D01*
X170246000Y-147508000D02*
X170246000Y-145608000D01*
X172146000Y-145608000D02*
X172146000Y-147508000D01*
X172146000Y-147508000D02*
X170246000Y-147508000D01*
%TO.C,L9*%
X157292000Y-145608000D02*
X159192000Y-145608000D01*
X157292000Y-147508000D02*
X157292000Y-145608000D01*
X159192000Y-145608000D02*
X159192000Y-147508000D01*
X159192000Y-147508000D02*
X157292000Y-147508000D01*
%TO.C,L8*%
X156784000Y-135194000D02*
X158684000Y-135194000D01*
X156784000Y-137094000D02*
X156784000Y-135194000D01*
X158684000Y-135194000D02*
X158684000Y-137094000D01*
X158684000Y-137094000D02*
X156784000Y-137094000D01*
%TO.C,L7*%
X157546000Y-123510000D02*
X159446000Y-123510000D01*
X157546000Y-125410000D02*
X157546000Y-123510000D01*
X159446000Y-123510000D02*
X159446000Y-125410000D01*
X159446000Y-125410000D02*
X157546000Y-125410000D01*
%TO.C,L6*%
X159324000Y-89982000D02*
X161224000Y-89982000D01*
X159324000Y-91882000D02*
X159324000Y-89982000D01*
X161224000Y-89982000D02*
X161224000Y-91882000D01*
X161224000Y-91882000D02*
X159324000Y-91882000D01*
%TO.C,L5*%
X121224000Y-103698000D02*
X123124000Y-103698000D01*
X121224000Y-105598000D02*
X121224000Y-103698000D01*
X123124000Y-103698000D02*
X123124000Y-105598000D01*
X123124000Y-105598000D02*
X121224000Y-105598000D01*
%TO.C,L4*%
X120716000Y-93030000D02*
X122616000Y-93030000D01*
X120716000Y-94930000D02*
X120716000Y-93030000D01*
X122616000Y-93030000D02*
X122616000Y-94930000D01*
X122616000Y-94930000D02*
X120716000Y-94930000D01*
%TO.C,L3*%
X158562000Y-111826000D02*
X160462000Y-111826000D01*
X158562000Y-113726000D02*
X158562000Y-111826000D01*
X160462000Y-111826000D02*
X160462000Y-113726000D01*
X160462000Y-113726000D02*
X158562000Y-113726000D01*
%TO.C,L2*%
X158308000Y-99888000D02*
X160208000Y-99888000D01*
X158308000Y-101788000D02*
X158308000Y-99888000D01*
X160208000Y-99888000D02*
X160208000Y-101788000D01*
X160208000Y-101788000D02*
X158308000Y-101788000D01*
%TO.C,L1*%
X157546000Y-79568000D02*
X159446000Y-79568000D01*
X157546000Y-81468000D02*
X157546000Y-79568000D01*
X159446000Y-79568000D02*
X159446000Y-81468000D01*
X159446000Y-81468000D02*
X157546000Y-81468000D01*
%TO.C,Q6*%
X174413000Y-79853000D02*
X179033000Y-79853000D01*
X174413000Y-83113000D02*
X175793000Y-83113000D01*
X174413000Y-86813000D02*
X175793000Y-86813000D01*
X174413000Y-90073000D02*
X174413000Y-79853000D01*
X174413000Y-90073000D02*
X179033000Y-90073000D01*
X175793000Y-90073000D02*
X175793000Y-79853000D01*
X179033000Y-90073000D02*
X179033000Y-79853000D01*
%TO.C,J3*%
X180642000Y-71036000D02*
X195382000Y-71036000D01*
X180642000Y-79776000D02*
X180642000Y-71036000D01*
X180642000Y-79776000D02*
X195382000Y-79776000D01*
X195382000Y-76916000D02*
X195382000Y-71036000D01*
X195382000Y-79776000D02*
X195382000Y-77516000D01*
X195992000Y-77656000D02*
X195382000Y-77216000D01*
X195992000Y-76776000D01*
X195992000Y-77656000D01*
G36*
X195992000Y-77656000D02*
G01*
X195382000Y-77216000D01*
X195992000Y-76776000D01*
X195992000Y-77656000D01*
G37*
%TO.C,Q9*%
X173524000Y-135479000D02*
X178144000Y-135479000D01*
X173524000Y-138739000D02*
X174904000Y-138739000D01*
X173524000Y-142439000D02*
X174904000Y-142439000D01*
X173524000Y-145699000D02*
X173524000Y-135479000D01*
X173524000Y-145699000D02*
X178144000Y-145699000D01*
X174904000Y-145699000D02*
X174904000Y-135479000D01*
X178144000Y-145699000D02*
X178144000Y-135479000D01*
%TO.C,J18*%
X86234500Y-143839000D02*
X86234500Y-146099000D01*
X86234500Y-146699000D02*
X86234500Y-152579000D01*
X100974500Y-143839000D02*
X86234500Y-143839000D01*
X100974500Y-143839000D02*
X100974500Y-152579000D01*
X100974500Y-152579000D02*
X86234500Y-152579000D01*
X86234500Y-146399000D02*
X85624500Y-146839000D01*
X85624500Y-145959000D01*
X86234500Y-146399000D01*
G36*
X86234500Y-146399000D02*
G01*
X85624500Y-146839000D01*
X85624500Y-145959000D01*
X86234500Y-146399000D01*
G37*
%TO.C,R5*%
X160933000Y-105791000D02*
X161623000Y-105791000D01*
X171553000Y-105791000D02*
X170863000Y-105791000D01*
X161623000Y-104071000D02*
X170863000Y-104071000D01*
X170863000Y-107511000D01*
X161623000Y-107511000D01*
X161623000Y-104071000D01*
%TO.C,U2*%
X160087000Y-40513000D02*
X160087000Y-68513000D01*
X160087000Y-40513000D02*
X162747000Y-40513000D01*
X160087000Y-68513000D02*
X162747000Y-68513000D01*
X161417000Y-37913000D02*
X162747000Y-37913000D01*
X162747000Y-37913000D02*
X162747000Y-39243000D01*
X162747000Y-40513000D02*
X162747000Y-68513000D01*
X175327000Y-40513000D02*
X175327000Y-68513000D01*
X175327000Y-40513000D02*
X177987000Y-40513000D01*
X175327000Y-68513000D02*
X177987000Y-68513000D01*
X176657000Y-37913000D02*
X177987000Y-37913000D01*
X177987000Y-37913000D02*
X177987000Y-39243000D01*
X177987000Y-40513000D02*
X177987000Y-68513000D01*
%TO.C,R14*%
X111530000Y-132080000D02*
X112220000Y-132080000D01*
X122150000Y-132080000D02*
X121460000Y-132080000D01*
X121460000Y-133800000D02*
X112220000Y-133800000D01*
X112220000Y-130360000D01*
X121460000Y-130360000D01*
X121460000Y-133800000D01*
%TO.C,J15*%
X86304000Y-121448000D02*
X86304000Y-123708000D01*
X86304000Y-124308000D02*
X86304000Y-130188000D01*
X101044000Y-121448000D02*
X86304000Y-121448000D01*
X101044000Y-121448000D02*
X101044000Y-130188000D01*
X101044000Y-130188000D02*
X86304000Y-130188000D01*
X86304000Y-124008000D02*
X85694000Y-124448000D01*
X85694000Y-123568000D01*
X86304000Y-124008000D01*
G36*
X86304000Y-124008000D02*
G01*
X85694000Y-124448000D01*
X85694000Y-123568000D01*
X86304000Y-124008000D01*
G37*
%TO.C,Q13*%
X103716000Y-120738000D02*
X103716000Y-130958000D01*
X106956000Y-120738000D02*
X106956000Y-130958000D01*
X108336000Y-120738000D02*
X103716000Y-120738000D01*
X108336000Y-120738000D02*
X108336000Y-130958000D01*
X108336000Y-123998000D02*
X106956000Y-123998000D01*
X108336000Y-127698000D02*
X106956000Y-127698000D01*
X108336000Y-130958000D02*
X103716000Y-130958000D01*
%TO.C,Q5*%
X103749000Y-98738000D02*
X103749000Y-108958000D01*
X106989000Y-98738000D02*
X106989000Y-108958000D01*
X108369000Y-98738000D02*
X103749000Y-98738000D01*
X108369000Y-98738000D02*
X108369000Y-108958000D01*
X108369000Y-101998000D02*
X106989000Y-101998000D01*
X108369000Y-105698000D02*
X106989000Y-105698000D01*
X108369000Y-108958000D02*
X103749000Y-108958000D01*
%TO.C,TP1*%
X97270000Y-42276000D02*
X99170000Y-42276000D01*
X97270000Y-44176000D02*
X97270000Y-42276000D01*
X99170000Y-42276000D02*
X99170000Y-44176000D01*
X99170000Y-44176000D02*
X97270000Y-44176000D01*
%TO.C,Q3*%
X174413000Y-101726000D02*
X179033000Y-101726000D01*
X174413000Y-104986000D02*
X175793000Y-104986000D01*
X174413000Y-108686000D02*
X175793000Y-108686000D01*
X174413000Y-111946000D02*
X174413000Y-101726000D01*
X174413000Y-111946000D02*
X179033000Y-111946000D01*
X175793000Y-111946000D02*
X175793000Y-101726000D01*
X179033000Y-111946000D02*
X179033000Y-101726000D01*
%TO.C,J6*%
X86304000Y-90023000D02*
X86304000Y-92283000D01*
X86304000Y-92883000D02*
X86304000Y-98763000D01*
X101044000Y-90023000D02*
X86304000Y-90023000D01*
X101044000Y-90023000D02*
X101044000Y-98763000D01*
X101044000Y-98763000D02*
X86304000Y-98763000D01*
X86304000Y-92583000D02*
X85694000Y-93023000D01*
X85694000Y-92143000D01*
X86304000Y-92583000D01*
G36*
X86304000Y-92583000D02*
G01*
X85694000Y-93023000D01*
X85694000Y-92143000D01*
X86304000Y-92583000D01*
G37*
%TO.C,J9*%
X180468000Y-112128000D02*
X195208000Y-112128000D01*
X180468000Y-120868000D02*
X180468000Y-112128000D01*
X180468000Y-120868000D02*
X195208000Y-120868000D01*
X195208000Y-118008000D02*
X195208000Y-112128000D01*
X195208000Y-120868000D02*
X195208000Y-118608000D01*
X195818000Y-118748000D02*
X195208000Y-118308000D01*
X195818000Y-117868000D01*
X195818000Y-118748000D01*
G36*
X195818000Y-118748000D02*
G01*
X195208000Y-118308000D01*
X195818000Y-117868000D01*
X195818000Y-118748000D01*
G37*
%TO.C,R6*%
X111022000Y-88265000D02*
X111712000Y-88265000D01*
X121642000Y-88265000D02*
X120952000Y-88265000D01*
X120952000Y-89985000D02*
X111712000Y-89985000D01*
X111712000Y-86545000D01*
X120952000Y-86545000D01*
X120952000Y-89985000D01*
%TO.C,J17*%
X86177000Y-155103000D02*
X86177000Y-157363000D01*
X86177000Y-157963000D02*
X86177000Y-163843000D01*
X100917000Y-155103000D02*
X86177000Y-155103000D01*
X100917000Y-155103000D02*
X100917000Y-163843000D01*
X100917000Y-163843000D02*
X86177000Y-163843000D01*
X86177000Y-157663000D02*
X85567000Y-158103000D01*
X85567000Y-157223000D01*
X86177000Y-157663000D01*
G36*
X86177000Y-157663000D02*
G01*
X85567000Y-158103000D01*
X85567000Y-157223000D01*
X86177000Y-157663000D01*
G37*
%TO.C,J16*%
X86351000Y-110526000D02*
X86351000Y-112786000D01*
X86351000Y-113386000D02*
X86351000Y-119266000D01*
X101091000Y-110526000D02*
X86351000Y-110526000D01*
X101091000Y-110526000D02*
X101091000Y-119266000D01*
X101091000Y-119266000D02*
X86351000Y-119266000D01*
X86351000Y-113086000D02*
X85741000Y-113526000D01*
X85741000Y-112646000D01*
X86351000Y-113086000D01*
G36*
X86351000Y-113086000D02*
G01*
X85741000Y-113526000D01*
X85741000Y-112646000D01*
X86351000Y-113086000D01*
G37*
%TO.C,R10*%
X158520000Y-129540000D02*
X159210000Y-129540000D01*
X169140000Y-129540000D02*
X168450000Y-129540000D01*
X159210000Y-127820000D02*
X168450000Y-127820000D01*
X168450000Y-131260000D01*
X159210000Y-131260000D01*
X159210000Y-127820000D01*
%TO.C,R11*%
X158520000Y-140970000D02*
X159210000Y-140970000D01*
X169140000Y-140970000D02*
X168450000Y-140970000D01*
X159210000Y-139250000D02*
X168450000Y-139250000D01*
X168450000Y-142690000D01*
X159210000Y-142690000D01*
X159210000Y-139250000D01*
%TO.C,J1*%
X87626000Y-39316000D02*
X89326000Y-39316000D01*
X87626000Y-48656000D02*
X89326000Y-48656000D01*
%TO.C,Q1*%
X174413000Y-69185000D02*
X179033000Y-69185000D01*
X174413000Y-72445000D02*
X175793000Y-72445000D01*
X174413000Y-76145000D02*
X175793000Y-76145000D01*
X174413000Y-79405000D02*
X174413000Y-69185000D01*
X174413000Y-79405000D02*
X179033000Y-79405000D01*
X175793000Y-79405000D02*
X175793000Y-69185000D01*
X179033000Y-79405000D02*
X179033000Y-69185000D01*
%TO.C,J11*%
X180515000Y-133012000D02*
X195255000Y-133012000D01*
X180515000Y-141752000D02*
X180515000Y-133012000D01*
X180515000Y-141752000D02*
X195255000Y-141752000D01*
X195255000Y-138892000D02*
X195255000Y-133012000D01*
X195255000Y-141752000D02*
X195255000Y-139492000D01*
X195865000Y-139632000D02*
X195255000Y-139192000D01*
X195865000Y-138752000D01*
X195865000Y-139632000D01*
G36*
X195865000Y-139632000D02*
G01*
X195255000Y-139192000D01*
X195865000Y-138752000D01*
X195865000Y-139632000D01*
G37*
%TO.C,R8*%
X161060000Y-85090000D02*
X161750000Y-85090000D01*
X171680000Y-85090000D02*
X170990000Y-85090000D01*
X161750000Y-83370000D02*
X170990000Y-83370000D01*
X170990000Y-86810000D01*
X161750000Y-86810000D01*
X161750000Y-83370000D01*
%TO.C,Q15*%
X103669000Y-154529000D02*
X103669000Y-164749000D01*
X106909000Y-154529000D02*
X106909000Y-164749000D01*
X108289000Y-154529000D02*
X103669000Y-154529000D01*
X108289000Y-154529000D02*
X108289000Y-164749000D01*
X108289000Y-157789000D02*
X106909000Y-157789000D01*
X108289000Y-161489000D02*
X106909000Y-161489000D01*
X108289000Y-164749000D02*
X103669000Y-164749000D01*
%TO.C,F1*%
X125340000Y-154112000D02*
X131340000Y-154112000D01*
X125340000Y-174112000D02*
X125340000Y-154112000D01*
X131340000Y-154112000D02*
X131340000Y-158702000D01*
X131340000Y-160322000D02*
X131340000Y-167892000D01*
X131340000Y-169532000D02*
X131340000Y-174112000D01*
X131340000Y-174112000D02*
X125340000Y-174112000D01*
%TO.C,J5*%
X180468000Y-102151000D02*
X195208000Y-102151000D01*
X180468000Y-110891000D02*
X180468000Y-102151000D01*
X180468000Y-110891000D02*
X195208000Y-110891000D01*
X195208000Y-108031000D02*
X195208000Y-102151000D01*
X195208000Y-110891000D02*
X195208000Y-108631000D01*
X195818000Y-108771000D02*
X195208000Y-108331000D01*
X195818000Y-107891000D01*
X195818000Y-108771000D01*
G36*
X195818000Y-108771000D02*
G01*
X195208000Y-108331000D01*
X195818000Y-107891000D01*
X195818000Y-108771000D01*
G37*
%TO.C,Q14*%
X103658500Y-109730000D02*
X103658500Y-119950000D01*
X106898500Y-109730000D02*
X106898500Y-119950000D01*
X108278500Y-109730000D02*
X103658500Y-109730000D01*
X108278500Y-109730000D02*
X108278500Y-119950000D01*
X108278500Y-112990000D02*
X106898500Y-112990000D01*
X108278500Y-116690000D02*
X106898500Y-116690000D01*
X108278500Y-119950000D02*
X103658500Y-119950000D01*
%TO.C,R7*%
X110895000Y-98679000D02*
X111585000Y-98679000D01*
X121515000Y-98679000D02*
X120825000Y-98679000D01*
X120825000Y-100399000D02*
X111585000Y-100399000D01*
X111585000Y-96959000D01*
X120825000Y-96959000D01*
X120825000Y-100399000D01*
%TO.C,R15*%
X111530000Y-143510000D02*
X112220000Y-143510000D01*
X122150000Y-143510000D02*
X121460000Y-143510000D01*
X121460000Y-145230000D02*
X112220000Y-145230000D01*
X112220000Y-141790000D01*
X121460000Y-141790000D01*
X121460000Y-145230000D01*
%TO.C,Q16*%
X103669000Y-143226000D02*
X103669000Y-153446000D01*
X106909000Y-143226000D02*
X106909000Y-153446000D01*
X108289000Y-143226000D02*
X103669000Y-143226000D01*
X108289000Y-143226000D02*
X108289000Y-153446000D01*
X108289000Y-146486000D02*
X106909000Y-146486000D01*
X108289000Y-150186000D02*
X106909000Y-150186000D01*
X108289000Y-153446000D02*
X103669000Y-153446000D01*
%TO.C,J7*%
X86304000Y-100573000D02*
X86304000Y-102833000D01*
X86304000Y-103433000D02*
X86304000Y-109313000D01*
X101044000Y-100573000D02*
X86304000Y-100573000D01*
X101044000Y-100573000D02*
X101044000Y-109313000D01*
X101044000Y-109313000D02*
X86304000Y-109313000D01*
X86304000Y-103133000D02*
X85694000Y-103573000D01*
X85694000Y-102693000D01*
X86304000Y-103133000D01*
G36*
X86304000Y-103133000D02*
G01*
X85694000Y-103573000D01*
X85694000Y-102693000D01*
X86304000Y-103133000D01*
G37*
%TO.C,Q10*%
X173524000Y-146274000D02*
X178144000Y-146274000D01*
X173524000Y-149534000D02*
X174904000Y-149534000D01*
X173524000Y-153234000D02*
X174904000Y-153234000D01*
X173524000Y-156494000D02*
X173524000Y-146274000D01*
X173524000Y-156494000D02*
X178144000Y-156494000D01*
X174904000Y-156494000D02*
X174904000Y-146274000D01*
X178144000Y-156494000D02*
X178144000Y-146274000D01*
%TO.C,J8*%
X180515000Y-80942000D02*
X195255000Y-80942000D01*
X180515000Y-89682000D02*
X180515000Y-80942000D01*
X180515000Y-89682000D02*
X195255000Y-89682000D01*
X195255000Y-86822000D02*
X195255000Y-80942000D01*
X195255000Y-89682000D02*
X195255000Y-87422000D01*
X195865000Y-87562000D02*
X195255000Y-87122000D01*
X195865000Y-86682000D01*
X195865000Y-87562000D01*
G36*
X195865000Y-87562000D02*
G01*
X195255000Y-87122000D01*
X195865000Y-86682000D01*
X195865000Y-87562000D01*
G37*
%TO.C,R12*%
X158520000Y-151130000D02*
X159210000Y-151130000D01*
X169140000Y-151130000D02*
X168450000Y-151130000D01*
X159210000Y-149410000D02*
X168450000Y-149410000D01*
X168450000Y-152850000D01*
X159210000Y-152850000D01*
X159210000Y-149410000D01*
D14*
%TO.C,J2*%
X131954000Y-150410000D02*
X149804000Y-150410000D01*
X131954000Y-171410000D02*
X131954000Y-150410000D01*
X149804000Y-150410000D02*
X149804000Y-171410000D01*
X149804000Y-171410000D02*
X131954000Y-171410000D01*
D15*
X138904000Y-149910000D02*
G75*
G02*
X138704000Y-149910000I-100000J0D01*
G01*
X138704000Y-149910000D02*
G75*
G02*
X138904000Y-149910000I100000J0D01*
G01*
D13*
%TO.C,Q8*%
X173444000Y-124938000D02*
X178064000Y-124938000D01*
X173444000Y-128198000D02*
X174824000Y-128198000D01*
X173444000Y-131898000D02*
X174824000Y-131898000D01*
X173444000Y-135158000D02*
X173444000Y-124938000D01*
X173444000Y-135158000D02*
X178064000Y-135158000D01*
X174824000Y-135158000D02*
X174824000Y-124938000D01*
X178064000Y-135158000D02*
X178064000Y-124938000D01*
%TO.C,J12*%
X180468000Y-143426000D02*
X195208000Y-143426000D01*
X180468000Y-152166000D02*
X180468000Y-143426000D01*
X180468000Y-152166000D02*
X195208000Y-152166000D01*
X195208000Y-149306000D02*
X195208000Y-143426000D01*
X195208000Y-152166000D02*
X195208000Y-149906000D01*
X195818000Y-150046000D02*
X195208000Y-149606000D01*
X195818000Y-149166000D01*
X195818000Y-150046000D01*
G36*
X195818000Y-150046000D02*
G01*
X195208000Y-149606000D01*
X195818000Y-149166000D01*
X195818000Y-150046000D01*
G37*
%TO.C,J4*%
X180515000Y-90839000D02*
X195255000Y-90839000D01*
X180515000Y-99579000D02*
X180515000Y-90839000D01*
X180515000Y-99579000D02*
X195255000Y-99579000D01*
X195255000Y-96719000D02*
X195255000Y-90839000D01*
X195255000Y-99579000D02*
X195255000Y-97319000D01*
X195865000Y-97459000D02*
X195255000Y-97019000D01*
X195865000Y-96579000D01*
X195865000Y-97459000D01*
G36*
X195865000Y-97459000D02*
G01*
X195255000Y-97019000D01*
X195865000Y-96579000D01*
X195865000Y-97459000D01*
G37*
%TO.C,Q7*%
X173397000Y-113325000D02*
X178017000Y-113325000D01*
X173397000Y-116585000D02*
X174777000Y-116585000D01*
X173397000Y-120285000D02*
X174777000Y-120285000D01*
X173397000Y-123545000D02*
X173397000Y-113325000D01*
X173397000Y-123545000D02*
X178017000Y-123545000D01*
X174777000Y-123545000D02*
X174777000Y-113325000D01*
X178017000Y-123545000D02*
X178017000Y-113325000D01*
%TO.C,Q12*%
X103589000Y-131952000D02*
X103589000Y-142172000D01*
X106829000Y-131952000D02*
X106829000Y-142172000D01*
X108209000Y-131952000D02*
X103589000Y-131952000D01*
X108209000Y-131952000D02*
X108209000Y-142172000D01*
X108209000Y-135212000D02*
X106829000Y-135212000D01*
X108209000Y-138912000D02*
X106829000Y-138912000D01*
X108209000Y-142172000D02*
X103589000Y-142172000D01*
%TO.C,R9*%
X158520000Y-118110000D02*
X159210000Y-118110000D01*
X169140000Y-118110000D02*
X168450000Y-118110000D01*
X159210000Y-116390000D02*
X168450000Y-116390000D01*
X168450000Y-119830000D01*
X159210000Y-119830000D01*
X159210000Y-116390000D01*
%TO.C,Q11*%
X173524000Y-157285000D02*
X178144000Y-157285000D01*
X173524000Y-160545000D02*
X174904000Y-160545000D01*
X173524000Y-164245000D02*
X174904000Y-164245000D01*
X173524000Y-167505000D02*
X173524000Y-157285000D01*
X173524000Y-167505000D02*
X178144000Y-167505000D01*
X174904000Y-167505000D02*
X174904000Y-157285000D01*
X178144000Y-167505000D02*
X178144000Y-157285000D01*
%TO.C,R13*%
X158520000Y-158750000D02*
X159210000Y-158750000D01*
X169140000Y-158750000D02*
X168450000Y-158750000D01*
X159210000Y-157030000D02*
X168450000Y-157030000D01*
X168450000Y-160470000D01*
X159210000Y-160470000D01*
X159210000Y-157030000D01*
%TO.C,J14*%
X86224000Y-133767000D02*
X86224000Y-136027000D01*
X86224000Y-136627000D02*
X86224000Y-142507000D01*
X100964000Y-133767000D02*
X86224000Y-133767000D01*
X100964000Y-133767000D02*
X100964000Y-142507000D01*
X100964000Y-142507000D02*
X86224000Y-142507000D01*
X86224000Y-136327000D02*
X85614000Y-136767000D01*
X85614000Y-135887000D01*
X86224000Y-136327000D01*
G36*
X86224000Y-136327000D02*
G01*
X85614000Y-136767000D01*
X85614000Y-135887000D01*
X86224000Y-136327000D01*
G37*
%TO.C,R18*%
X111530000Y-153670000D02*
X112220000Y-153670000D01*
X122150000Y-153670000D02*
X121460000Y-153670000D01*
X121460000Y-155390000D02*
X112220000Y-155390000D01*
X112220000Y-151950000D01*
X121460000Y-151950000D01*
X121460000Y-155390000D01*
%TO.C,R1*%
X156193000Y-52094000D02*
X156193000Y-52784000D01*
X156193000Y-62714000D02*
X156193000Y-62024000D01*
X154473000Y-62024000D02*
X157913000Y-62024000D01*
X157913000Y-52784000D01*
X154473000Y-52784000D01*
X154473000Y-62024000D01*
%TO.C,J10*%
X180515000Y-122161000D02*
X195255000Y-122161000D01*
X180515000Y-130901000D02*
X180515000Y-122161000D01*
X180515000Y-130901000D02*
X195255000Y-130901000D01*
X195255000Y-128041000D02*
X195255000Y-122161000D01*
X195255000Y-130901000D02*
X195255000Y-128641000D01*
X195865000Y-128781000D02*
X195255000Y-128341000D01*
X195865000Y-127901000D01*
X195865000Y-128781000D01*
G36*
X195865000Y-128781000D02*
G01*
X195255000Y-128341000D01*
X195865000Y-127901000D01*
X195865000Y-128781000D01*
G37*
%TO.C,VLED*%
X151704000Y-163261000D02*
X153604000Y-163261000D01*
X151704000Y-165161000D02*
X151704000Y-163261000D01*
X153604000Y-163261000D02*
X153604000Y-165161000D01*
X153604000Y-165161000D02*
X151704000Y-165161000D01*
%TO.C,R2*%
X152383000Y-52094000D02*
X152383000Y-52784000D01*
X152383000Y-62714000D02*
X152383000Y-62024000D01*
X150663000Y-62024000D02*
X154103000Y-62024000D01*
X154103000Y-52784000D01*
X150663000Y-52784000D01*
X150663000Y-62024000D01*
%TO.C,R4*%
X160298000Y-95250000D02*
X160988000Y-95250000D01*
X170918000Y-95250000D02*
X170228000Y-95250000D01*
X160988000Y-93530000D02*
X170228000Y-93530000D01*
X170228000Y-96970000D01*
X160988000Y-96970000D01*
X160988000Y-93530000D01*
%TO.C,R3*%
X159155000Y-74041000D02*
X159845000Y-74041000D01*
X169775000Y-74041000D02*
X169085000Y-74041000D01*
X159845000Y-72321000D02*
X169085000Y-72321000D01*
X169085000Y-75761000D01*
X159845000Y-75761000D01*
X159845000Y-72321000D01*
%TO.C,J13*%
X180515000Y-155308000D02*
X195255000Y-155308000D01*
X180515000Y-164048000D02*
X180515000Y-155308000D01*
X180515000Y-164048000D02*
X195255000Y-164048000D01*
X195255000Y-161188000D02*
X195255000Y-155308000D01*
X195255000Y-164048000D02*
X195255000Y-161788000D01*
X195865000Y-161928000D02*
X195255000Y-161488000D01*
X195865000Y-161048000D01*
X195865000Y-161928000D01*
G36*
X195865000Y-161928000D02*
G01*
X195255000Y-161488000D01*
X195865000Y-161048000D01*
X195865000Y-161928000D01*
G37*
%TO.C,R16*%
X111530000Y-120650000D02*
X112220000Y-120650000D01*
X122150000Y-120650000D02*
X121460000Y-120650000D01*
X121460000Y-122370000D02*
X112220000Y-122370000D01*
X112220000Y-118930000D01*
X121460000Y-118930000D01*
X121460000Y-122370000D01*
%TO.C,TP2*%
X97270000Y-39776000D02*
X99170000Y-39776000D01*
X97270000Y-41676000D02*
X97270000Y-39776000D01*
X99170000Y-39776000D02*
X99170000Y-41676000D01*
X99170000Y-41676000D02*
X97270000Y-41676000D01*
%TO.C,GND*%
X137226000Y-145354000D02*
X139126000Y-145354000D01*
X137226000Y-147254000D02*
X137226000Y-145354000D01*
X139126000Y-145354000D02*
X139126000Y-147254000D01*
X139126000Y-147254000D02*
X137226000Y-147254000D01*
%TO.C,Q4*%
X103749000Y-87943000D02*
X103749000Y-98163000D01*
X106989000Y-87943000D02*
X106989000Y-98163000D01*
X108369000Y-87943000D02*
X103749000Y-87943000D01*
X108369000Y-87943000D02*
X108369000Y-98163000D01*
X108369000Y-91203000D02*
X106989000Y-91203000D01*
X108369000Y-94903000D02*
X106989000Y-94903000D01*
X108369000Y-98163000D02*
X103749000Y-98163000D01*
%TO.C,R17*%
X111530000Y-109220000D02*
X112220000Y-109220000D01*
X122150000Y-109220000D02*
X121460000Y-109220000D01*
X121460000Y-110940000D02*
X112220000Y-110940000D01*
X112220000Y-107500000D01*
X121460000Y-107500000D01*
X121460000Y-110940000D01*
%TO.C,Q2*%
X174460000Y-90659000D02*
X179080000Y-90659000D01*
X174460000Y-93919000D02*
X175840000Y-93919000D01*
X174460000Y-97619000D02*
X175840000Y-97619000D01*
X174460000Y-100879000D02*
X174460000Y-90659000D01*
X174460000Y-100879000D02*
X179080000Y-100879000D01*
X175840000Y-100879000D02*
X175840000Y-90659000D01*
X179080000Y-100879000D02*
X179080000Y-90659000D01*
%TD*%
M02*
