M48
; DRILL file {KiCad 9.0.2} date 2025-06-09T13:52:10+0800
; FORMAT={-:-/ absolute / metric / decimal}
; #@! TF.CreationDate,2025-06-09T13:52:10+08:00
; #@! TF.GenerationSoftware,Kicad,Pcbnew,9.0.2
; #@! TF.FileFunction,Plated,1,2,PTH
FMAT,2
METRIC
; #@! TA.AperFunction,Plated,PTH,ViaDrill
T1C0.300
; #@! TA.AperFunction,Plated,PTH,ComponentDrill
T2C0.600
; #@! TA.AperFunction,Plated,PTH,ComponentDrill
T3C0.800
; #@! TA.AperFunction,Plated,PTH,ComponentDrill
T4C1.000
; #@! TA.AperFunction,Plated,PTH,ComponentDrill
T5C1.100
; #@! TA.AperFunction,Plated,PTH,ComponentDrill
T6C1.200
; #@! TA.AperFunction,Plated,PTH,ComponentDrill
T7C2.000
; #@! TA.AperFunction,Plated,PTH,ComponentDrill
T8C2.200
%
G90
G05
T1
X88.9Y-50.8
X88.9Y-57.15
X88.9Y-63.5
X88.9Y-69.85
X88.9Y-76.2
X88.9Y-82.55
X95.25Y-50.8
X95.25Y-57.15
X95.25Y-63.5
X95.25Y-69.85
X95.25Y-76.2
X95.25Y-82.55
X101.6Y-44.45
X101.6Y-50.8
X101.6Y-57.15
X101.6Y-69.85
X101.6Y-76.2
X101.6Y-82.55
X107.188Y-163.576
X107.696Y-160.528
X107.95Y-44.45
X107.95Y-50.8
X107.95Y-57.15
X107.95Y-63.5
X107.95Y-76.2
X107.95Y-82.55
X111.76Y-93.98
X111.76Y-104.14
X111.76Y-116.84
X111.76Y-127.0
X111.76Y-139.7
X111.76Y-149.86
X114.3Y-44.45
X114.3Y-50.8
X114.3Y-57.15
X114.3Y-63.5
X114.3Y-69.85
X114.3Y-82.55
X114.3Y-88.9
X116.84Y-93.98
X116.84Y-104.14
X116.84Y-116.84
X119.38Y-127.0
X119.38Y-139.7
X119.38Y-149.86
X127.0Y-38.608
X127.0Y-44.45
X127.0Y-50.8
X133.096Y-38.608
X133.35Y-44.45
X133.35Y-50.8
X133.35Y-57.15
X133.35Y-63.5
X133.35Y-69.85
X133.35Y-76.2
X133.35Y-82.55
X133.35Y-88.9
X133.35Y-95.25
X133.35Y-101.6
X133.35Y-107.95
X133.35Y-114.3
X133.35Y-120.65
X133.35Y-127.0
X133.35Y-133.35
X139.7Y-38.608
X139.7Y-44.45
X139.7Y-50.8
X139.7Y-57.15
X139.7Y-63.5
X139.7Y-69.85
X139.7Y-76.2
X139.7Y-82.55
X139.7Y-88.9
X139.7Y-95.25
X139.7Y-101.6
X139.7Y-107.95
X139.7Y-114.3
X139.7Y-120.65
X139.7Y-127.0
X139.7Y-133.35
X141.097Y-146.304
X149.86Y-38.1
X152.4Y-44.45
X152.4Y-57.15
X152.4Y-69.85
X158.75Y-57.15
X158.75Y-69.85
X162.56Y-101.6
X162.56Y-114.3
X162.56Y-127.0
X162.56Y-137.16
X162.56Y-149.86
X165.1Y-44.45
X165.1Y-50.8
X165.1Y-57.15
X165.1Y-63.5
X165.1Y-69.85
X165.1Y-82.55
X165.1Y-91.44
X165.1Y-147.32
X165.1Y-157.48
X167.64Y-38.1
X167.64Y-162.56
X170.18Y-91.44
X170.18Y-101.6
X170.18Y-124.46
X170.18Y-137.16
X171.45Y-44.45
X171.45Y-50.8
X171.45Y-57.15
X171.45Y-63.5
X171.45Y-69.85
X171.45Y-81.28
X172.72Y-114.3
X184.15Y-44.45
X184.15Y-57.15
X184.15Y-63.5
X190.5Y-57.15
X190.5Y-63.5
X193.04Y-40.64
T3
X109.855Y-98.679
X109.982Y-88.265
X110.49Y-109.22
X110.49Y-120.65
X110.49Y-132.08
X110.49Y-143.51
X110.49Y-153.67
X122.555Y-98.679
X122.682Y-88.265
X123.19Y-109.22
X123.19Y-120.65
X123.19Y-132.08
X123.19Y-143.51
X123.19Y-153.67
X152.383Y-51.054
X152.383Y-63.754
X156.193Y-51.054
X156.193Y-63.754
X157.48Y-118.11
X157.48Y-129.54
X157.48Y-140.97
X157.48Y-151.13
X157.48Y-158.75
X158.115Y-74.041
X159.258Y-95.25
X159.893Y-105.791
X160.02Y-85.09
X170.18Y-118.11
X170.18Y-129.54
X170.18Y-140.97
X170.18Y-151.13
X170.18Y-158.75
X170.815Y-74.041
X171.958Y-95.25
X172.593Y-105.791
X172.72Y-85.09
T4
X122.1Y-38.48
X122.1Y-41.02
X122.1Y-43.56
X122.1Y-46.1
X122.1Y-48.64
X122.1Y-51.18
X122.1Y-53.72
X122.1Y-56.26
X122.1Y-58.8
X122.1Y-61.34
X122.1Y-63.88
X122.1Y-66.42
X122.1Y-68.96
X122.1Y-71.5
X122.1Y-74.04
X122.1Y-76.58
X122.1Y-79.12
X122.1Y-81.66
X122.1Y-84.2
X147.5Y-38.48
X147.5Y-41.02
X147.5Y-43.56
X147.5Y-46.1
X147.5Y-48.64
X147.5Y-51.18
X147.5Y-53.72
X147.5Y-56.26
X147.5Y-58.8
X147.5Y-61.34
X147.5Y-63.88
X147.5Y-66.42
X147.5Y-68.96
X147.5Y-71.5
X147.5Y-74.04
X147.5Y-76.58
X147.5Y-79.12
X147.5Y-81.66
X147.5Y-84.2
X161.417Y-39.243
X161.417Y-41.783
X161.417Y-44.323
X161.417Y-46.863
X161.417Y-49.403
X161.417Y-51.943
X161.417Y-54.483
X161.417Y-57.023
X161.417Y-59.563
X161.417Y-62.103
X161.417Y-64.643
X161.417Y-67.183
X176.657Y-39.243
X176.657Y-41.783
X176.657Y-44.323
X176.657Y-46.863
X176.657Y-49.403
X176.657Y-51.943
X176.657Y-54.483
X176.657Y-57.023
X176.657Y-59.563
X176.657Y-62.103
X176.657Y-64.643
X176.657Y-67.183
T5
X104.949Y-134.522
X104.949Y-137.062
X104.949Y-139.602
X105.018Y-112.3
X105.018Y-114.84
X105.018Y-117.38
X105.029Y-145.796
X105.029Y-148.336
X105.029Y-150.876
X105.029Y-157.099
X105.029Y-159.639
X105.029Y-162.179
X105.076Y-123.308
X105.076Y-125.848
X105.076Y-128.388
X105.109Y-90.513
X105.109Y-93.053
X105.109Y-95.593
X105.109Y-101.308
X105.109Y-103.848
X105.109Y-106.388
X176.657Y-115.895
X176.657Y-118.435
X176.657Y-120.975
X176.704Y-127.508
X176.704Y-130.048
X176.704Y-132.588
X176.784Y-138.049
X176.784Y-140.589
X176.784Y-143.129
X176.784Y-148.844
X176.784Y-151.384
X176.784Y-153.924
X176.784Y-159.855
X176.784Y-162.395
X176.784Y-164.935
X177.673Y-71.755
X177.673Y-74.295
X177.673Y-76.835
X177.673Y-82.423
X177.673Y-84.963
X177.673Y-87.503
X177.673Y-104.296
X177.673Y-106.836
X177.673Y-109.376
X177.72Y-93.229
X177.72Y-95.769
X177.72Y-98.309
T6
X91.647Y-157.663
X91.647Y-161.163
X91.694Y-136.327
X91.694Y-139.827
X91.704Y-146.399
X91.704Y-149.899
X91.774Y-92.583
X91.774Y-96.083
X91.774Y-103.133
X91.774Y-106.633
X91.774Y-124.008
X91.774Y-127.508
X91.821Y-113.086
X91.821Y-116.586
X96.647Y-157.663
X96.647Y-161.163
X96.694Y-136.327
X96.694Y-139.827
X96.704Y-146.399
X96.704Y-149.899
X96.774Y-92.583
X96.774Y-96.083
X96.774Y-103.133
X96.774Y-106.633
X96.774Y-124.008
X96.774Y-127.508
X96.821Y-113.086
X96.821Y-116.586
X184.738Y-104.831
X184.738Y-108.331
X184.738Y-114.808
X184.738Y-118.308
X184.738Y-146.106
X184.738Y-149.606
X184.785Y-83.622
X184.785Y-87.122
X184.785Y-93.519
X184.785Y-97.019
X184.785Y-124.841
X184.785Y-128.341
X184.785Y-135.692
X184.785Y-139.192
X184.785Y-157.988
X184.785Y-161.488
X184.912Y-73.716
X184.912Y-77.216
X189.738Y-104.831
X189.738Y-108.331
X189.738Y-114.808
X189.738Y-118.308
X189.738Y-146.106
X189.738Y-149.606
X189.785Y-83.622
X189.785Y-87.122
X189.785Y-93.519
X189.785Y-97.019
X189.785Y-124.841
X189.785Y-128.341
X189.785Y-135.692
X189.785Y-139.192
X189.785Y-157.988
X189.785Y-161.488
X189.912Y-73.716
X189.912Y-77.216
T7
X129.54Y-159.512
X129.54Y-168.712
T8
X138.804Y-152.41
X138.804Y-164.91
X146.304Y-152.41
X146.304Y-164.91
T2
G00X86.876Y-39.666
M15
G01X86.276Y-39.666
M16
G05
G00X86.876Y-48.306
M15
G01X86.276Y-48.306
M16
G05
G00X90.676Y-39.666
M15
G01X90.076Y-39.666
M16
G05
G00X90.676Y-48.306
M15
G01X90.076Y-48.306
M16
G05
M30
